<svg viewBox="0 0 107.5361 16.7057" x="0" y="0" fill="none" xmlns="http://www.w3.org/2000/svg"><g id="Logo" xmlns="http://www.w3.org/2000/svg">
<g id="Icon">
<path id="Vector" d="M13.077,9.1417l-3.753,6.427l-3.752,-6.427zM14.082,8.5677h-9.52l4.762,8.138z" fill="#263238"/>
<path id="Vector_2" d="M19.601,1.1488l3.752,6.4267h-7.505zM19.601,0l-4.762,8.1379h9.523z" fill="#263238"/>
<path id="Vector_3" d="M0,0l3.993,7.198l4.363,-7.0173z" fill="#4CAF4F"/>
<path id="Vector_4" d="M9.324,0.6306l4.188,7.1578h-8.384z" fill="#4CAF4F"/>
<path id="Vector_5" d="M14.591,9.3507l4.192,7.355h-8.584l4.261,-7.355z" fill="#4CAF4F"/>
<path id="Vector_6" d="M15.498,8.9051l4.103,7.2426l4.159,-7.2426z" fill="#4CAF4F"/>
</g>
<g id="Nexcent">
<path d="M41.787,1.1617v14.175h-2.589l-6.166,-8.9218h-0.104v8.9218h-2.997v-14.175h2.63l6.118,8.914h0.125v-8.914z" fill="#263238"/>
<path d="M49.052,15.5437c-1.093,0 -2.034,-0.221 -2.823,-0.664c-0.785,-0.448 -1.389,-1.08 -1.814,-1.897c-0.424,-0.821 -0.637,-1.792 -0.637,-2.913c0,-1.094 0.213,-2.0537 0.637,-2.8796c0.425,-0.826 1.022,-1.4696 1.793,-1.931c0.775,-0.4615 1.684,-0.6922 2.727,-0.6922c0.701,0 1.354,0.1131 1.958,0.3392c0.609,0.2215 1.14,0.556 1.592,1.0035c0.457,0.4476 0.812,1.0105 1.066,1.6888c0.254,0.6737 0.381,1.4623 0.381,2.3673v0.81h-8.977v-1.8277h6.201c0,-0.4245 -0.092,-0.8005 -0.276,-1.1281c-0.185,-0.3276 -0.441,-0.5837 -0.769,-0.7683c-0.323,-0.1891 -0.699,-0.2837 -1.128,-0.2837c-0.447,0 -0.844,0.1038 -1.19,0.3114c-0.342,0.203 -0.609,0.4776 -0.803,0.8236c-0.194,0.3415 -0.293,0.7221 -0.298,1.1418v1.737c0,0.526 0.097,0.981 0.291,1.364c0.198,0.383 0.478,0.678 0.837,0.886c0.36,0.207 0.787,0.311 1.281,0.311c0.327,0 0.627,-0.046 0.9,-0.138c0.272,-0.092 0.505,-0.231 0.699,-0.415c0.193,-0.185 0.341,-0.411 0.443,-0.679l2.727,0.18c-0.139,0.655 -0.423,1.228 -0.852,1.717c-0.424,0.484 -0.973,0.863 -1.647,1.135c-0.669,0.267 -1.442,0.401 -2.319,0.401z" fill="#263238"/>
<path d="M58.129,4.7054l1.952,3.7166l2,-3.7166h3.025l-3.08,5.3153l3.163,5.316h-3.011l-2.097,-3.676l-2.062,3.676h-3.046l3.156,-5.316l-3.045,-5.3153z" fill="#263238"/>
<path d="M71.28,15.5437c-1.089,0 -2.026,-0.231 -2.81,-0.692c-0.78,-0.466 -1.38,-1.112 -1.8,-1.938c-0.415,-0.826 -0.623,-1.776 -0.623,-2.851c0,-1.089 0.21,-2.0444 0.63,-2.8657c0.425,-0.8259 1.027,-1.4696 1.807,-1.931c0.779,-0.466 1.707,-0.6991 2.782,-0.6991c0.927,0 1.739,0.1685 2.436,0.5053c0.697,0.3368 1.248,0.8098 1.654,1.4188c0.406,0.6091 0.63,1.3243 0.672,2.1456h-2.783c-0.078,-0.5306 -0.286,-0.9574 -0.623,-1.2804c-0.332,-0.3276 -0.768,-0.4914 -1.308,-0.4914c-0.457,0 -0.856,0.1245 -1.197,0.3737c-0.337,0.2446 -0.6,0.6021 -0.789,1.0728c-0.189,0.4706 -0.284,1.0404 -0.284,1.7094c0,0.678 0.092,1.255 0.277,1.73c0.189,0.476 0.454,0.838 0.796,1.087c0.341,0.249 0.74,0.374 1.197,0.374c0.337,0 0.639,-0.069 0.907,-0.208c0.272,-0.138 0.496,-0.339 0.671,-0.602c0.18,-0.268 0.298,-0.588 0.353,-0.962h2.783c-0.047,0.812 -0.268,1.527 -0.665,2.145c-0.392,0.614 -0.934,1.094 -1.626,1.44c-0.692,0.346 -1.511,0.519 -2.457,0.519z" fill="#263238"/>
<path d="M82.76,15.5437c-1.093,0 -2.035,-0.221 -2.824,-0.664c-0.784,-0.448 -1.389,-1.08 -1.813,-1.897c-0.425,-0.821 -0.637,-1.792 -0.637,-2.913c0,-1.094 0.212,-2.0537 0.637,-2.8796c0.424,-0.826 1.022,-1.4696 1.793,-1.931c0.775,-0.4615 1.684,-0.6922 2.726,-0.6922c0.702,0 1.355,0.1131 1.959,0.3392c0.609,0.2215 1.14,0.556 1.592,1.0035c0.457,0.4476 0.812,1.0105 1.066,1.6888c0.254,0.6737 0.381,1.4623 0.381,2.3673v0.81h-8.977v-1.8277h6.201c0,-0.4245 -0.092,-0.8005 -0.277,-1.1281c-0.184,-0.3276 -0.44,-0.5837 -0.768,-0.7683c-0.323,-0.1891 -0.699,-0.2837 -1.128,-0.2837c-0.448,0 -0.844,0.1038 -1.191,0.3114c-0.341,0.203 -0.609,0.4776 -0.802,0.8236c-0.194,0.3415 -0.293,0.7221 -0.298,1.1418v1.737c0,0.526 0.097,0.981 0.291,1.364c0.198,0.383 0.477,0.678 0.837,0.886c0.36,0.207 0.787,0.311 1.281,0.311c0.327,0 0.627,-0.046 0.899,-0.138c0.273,-0.092 0.506,-0.231 0.699,-0.415c0.194,-0.185 0.342,-0.411 0.443,-0.679l2.727,0.18c-0.138,0.655 -0.422,1.228 -0.851,1.717c-0.425,0.484 -0.974,0.863 -1.647,1.135c-0.669,0.267 -1.442,0.401 -2.319,0.401z" fill="#263238"/>
<path d="M92.512,9.1907v6.146h-2.948v-10.6313h2.81v1.8756h0.124c0.235,-0.6183 0.63,-1.1074 1.184,-1.4673c0.553,-0.3645 1.225,-0.5468 2.014,-0.5468c0.738,0 1.382,0.1615 1.931,0.4845c0.549,0.323 0.976,0.7844 1.28,1.3843c0.305,0.5952 0.457,1.3057 0.457,2.1317v6.7693h-2.948v-6.243c0.004,-0.6509 -0.162,-1.1585 -0.499,-1.523c-0.337,-0.3691 -0.8,-0.5537 -1.391,-0.5537c-0.397,0 -0.747,0.0854 -1.052,0.2561c-0.3,0.1707 -0.535,0.4199 -0.706,0.7475c-0.166,0.323 -0.251,0.7129 -0.256,1.1701z" fill="#263238"/>
<path d="M107.342,4.7054v2.2147h-6.402v-2.2147zM102.394,2.1584h2.948v9.9113c0,0.272 0.042,0.484 0.125,0.637c0.083,0.147 0.198,0.251 0.346,0.311c0.152,0.06 0.327,0.09 0.526,0.09c0.138,0 0.277,-0.012 0.415,-0.035c0.138,-0.027 0.245,-0.048 0.318,-0.062l0.464,2.194c-0.148,0.046 -0.355,0.099 -0.623,0.159c-0.267,0.065 -0.593,0.104 -0.976,0.118c-0.71,0.028 -1.333,-0.067 -1.868,-0.284c-0.531,-0.217 -0.944,-0.554 -1.239,-1.01c-0.296,-0.457 -0.441,-1.034 -0.436,-1.731z" fill="#263238"/>
</g>
</g></svg>