<svg viewBox="0 0 45.2445 38.9799" x="0" y="0" fill="none" xmlns="http://www.w3.org/2000/svg"><g id="Icon_4" xmlns="http://www.w3.org/2000/svg">
<path id="Rectangle 157_2" d="M45.2442,26.4501c0,6.92 -5.609,12.53 -12.529,12.53h-18.794c-1.922,0 -3.48,-1.558 -3.48,-3.481v-23.666c0,-3.844 3.116,-6.961 6.961,-6.961h24.362c1.922,0 3.48,1.559 3.48,3.481z" fill="#E8F5E9"/>
<g id="Icon_5">
<g id="Group 1">
<path id="Vector_268" d="M18.7352,13.2331c-0.217,0 -0.393,-0.177 -0.393,-0.394v-0.669c0,-0.217 0.176,-0.394 0.393,-0.394c0.218,0 0.394,0.176 0.394,0.394v0.669c0,0.217 -0.176,0.394 -0.394,0.394z" fill="#103E13"/>
<path id="Vector_269" d="M17.0802,13.2331c-0.217,0 -0.394,-0.177 -0.394,-0.394v-0.669c0,-0.217 0.177,-0.394 0.394,-0.394c0.217,0 0.394,0.176 0.394,0.394v0.669c-0.001,0.217 -0.177,0.394 -0.394,0.394z" fill="#103E13"/>
<path id="Vector_270" d="M15.4252,13.2331c-0.217,0 -0.394,-0.177 -0.394,-0.394v-0.669c0,-0.217 0.176,-0.394 0.394,-0.394c0.217,0 0.393,0.176 0.393,0.394v0.669c0,0.217 -0.176,0.394 -0.393,0.394z" fill="#103E13"/>
<path id="Vector_271" d="M18.7352,15.9691c-0.217,0 -0.393,-0.176 -0.393,-0.394v-0.669c0,-0.217 0.176,-0.393 0.393,-0.393c0.218,0 0.394,0.176 0.394,0.393v0.669c0,0.218 -0.176,0.394 -0.394,0.394z" fill="#103E13"/>
<path id="Vector_272" d="M17.0802,15.9691c-0.217,0 -0.394,-0.176 -0.394,-0.394v-0.669c0,-0.217 0.177,-0.393 0.394,-0.393c0.217,0 0.394,0.176 0.394,0.393v0.669c-0.001,0.218 -0.177,0.394 -0.394,0.394z" fill="#103E13"/>
<path id="Vector_273" d="M15.4252,15.9691c-0.217,0 -0.394,-0.176 -0.394,-0.394v-0.669c0,-0.217 0.176,-0.393 0.394,-0.393c0.217,0 0.393,0.176 0.393,0.393v0.669c0,0.218 -0.176,0.394 -0.393,0.394z" fill="#103E13"/>
<path id="Vector_274" d="M18.7352,18.7061c-0.217,0 -0.393,-0.177 -0.393,-0.394v-0.669c0,-0.217 0.176,-0.394 0.393,-0.394c0.218,0 0.394,0.176 0.394,0.394v0.669c0,0.217 -0.176,0.394 -0.394,0.394z" fill="#103E13"/>
<path id="Vector_275" d="M17.0802,18.7061c-0.217,0 -0.394,-0.177 -0.394,-0.394v-0.669c0,-0.217 0.177,-0.394 0.394,-0.394c0.217,0 0.394,0.176 0.394,0.394v0.669c-0.001,0.217 -0.177,0.394 -0.394,0.394z" fill="#103E13"/>
<path id="Vector_276" d="M15.4252,18.7061c-0.217,0 -0.394,-0.177 -0.394,-0.394v-0.669c0,-0.217 0.176,-0.394 0.394,-0.394c0.217,0 0.393,0.176 0.393,0.394v0.669c0,0.217 -0.176,0.394 -0.393,0.394z" fill="#103E13"/>
<path id="Vector_277" d="M18.7352,21.4411c-0.217,0 -0.393,-0.176 -0.393,-0.393v-0.669c0,-0.218 0.176,-0.394 0.393,-0.394c0.218,0 0.394,0.176 0.394,0.394v0.669c0,0.217 -0.176,0.393 -0.394,0.393z" fill="#103E13"/>
<path id="Vector_278" d="M17.0802,21.4411c-0.217,0 -0.394,-0.176 -0.394,-0.393v-0.669c0,-0.218 0.177,-0.394 0.394,-0.394c0.217,0 0.394,0.176 0.394,0.394v0.669c-0.001,0.217 -0.177,0.393 -0.394,0.393z" fill="#103E13"/>
<path id="Vector_279" d="M15.4252,21.4411c-0.217,0 -0.394,-0.176 -0.394,-0.393v-0.669c0,-0.218 0.176,-0.394 0.394,-0.394c0.217,0 0.393,0.176 0.393,0.394v0.669c0,0.217 -0.176,0.393 -0.393,0.393z" fill="#103E13"/>
<path id="Vector_280" d="M18.7352,24.1781c-0.217,0 -0.393,-0.176 -0.393,-0.394v-0.669c0,-0.217 0.176,-0.394 0.393,-0.394c0.218,0 0.394,0.177 0.394,0.394v0.669c0,0.217 -0.176,0.394 -0.394,0.394z" fill="#103E13"/>
<path id="Vector_281" d="M17.0802,24.1781c-0.217,0 -0.394,-0.176 -0.394,-0.394v-0.669c0,-0.217 0.177,-0.394 0.394,-0.394c0.217,0 0.394,0.177 0.394,0.394v0.669c-0.001,0.217 -0.177,0.394 -0.394,0.394z" fill="#103E13"/>
<path id="Vector_282" d="M15.4252,24.1781c-0.217,0 -0.394,-0.176 -0.394,-0.394v-0.669c0,-0.217 0.177,-0.394 0.394,-0.394c0.217,0 0.394,0.177 0.394,0.394v0.669c-0.001,0.217 -0.177,0.394 -0.394,0.394z" fill="#103E13"/>
<path id="Vector_283" d="M4.1772,26.9011c0,0.217 0.176,0.394 0.393,0.394h23.978c0.217,0 0.394,-0.177 0.394,-0.394c0,-0.217 -0.176,-0.394 -0.394,-0.394h-0.728v-11.305c0,-0.217 -0.176,-0.394 -0.393,-0.394l-6.429,0.001v-8.151c0,-0.138 -0.072,-0.265 -0.189,-0.336c-0.118,-0.072 -0.264,-0.076 -0.386,-0.013l-7.309,3.805c-0.131,0.068 -0.212,0.203 -0.212,0.35v7.119h-7.073c-0.218,0 -0.394,0.176 -0.394,0.394v8.53h-0.866c-0.217,0 -0.393,0.176 -0.393,0.394zM20.9982,20.7721h6.035v5.736l-6.035,-0.001zM20.9982,18.0361h6.035v1.949h-6.035zM20.9982,15.5961h6.035v1.653h-6.035zM13.6892,10.7031l6.521,-3.396v19.2h-6.521zM8.1692,23.3621c0,-0.817 0.647,-1.482 1.443,-1.482c0.796,0 1.444,0.665 1.444,1.482v3.145h-2.887zM6.2222,18.3701h6.68v8.137h-1.059v-3.145c0,-1.251 -1,-2.269 -2.231,-2.269c-1.23,0 -2.23,1.018 -2.23,2.269v3.145h-1.16z" fill="#103E13"/>
</g>
</g>
</g></svg>