<svg viewBox="0 0 11.3515 12.6869" x="0" y="0" fill="none" xmlns="http://www.w3.org/2000/svg"><g id="Vector_433" xmlns="http://www.w3.org/2000/svg">
<path d="M11.0159,12.3529v-1.335c0,-0.709 -0.28,-1.388 -0.78,-1.889c-0.5,-0.501 -1.18,-0.782 -1.89,-0.782h-0.67c-0.17,0 -0.34,-0.071 -0.47,-0.196c-0.12,-0.125 -0.19,-0.295 -0.19,-0.472v-3.339c0,-0.354 -0.15,-0.694 -0.4,-0.944c-0.25,-0.25 -0.59,-0.391 -0.94,-0.391c-0.35,0 -0.69,0.141 -0.94,0.391c-0.25,0.25 -0.4,0.59 -0.4,0.944v6.01l-1.6,-2.137c-0.12,-0.166 -0.28,-0.3 -0.47,-0.393c-0.18,-0.093 -0.39,-0.141 -0.6,-0.141h-0.29c-0.57,0 -1.04,0.468 -1.04,1.046c0,0.189 0.05,0.376 0.15,0.538l1.85,3.09M5.6759,1.0019v-0.668zM9.6859,5.0079h0.66zM1.0059,5.0079h0.66zM2.5659,1.8979l-0.47,-0.472zM8.7859,1.8979l0.47,-0.472z" fill="#4CAF4F"/>
<path d="M11.0159,12.3529v-1.335c0,-0.709 -0.28,-1.388 -0.78,-1.889c-0.5,-0.501 -1.18,-0.782 -1.89,-0.782h-0.67c-0.17,0 -0.34,-0.071 -0.47,-0.196c-0.12,-0.125 -0.19,-0.295 -0.19,-0.472v-3.339c0,-0.354 -0.15,-0.694 -0.4,-0.944c-0.25,-0.25 -0.59,-0.391 -0.94,-0.391v0c-0.35,0 -0.69,0.141 -0.94,0.391c-0.25,0.25 -0.4,0.59 -0.4,0.944v6.01l-1.6,-2.137c-0.12,-0.166 -0.28,-0.3 -0.47,-0.393c-0.18,-0.093 -0.39,-0.141 -0.6,-0.141h-0.29c-0.57,0 -1.04,0.468 -1.04,1.046c0,0.189 0.05,0.376 0.15,0.538l1.85,3.09M5.6759,1.0019v-0.668M9.6859,5.0079h0.66M1.0059,5.0079h0.66M2.5659,1.8979l-0.47,-0.472M8.7859,1.8979l0.47,-0.472" stroke="#4CAF4F" stroke-width="0.667733" stroke-linecap="round" stroke-linejoin="round"/>
</g></svg>