<svg viewBox="0 0 45.2445 38.9799" x="0" y="0" fill="none" xmlns="http://www.w3.org/2000/svg"><g id="Icon_6" xmlns="http://www.w3.org/2000/svg">
<path id="Rectangle 157_3" d="M45.2446,26.4501c0,6.92 -5.61,12.53 -12.529,12.53h-18.794c-1.922,0 -3.481,-1.558 -3.481,-3.481v-23.666c0,-3.844 3.117,-6.961 6.961,-6.961h24.363c1.922,0 3.48,1.559 3.48,3.481z" fill="#E8F5E9"/>
<g id="Icon_7">
<g id="Group 2">
<path id="Vector_284" d="M19.7066,16.4581c-0.167,0 -0.323,-0.046 -0.461,-0.12v0.002c0,0.264 -0.103,0.511 -0.289,0.697c-0.186,0.186 -0.433,0.288 -0.696,0.288c-0.171,0 -0.328,-0.047 -0.468,-0.123c-0.014,0.241 -0.11,0.467 -0.282,0.639c-0.186,0.186 -0.434,0.288 -0.697,0.288c-0.524,0 -0.949,-0.411 -0.98,-0.927c-0.162,0.087 -0.345,0.133 -0.534,0.121c-0.515,-0.034 -0.919,-0.479 -0.919,-1.013v-4.432l-0.504,0.874c-0.192,0.335 -0.552,0.542 -0.94,0.542c-0.188,0 -0.375,-0.049 -0.54,-0.144c-0.206,-0.119 -0.353,-0.311 -0.414,-0.539c-0.061,-0.23 -0.03,-0.469 0.089,-0.675c0.001,0 1.651,-2.858 1.752,-3.034c0.012,-0.026 0.046,-0.103 0.075,-0.168c0.028,-0.063 0.052,-0.127 0.075,-0.191c0.497,-1.405 1.73,-2.278 3.217,-2.278c1.931,0 3.501,1.703 3.501,3.796v5.412c0,0.263 -0.102,0.511 -0.288,0.697c-0.186,0.186 -0.433,0.288 -0.697,0.288zM17.1906,6.7881c-1.278,0 -2.296,0.722 -2.724,1.93c-0.027,0.077 -0.056,0.154 -0.089,0.229c-0.097,0.216 -0.097,0.216 -0.124,0.247l-0.004,-0.003c-0.134,0.255 -0.535,0.948 -1.724,3.008c-0.049,0.084 -0.062,0.182 -0.037,0.276c0.025,0.094 0.086,0.173 0.169,0.221c0.26,0.149 0.617,0.053 0.765,-0.205l0.994,-1.721c0.059,-0.102 0.179,-0.152 0.294,-0.121c0.115,0.03 0.194,0.134 0.194,0.253v5.408c0,0.255 0.193,0.475 0.429,0.491c0.137,0.007 0.264,-0.039 0.36,-0.134c0.086,-0.087 0.134,-0.203 0.134,-0.327v-3.537c0,-0.144 0.118,-0.262 0.262,-0.262c0.145,0 0.262,0.117 0.262,0.262v4.341c0,0.255 0.207,0.462 0.462,0.462c0.123,0 0.239,-0.048 0.326,-0.135c0.087,-0.087 0.135,-0.203 0.135,-0.327v-4.341c0,-0.144 0.117,-0.262 0.262,-0.262c0.145,0 0.262,0.117 0.262,0.262v3.497v0.04c0,0.255 0.207,0.462 0.462,0.462c0.123,0 0.239,-0.048 0.327,-0.136c0.086,-0.086 0.134,-0.202 0.134,-0.326v-3.537c0,-0.145 0.117,-0.262 0.262,-0.262c0.145,0 0.262,0.117 0.262,0.262v2.67c0,0.255 0.207,0.462 0.461,0.462c0.124,0 0.24,-0.048 0.327,-0.135c0.087,-0.087 0.135,-0.203 0.135,-0.327v-5.412c0,-1.804 -1.336,-3.273 -2.978,-3.273z" fill="#103E13"/>
<path id="Vector_285" d="M9.4176,20.2191l3.8,-2.28c0.458,-0.275 1.048,-0.158 1.342,0.267c0.107,0.154 0.162,0.335 0.17,0.518c0.142,-0.074 0.296,-0.114 0.453,-0.114c0.08,0 0.161,0.01 0.241,0.03c0.255,0.064 0.47,0.223 0.605,0.449c0.136,0.226 0.175,0.491 0.112,0.746c-0.059,0.236 -0.203,0.434 -0.402,0.571c0.139,0.082 0.26,0.194 0.345,0.337c0.136,0.226 0.175,0.491 0.112,0.746c-0.064,0.255 -0.224,0.47 -0.45,0.606l-0.001,0.001c0.137,0.082 0.255,0.193 0.34,0.334c0.135,0.226 0.175,0.491 0.111,0.746c-0.064,0.255 -0.223,0.471 -0.449,0.606l-4.64,2.784c-0.866,0.519 -1.867,0.699 -2.819,0.504c-0.96,-0.196 -1.755,-0.748 -2.238,-1.554c-0.765,-1.275 -0.651,-2.781 0.298,-3.931c0.044,-0.052 0.086,-0.106 0.125,-0.161c0.041,-0.059 0.09,-0.128 0.106,-0.151c0.098,-0.176 1.701,-3.064 1.701,-3.063c0.162,-0.292 0.465,-0.458 0.778,-0.458c0.146,0 0.294,0.036 0.431,0.112c0.165,0.092 0.303,0.227 0.4,0.388c0.199,0.333 0.206,0.748 0.019,1.084zM9.4396,18.5221c-0.05,-0.085 -0.12,-0.153 -0.206,-0.201c-0.176,-0.097 -0.399,-0.034 -0.496,0.142c-1.147,2.067 -1.538,2.771 -1.689,3.021l0.004,0.001c-0.013,0.042 -0.013,0.042 -0.151,0.239c-0.047,0.067 -0.098,0.131 -0.15,0.194c-0.816,0.989 -0.911,2.233 -0.254,3.329c0.407,0.679 1.08,1.144 1.895,1.31c0.823,0.168 1.691,0.012 2.444,-0.44l4.641,-2.784c0.106,-0.064 0.181,-0.164 0.21,-0.284c0.03,-0.119 0.012,-0.244 -0.052,-0.349c-0.131,-0.219 -0.415,-0.29 -0.633,-0.159l-2.289,1.374c-0.124,0.074 -0.285,0.034 -0.36,-0.09c-0.074,-0.124 -0.034,-0.285 0.09,-0.359l2.289,-1.374l0.744,-0.446c0.106,-0.064 0.181,-0.164 0.211,-0.284c0.03,-0.119 0.011,-0.244 -0.053,-0.349c-0.131,-0.219 -0.415,-0.29 -0.633,-0.159l-3.033,1.82c-0.124,0.074 -0.285,0.034 -0.359,-0.09c-0.075,-0.124 -0.034,-0.285 0.09,-0.359l3.722,-2.233c0.106,-0.064 0.181,-0.165 0.211,-0.284c0.029,-0.12 0.011,-0.244 -0.053,-0.35c-0.063,-0.105 -0.164,-0.18 -0.283,-0.21c-0.121,-0.03 -0.244,-0.011 -0.35,0.052l-0.689,0.413v0.001v0l-3.033,1.819c-0.125,0.075 -0.285,0.035 -0.36,-0.09c-0.074,-0.124 -0.034,-0.284 0.09,-0.359l3.033,-1.819c0.106,-0.064 0.181,-0.165 0.211,-0.284c0.033,-0.131 0.008,-0.265 -0.07,-0.377c-0.135,-0.195 -0.423,-0.247 -0.642,-0.115l-4.637,2.782c-0.102,0.06 -0.232,0.045 -0.317,-0.037c-0.085,-0.082 -0.104,-0.211 -0.047,-0.315l0.965,-1.737c0.096,-0.174 0.092,-0.388 -0.011,-0.56z" fill="#103E13"/>
<path id="Vector_286" d="M27.5766,25.5161c-0.483,0.806 -1.278,1.358 -2.238,1.554c-0.952,0.194 -1.952,0.015 -2.819,-0.504l-4.64,-2.784c-0.226,-0.136 -0.386,-0.351 -0.45,-0.606c-0.063,-0.255 -0.024,-0.52 0.112,-0.746c0.084,-0.141 0.202,-0.252 0.34,-0.334l-0.002,-0.001c-0.225,-0.136 -0.385,-0.351 -0.449,-0.606c-0.064,-0.255 -0.024,-0.52 0.111,-0.746c0.088,-0.145 0.207,-0.259 0.344,-0.339c-0.198,-0.136 -0.341,-0.334 -0.4,-0.569c-0.064,-0.256 -0.024,-0.52 0.111,-0.746c0.136,-0.226 0.351,-0.385 0.606,-0.449c0.08,-0.02 0.161,-0.03 0.241,-0.03c0.157,0 0.311,0.04 0.453,0.114c0.008,-0.183 0.063,-0.364 0.17,-0.518c0.294,-0.425 0.883,-0.542 1.342,-0.267l3.8,2.28l-0.489,-0.882c-0.188,-0.337 -0.181,-0.753 0.018,-1.085c0.097,-0.162 0.236,-0.296 0.401,-0.389c0.137,-0.076 0.284,-0.111 0.43,-0.111c0.313,0 0.616,0.165 0.778,0.457c0.564,1.015 1.627,2.93 1.702,3.064c0.016,0.023 0.064,0.092 0.105,0.15c0.039,0.056 0.081,0.109 0.125,0.162c0.949,1.15 1.063,2.656 0.298,3.931zM26.8746,21.9191c-0.052,-0.064 -0.103,-0.128 -0.15,-0.194c-0.142,-0.202 -0.145,-0.207 -0.156,-0.259c-0.165,-0.274 -0.57,-1.002 -1.68,-3.003c-0.098,-0.176 -0.319,-0.24 -0.495,-0.142c-0.087,0.048 -0.157,0.116 -0.208,0.201c-0.103,0.171 -0.107,0.386 -0.009,0.56l0.964,1.737c0.057,0.104 0.038,0.233 -0.047,0.315c-0.085,0.083 -0.215,0.097 -0.317,0.036l-4.637,-2.782c-0.219,-0.131 -0.507,-0.079 -0.642,0.116c-0.078,0.112 -0.103,0.246 -0.07,0.377c0.03,0.119 0.105,0.22 0.211,0.283c0,0 0,0.001 0.001,0.001l3.032,1.819c0.124,0.074 0.164,0.235 0.089,0.359c-0.074,0.124 -0.235,0.165 -0.359,0.09l-3.722,-2.233c-0.106,-0.063 -0.23,-0.082 -0.35,-0.052c-0.119,0.03 -0.22,0.104 -0.284,0.211c-0.063,0.105 -0.082,0.229 -0.052,0.349c0.03,0.119 0.105,0.22 0.211,0.284l0.724,0.434l2.998,1.799c0.124,0.074 0.164,0.235 0.09,0.359c-0.075,0.124 -0.235,0.164 -0.36,0.09l-3.032,-1.82c-0.219,-0.131 -0.503,-0.06 -0.634,0.159c-0.063,0.106 -0.082,0.23 -0.052,0.349c0.03,0.12 0.105,0.22 0.211,0.284l0.743,0.446l2.289,1.374c0.124,0.074 0.165,0.235 0.09,0.359c-0.074,0.124 -0.235,0.164 -0.359,0.09l-2.289,-1.374c-0.106,-0.063 -0.23,-0.082 -0.35,-0.052c-0.119,0.03 -0.22,0.105 -0.284,0.211c-0.063,0.106 -0.082,0.23 -0.052,0.349c0.03,0.119 0.105,0.22 0.211,0.284l4.64,2.784c0.753,0.452 1.622,0.608 2.445,0.44c0.814,-0.166 1.487,-0.631 1.894,-1.31c0.658,-1.096 0.563,-2.34 -0.253,-3.329z" fill="#103E13"/>
</g>
</g>
</g></svg>