<svg viewBox="0 0 10.8081 10.016" x="0" y="0" fill="none" xmlns="http://www.w3.org/2000/svg"><defs><mask id="path-497-inside-1_204_686" fill="white" xmlns="http://www.w3.org/2000/svg">
<path d="M6.7907,4.8891c-0.08,0 -0.15,-0.022 -0.22,-0.057v0.001c0,0.126 -0.05,0.245 -0.14,0.334c-0.09,0.089 -0.21,0.138 -0.33,0.138c-0.08,0 -0.16,-0.022 -0.23,-0.059c0,0.116 -0.05,0.224 -0.13,0.306c-0.09,0.09 -0.21,0.139 -0.34,0.139c-0.25,0 -0.45,-0.198 -0.47,-0.445c-0.07,0.042 -0.16,0.064 -0.25,0.058c-0.25,-0.016 -0.44,-0.23 -0.44,-0.486v-2.126l-0.25,0.42c-0.09,0.16 -0.26,0.26 -0.45,0.26c-0.09,0 -0.18,-0.024 -0.25,-0.069c-0.1,-0.058 -0.17,-0.149 -0.2,-0.259c-0.03,-0.11 -0.02,-0.225 0.04,-0.324c0,0 0.79,-1.371 0.84,-1.455c0.01,-0.013 0.02,-0.049 0.04,-0.081c0.01,-0.03 0.02,-0.06 0.03,-0.091c0.24,-0.674 0.83,-1.093 1.54,-1.093c0.93,0 1.68,0.817 1.68,1.821v2.596c0,0.126 -0.05,0.245 -0.13,0.334c-0.09,0.089 -0.21,0.138 -0.34,0.138zM5.5807,0.2511c-0.61,0 -1.1,0.346 -1.3,0.926c-0.02,0.037 -0.03,0.073 -0.04,0.109c-0.05,0.104 -0.05,0.104 -0.06,0.119l-0.01,-0.001c-0.06,0.122 -0.25,0.454 -0.82,1.442c-0.03,0.041 -0.03,0.088 -0.02,0.133c0.01,0.045 0.04,0.083 0.08,0.106c0.13,0.071 0.3,0.025 0.37,-0.099l0.47,-0.825c0.03,-0.049 0.09,-0.073 0.14,-0.058c0.06,0.015 0.1,0.064 0.1,0.121v2.594c0,0.122 0.09,0.228 0.2,0.236c0.07,0.003 0.13,-0.019 0.18,-0.065c0.04,-0.041 0.06,-0.097 0.06,-0.156v-1.697c0,-0.069 0.06,-0.125 0.13,-0.125c0.07,0 0.12,0.056 0.12,0.125v2.082c0,0.122 0.1,0.222 0.22,0.222c0.06,0 0.12,-0.023 0.16,-0.065c0.04,-0.042 0.06,-0.097 0.06,-0.157v-2.082c0,-0.069 0.06,-0.125 0.13,-0.125c0.07,0 0.13,0.056 0.13,0.125v1.677v0.02c0,0.122 0.1,0.221 0.22,0.221c0.06,0 0.11,-0.023 0.15,-0.065c0.05,-0.041 0.07,-0.097 0.07,-0.156v-1.697c0,-0.069 0.06,-0.125 0.12,-0.125c0.07,0 0.13,0.056 0.13,0.125v1.281c0,0.122 0.1,0.221 0.22,0.221c0.06,0 0.12,-0.023 0.16,-0.064c0.04,-0.042 0.06,-0.098 0.06,-0.157v-2.596c0,-0.866 -0.64,-1.57 -1.43,-1.57z"/>
</mask><mask id="path-500-inside-2_204_686" fill="white" xmlns="http://www.w3.org/2000/svg">
<path d="M10.5707,9.2341c-0.24,0.387 -0.62,0.651 -1.08,0.745c-0.45,0.093 -0.93,0.007 -1.35,-0.242l-2.23,-1.335c-0.1,-0.065 -0.18,-0.168 -0.21,-0.291c-0.03,-0.122 -0.01,-0.249 0.05,-0.357c0.04,-0.068 0.1,-0.121 0.17,-0.161v0c-0.11,-0.065 -0.19,-0.168 -0.22,-0.291c-0.03,-0.122 -0.01,-0.249 0.05,-0.358c0.04,-0.069 0.1,-0.124 0.17,-0.162c-0.1,-0.066 -0.17,-0.16 -0.19,-0.273c-0.03,-0.123 -0.02,-0.25 0.05,-0.358c0.06,-0.108 0.17,-0.185 0.29,-0.215c0.04,-0.01 0.08,-0.015 0.12,-0.015c0.07,0 0.14,0.02 0.21,0.055c0.01,-0.088 0.03,-0.174 0.08,-0.249c0.15,-0.203 0.43,-0.259 0.65,-0.127l1.82,1.093l-0.23,-0.423c-0.09,-0.162 -0.09,-0.361 0,-0.52c0.05,-0.078 0.12,-0.142 0.2,-0.187c0.06,-0.036 0.13,-0.053 0.2,-0.053c0.15,0 0.3,0.079 0.38,0.219c0.27,0.487 0.78,1.405 0.81,1.47c0.01,0.011 0.03,0.044 0.05,0.072c0.02,0.026 0.04,0.052 0.06,0.077c0.46,0.552 0.51,1.274 0.15,1.886zM10.2307,7.5081c-0.03,-0.03 -0.05,-0.061 -0.07,-0.093c-0.07,-0.096 -0.07,-0.099 -0.08,-0.124c-0.08,-0.131 -0.27,-0.48 -0.8,-1.44c-0.05,-0.084 -0.16,-0.115 -0.24,-0.068c-0.04,0.023 -0.08,0.055 -0.1,0.096c-0.05,0.082 -0.05,0.185 -0.01,0.269l0.47,0.833c0.02,0.05 0.02,0.112 -0.03,0.151c-0.04,0.04 -0.1,0.047 -0.15,0.017l-2.22,-1.334c-0.11,-0.063 -0.24,-0.038 -0.31,0.055c-0.04,0.054 -0.05,0.118 -0.03,0.181c0.01,0.057 0.05,0.106 0.1,0.136c0,0 0,0 0,0.001l1.45,0.872c0.06,0.036 0.08,0.113 0.05,0.172c-0.04,0.06 -0.12,0.079 -0.18,0.043l-1.78,-1.071c-0.05,-0.03 -0.11,-0.039 -0.17,-0.025c-0.06,0.015 -0.1,0.051 -0.14,0.101c-0.03,0.051 -0.03,0.111 -0.02,0.168c0.01,0.057 0.05,0.106 0.1,0.136l0.35,0.209l1.44,0.862c0.06,0.036 0.07,0.113 0.04,0.173c-0.04,0.059 -0.11,0.078 -0.17,0.043l-1.46,-0.873c-0.1,-0.063 -0.24,-0.029 -0.3,0.076c-0.03,0.051 -0.04,0.11 -0.03,0.167c0.02,0.058 0.05,0.106 0.1,0.137l0.36,0.214l1.1,0.658c0.06,0.036 0.08,0.113 0.04,0.173c-0.03,0.059 -0.11,0.079 -0.17,0.043l-1.1,-0.659c-0.05,-0.03 -0.11,-0.039 -0.17,-0.025c-0.05,0.014 -0.1,0.05 -0.13,0.101c-0.03,0.051 -0.04,0.11 -0.03,0.168c0.02,0.057 0.05,0.105 0.1,0.136l2.23,1.335c0.36,0.217 0.78,0.292 1.17,0.211c0.39,-0.08 0.72,-0.303 0.91,-0.628c0.32,-0.526 0.27,-1.123 -0.12,-1.597z"/>
</mask></defs><g id="Group 2_3" xmlns="http://www.w3.org/2000/svg">
<g id="Vector_430">
<mask id="path-497-inside-1_204_686" fill="white">
<path d="M1394.34 335.924C1394.26 335.924 1394.19 335.902 1394.12 335.867V335.868C1394.12 335.994 1394.07 336.113 1393.98 336.202C1393.89 336.291 1393.77 336.34 1393.65 336.34C1393.57 336.34 1393.49 336.318 1393.42 336.281C1393.42 336.397 1393.37 336.505 1393.29 336.587C1393.2 336.677 1393.08 336.726 1392.95 336.726C1392.7 336.726 1392.5 336.528 1392.48 336.281C1392.41 336.323 1392.32 336.345 1392.23 336.339C1391.98 336.323 1391.79 336.109 1391.79 335.853V333.727L1391.54 334.147C1391.45 334.307 1391.28 334.407 1391.09 334.407C1391 334.407 1390.91 334.383 1390.84 334.338C1390.74 334.28 1390.67 334.189 1390.64 334.079C1390.61 333.969 1390.62 333.854 1390.68 333.755C1390.68 333.755 1391.47 332.384 1391.52 332.3C1391.53 332.287 1391.54 332.251 1391.56 332.219C1391.57 332.189 1391.58 332.159 1391.59 332.128C1391.83 331.454 1392.42 331.035 1393.13 331.035C1394.06 331.035 1394.81 331.852 1394.81 332.856L1394.81 335.452C1394.81 335.578 1394.76 335.697 1394.68 335.786C1394.59 335.875 1394.47 335.924 1394.34 335.924L1394.34 335.924ZM1393.13 331.286C1392.52 331.286 1392.03 331.632 1391.83 332.212C1391.81 332.249 1391.8 332.285 1391.79 332.321C1391.74 332.425 1391.74 332.425 1391.73 332.44L1391.72 332.439C1391.66 332.561 1391.47 332.893 1390.9 333.881C1390.87 333.922 1390.87 333.969 1390.88 334.014C1390.89 334.059 1390.92 334.097 1390.96 334.12C1391.09 334.191 1391.26 334.145 1391.33 334.021L1391.8 333.196C1391.83 333.147 1391.89 333.123 1391.94 333.138C1392 333.153 1392.04 333.202 1392.04 333.259V335.853C1392.04 335.975 1392.13 336.081 1392.24 336.089C1392.31 336.092 1392.37 336.07 1392.42 336.024C1392.46 335.983 1392.48 335.927 1392.48 335.868V334.171C1392.48 334.102 1392.54 334.046 1392.61 334.046C1392.68 334.046 1392.73 334.102 1392.73 334.171L1392.73 336.253C1392.73 336.375 1392.83 336.475 1392.95 336.475C1393.01 336.475 1393.07 336.452 1393.11 336.41C1393.15 336.368 1393.17 336.313 1393.17 336.253V334.171C1393.17 334.102 1393.23 334.046 1393.3 334.046C1393.37 334.046 1393.43 334.102 1393.43 334.171L1393.43 335.848V335.868C1393.43 335.99 1393.53 336.089 1393.65 336.089C1393.71 336.089 1393.76 336.066 1393.8 336.024C1393.85 335.983 1393.87 335.927 1393.87 335.868V334.171C1393.87 334.102 1393.93 334.046 1393.99 334.046C1394.06 334.046 1394.12 334.102 1394.12 334.171L1394.12 335.452C1394.12 335.574 1394.22 335.673 1394.34 335.673C1394.4 335.673 1394.46 335.65 1394.5 335.609C1394.54 335.567 1394.56 335.511 1394.56 335.452L1394.56 332.856C1394.56 331.99 1393.92 331.286 1393.13 331.286L1393.13 331.286Z"/>
</mask>
<path d="M6.7907,4.8891c-0.08,0 -0.15,-0.022 -0.22,-0.057v0.001c0,0.126 -0.05,0.245 -0.14,0.334c-0.09,0.089 -0.21,0.138 -0.33,0.138c-0.08,0 -0.16,-0.022 -0.23,-0.059c0,0.116 -0.05,0.224 -0.13,0.306c-0.09,0.09 -0.21,0.139 -0.34,0.139c-0.25,0 -0.45,-0.198 -0.47,-0.445c-0.07,0.042 -0.16,0.064 -0.25,0.058c-0.25,-0.016 -0.44,-0.23 -0.44,-0.486v-2.126l-0.25,0.42c-0.09,0.16 -0.26,0.26 -0.45,0.26c-0.09,0 -0.18,-0.024 -0.25,-0.069c-0.1,-0.058 -0.17,-0.149 -0.2,-0.259c-0.03,-0.11 -0.02,-0.225 0.04,-0.324c0,0 0.79,-1.371 0.84,-1.455c0.01,-0.013 0.02,-0.049 0.04,-0.081c0.01,-0.03 0.02,-0.06 0.03,-0.091c0.24,-0.674 0.83,-1.093 1.54,-1.093c0.93,0 1.68,0.817 1.68,1.821v2.596c0,0.126 -0.05,0.245 -0.13,0.334c-0.09,0.089 -0.21,0.138 -0.34,0.138zM5.5807,0.2511c-0.61,0 -1.1,0.346 -1.3,0.926c-0.02,0.037 -0.03,0.073 -0.04,0.109c-0.05,0.104 -0.05,0.104 -0.06,0.119l-0.01,-0.001c-0.06,0.122 -0.25,0.454 -0.82,1.442c-0.03,0.041 -0.03,0.088 -0.02,0.133c0.01,0.045 0.04,0.083 0.08,0.106c0.13,0.071 0.3,0.025 0.37,-0.099l0.47,-0.825c0.03,-0.049 0.09,-0.073 0.14,-0.058c0.06,0.015 0.1,0.064 0.1,0.121v2.594c0,0.122 0.09,0.228 0.2,0.236c0.07,0.003 0.13,-0.019 0.18,-0.065c0.04,-0.041 0.06,-0.097 0.06,-0.156v-1.697c0,-0.069 0.06,-0.125 0.13,-0.125c0.07,0 0.12,0.056 0.12,0.125v2.082c0,0.122 0.1,0.222 0.22,0.222c0.06,0 0.12,-0.023 0.16,-0.065c0.04,-0.042 0.06,-0.097 0.06,-0.157v-2.082c0,-0.069 0.06,-0.125 0.13,-0.125c0.07,0 0.13,0.056 0.13,0.125v1.677v0.02c0,0.122 0.1,0.221 0.22,0.221c0.06,0 0.11,-0.023 0.15,-0.065c0.05,-0.041 0.07,-0.097 0.07,-0.156v-1.697c0,-0.069 0.06,-0.125 0.12,-0.125c0.07,0 0.13,0.056 0.13,0.125v1.281c0,0.122 0.1,0.221 0.22,0.221c0.06,0 0.12,-0.023 0.16,-0.064c0.04,-0.042 0.06,-0.098 0.06,-0.157v-2.596c0,-0.866 -0.64,-1.57 -1.43,-1.57z" fill="#4CAF4F"/>
<path d="M6.7907,4.8891v-0.445h1.57l-1.34,0.824zM6.5707,4.8321h-0.45v-0.744l0.66,0.351zM6.4307,5.1671l-0.31,-0.315v0zM5.8707,5.2461l-0.44,-0.026l0.04,-0.701l0.62,0.336zM5.7407,5.5521l0.31,0.315v0zM4.9307,5.2461l-0.21,-0.392l0.62,-0.332l0.04,0.698zM4.6807,5.3041l-0.03,0.444v0zM4.2407,2.6921l-0.39,-0.222l0.83,-1.439v1.661zM3.9907,3.1121l-0.38,-0.222v-0.001zM3.2907,3.3031l-0.23,0.386v-0.001zM3.0907,3.0441l0.43,-0.116v0.001zM3.1307,2.7201l-0.39,-0.223l0.13,-0.222h0.26zM3.9707,1.2651l0.4,0.184v0.019l-0.01,0.018zM4.0107,1.1841l-0.41,-0.181v0zM4.0407,1.0931l0.42,0.149v0zM7.2607,1.8211h-0.44v0zM7.2607,4.4171h0.45v0zM7.1307,4.7511l0.31,0.314v0.001zM6.7907,4.8891v0.445h-1.57l1.34,-0.824zM5.5807,0.2511v-0.445h0.59l-0.16,0.567zM4.2807,1.1771l0.42,0.149v0zM4.2407,1.2861l0.4,0.181v0.001zM4.1807,1.4051l0.33,0.293l-0.29,0.333l-0.34,-0.289zM4.1707,1.4041l-0.39,-0.209l0.26,-0.493l0.42,0.365zM3.3507,2.8461l0.38,0.223v0zM3.3307,2.9791l-0.43,0.115v-0.001zM3.4107,3.0851l-0.22,0.386v-0.001zM3.7807,2.9861l-0.39,-0.221v-0.001zM4.2507,2.1611l-0.38,-0.222v-0.001zM4.3907,2.1031l-0.11,0.43v0zM4.6907,5.0541l-0.02,0.444h-0.01zM4.8707,4.9891l0.31,0.315v0zM5.1807,3.1361h0.45v0zM5.1807,5.2181h-0.44v0zM5.5607,5.3751l0.32,0.315h-0.01zM5.8807,3.1361h0.44v0zM5.8807,4.8131h-0.45v0zM6.2507,4.9891l0.32,0.315v0.001zM6.5707,3.1361h0.45v0zM6.5707,4.4171h-0.45v0zM6.9507,4.5741l0.31,0.314v0.001zM7.0107,4.4171h-0.44v0zM7.0107,1.8211h0.45v0zM5.5807,0.2511v0.445h-0.59l0.17,-0.567zM6.7907,5.3341c-0.16,0 -0.31,-0.045 -0.43,-0.11l0.42,-0.785c0.01,0.003 0.01,0.005 0.01,0.005v0zM7.0207,4.8321v0.001h-0.9v-0.001zM7.0207,4.8331c0,0.244 -0.1,0.476 -0.27,0.649l-0.63,-0.63c0,-0.004 0,-0.006 0,-0.009c0,-0.002 0,-0.005 0,-0.01zM6.7507,5.4821c-0.18,0.172 -0.41,0.268 -0.65,0.268v-0.89c0,0 0.01,-0.001 0.01,-0.002c0,-0.001 0,-0.002 0.01,-0.006zM6.1007,5.7501c-0.17,0 -0.32,-0.046 -0.44,-0.113l0.43,-0.782c0,0.003 0.01,0.004 0.01,0.005v0zM6.3207,5.2721c-0.02,0.219 -0.1,0.432 -0.27,0.595l-0.63,-0.629c0,-0.002 0.01,-0.003 0.01,-0.005c0,-0.002 0,-0.006 0,-0.013zM6.0507,5.8671c-0.17,0.173 -0.4,0.269 -0.65,0.269v-0.89c0.01,0 0.01,-0.001 0.01,-0.002c0.01,-0.001 0.01,-0.003 0.01,-0.006zM5.4007,6.1361c-0.49,0 -0.88,-0.386 -0.91,-0.864l0.89,-0.052c0,0.007 0,0.014 0.01,0.019c0,0.003 0,0.004 0,0.005c0.01,0.001 0.01,0.002 0.01,0.002zM5.1507,5.6381c-0.15,0.077 -0.32,0.122 -0.5,0.11l0.06,-0.888c0,0 0,0 0,-0.001c0,0 0.01,-0.002 0.01,-0.005zM4.6507,5.7481c-0.5,-0.032 -0.86,-0.452 -0.86,-0.93h0.89c0,0.015 0.01,0.027 0.01,0.034c0.01,0.008 0.02,0.008 0.02,0.008zM3.7907,4.8181v-2.126h0.89v2.126zM4.6207,2.9151l-0.24,0.419l-0.77,-0.445l0.24,-0.419zM4.3807,3.3341c-0.17,0.299 -0.49,0.483 -0.84,0.483v-0.89c0.03,0 0.06,-0.016 0.07,-0.037zM3.5407,3.8171c-0.16,0 -0.33,-0.044 -0.48,-0.128l0.45,-0.773c0.01,0.007 0.02,0.011 0.03,0.011zM3.0607,3.6881c-0.2,-0.116 -0.34,-0.305 -0.4,-0.529l0.86,-0.23c0,-0.002 0,-0.004 -0.01,-0.007c0,-0.003 0,-0.004 0,-0.005zM2.6607,3.1591c-0.06,-0.224 -0.03,-0.461 0.08,-0.662l0.77,0.447c0.01,-0.002 0.01,-0.004 0.01,-0.008c0,-0.003 0,-0.006 0,-0.008zM3.1307,2.2751c-0.22,0.058 -0.38,0.217 -0.38,0.219c0,0 0,0.001 0,0.002c-0.01,0 -0.01,0 -0.01,0v0.001c0,0 0,0 0,-0.001c0,0 0.01,-0.001 0.01,-0.002c0,-0.003 0,-0.007 0,-0.012c0.01,-0.01 0.02,-0.024 0.03,-0.043c0.02,-0.038 0.05,-0.092 0.09,-0.157c0.07,-0.13 0.17,-0.304 0.28,-0.48c0.2,-0.354 0.41,-0.717 0.43,-0.758l0.78,0.442c-0.03,0.043 -0.24,0.408 -0.44,0.761c-0.11,0.177 -0.21,0.351 -0.28,0.481c-0.04,0.064 -0.07,0.118 -0.09,0.156c-0.01,0.019 -0.02,0.034 -0.03,0.044c0,0.005 0,0.009 0,0.011c0,0.002 0,0.003 0,0.004c-0.01,0 -0.01,0 -0.01,0.001v0.001v0.002c0,0.002 -0.16,0.161 -0.38,0.219zM3.5607,1.0811c0.01,-0.011 0.02,-0.045 0.04,-0.078l0.81,0.362c-0.01,0.031 -0.03,0.069 -0.04,0.084zM3.6007,1.0031c0.01,-0.014 0.01,-0.031 0.02,-0.059l0.84,0.298c-0.01,0.034 -0.03,0.077 -0.05,0.123zM3.6207,0.9441c0.3,-0.851 1.06,-1.389 1.96,-1.389v0.89c-0.52,0 -0.94,0.299 -1.12,0.797zM5.5807,-0.4449c1.21,0 2.13,1.051 2.13,2.266h-0.89c0,-0.793 -0.59,-1.376 -1.24,-1.376zM7.7107,1.8211v2.596h-0.89v-2.596zM7.7107,4.4171c0,0.244 -0.1,0.476 -0.27,0.648l-0.63,-0.629c0,-0.003 0.01,-0.006 0.01,-0.008c0,-0.003 0,-0.006 0,-0.011zM7.4407,5.0661c-0.17,0.173 -0.4,0.268 -0.65,0.268v-0.89c0.01,0 0.01,-0.001 0.01,-0.002c0,-0.001 0.01,-0.002 0.01,-0.006zM6.5607,4.5101v0l0.46,0.758v0zM5.5807,0.6961c-0.42,0 -0.74,0.227 -0.88,0.63l-0.84,-0.298c0.27,-0.756 0.92,-1.222 1.72,-1.222zM4.7007,1.3261c-0.02,0.04 -0.04,0.09 -0.06,0.141l-0.81,-0.362c0.01,-0.02 0.02,-0.044 0.03,-0.078zM4.6407,1.4681c-0.02,0.045 -0.04,0.084 -0.05,0.11c-0.01,0.016 -0.02,0.041 -0.04,0.069c-0.02,0.028 -0.04,0.049 -0.04,0.051l-0.67,-0.586c0,-0.001 0,0 0,0c0,0.001 0,0.003 0,0.006c-0.01,0.006 -0.02,0.014 -0.02,0.025c-0.02,0.02 -0.02,0.036 -0.03,0.037c0,0.001 0,0.001 0.01,-0.003c0,-0.003 0,-0.007 0,-0.014c0.01,-0.013 0.02,-0.031 0.03,-0.058zM3.8807,1.7421v-0.001l0.58,-0.674l0.01,0.001zM4.5707,1.6121c-0.07,0.132 -0.27,0.476 -0.84,1.457l-0.77,-0.445c0.58,-0.995 0.76,-1.316 0.82,-1.429zM3.7307,3.0691c0.04,-0.061 0.05,-0.136 0.03,-0.205l-0.86,0.229c-0.04,-0.159 -0.02,-0.327 0.06,-0.47zM3.7607,2.8631c-0.02,-0.068 -0.06,-0.128 -0.13,-0.164l-0.44,0.771c-0.15,-0.082 -0.25,-0.218 -0.29,-0.376zM3.6307,2.6991c-0.05,-0.029 -0.1,-0.029 -0.13,-0.02c-0.04,0.009 -0.08,0.034 -0.11,0.086l0.77,0.443c-0.19,0.338 -0.63,0.456 -0.97,0.263zM3.3907,2.7641l0.48,-0.825l0.77,0.445l-0.48,0.825zM3.8707,1.9381c0.13,-0.222 0.39,-0.333 0.64,-0.265l-0.23,0.86c0.14,0.038 0.29,-0.025 0.36,-0.149zM4.5107,1.6731c0.25,0.067 0.42,0.293 0.42,0.551h-0.89c0,0.145 0.1,0.271 0.24,0.309zM4.9307,2.2241v2.594h-0.89v-2.594zM4.9307,4.8181c0,-0.051 -0.02,-0.097 -0.05,-0.132c-0.03,-0.035 -0.08,-0.072 -0.16,-0.077l-0.06,0.889c-0.37,-0.025 -0.62,-0.351 -0.62,-0.68zM4.7207,4.6091c-0.06,-0.003 -0.12,0.017 -0.17,0.065l0.63,0.63c-0.14,0.141 -0.33,0.204 -0.51,0.194zM4.5507,4.6751c-0.04,0.042 -0.06,0.1 -0.06,0.158h0.89c0,0.177 -0.07,0.345 -0.2,0.471zM4.4907,4.8331v-1.697h0.89v1.697zM4.4907,3.1361c0,-0.315 0.25,-0.571 0.57,-0.571v0.891c0.17,0 0.32,-0.143 0.32,-0.32zM5.0607,2.5651c0.31,0 0.57,0.256 0.57,0.571h-0.89c0,0.177 0.14,0.32 0.32,0.32zM5.6307,3.1361v2.082h-0.89v-2.082zM5.6307,5.2181c0,-0.123 -0.1,-0.223 -0.23,-0.223v0.89c-0.36,0 -0.66,-0.299 -0.66,-0.667zM5.4007,4.9951c-0.05,0 -0.11,0.023 -0.15,0.065l0.62,0.63c-0.12,0.126 -0.29,0.195 -0.47,0.195zM5.2507,5.0611c-0.05,0.042 -0.07,0.099 -0.07,0.157h0.89c0,0.177 -0.07,0.346 -0.19,0.472zM5.1807,5.2181v-2.082h0.89v2.082zM5.1807,3.1361c0,-0.315 0.25,-0.571 0.57,-0.571v0.891c0.18,0 0.32,-0.143 0.32,-0.32zM5.7507,2.5651c0.32,0 0.57,0.256 0.57,0.571h-0.89c0,0.177 0.14,0.32 0.32,0.32zM6.3207,3.1361v1.677h-0.89v-1.677zM6.3207,4.8131v0.02h-0.89v-0.02zM6.3207,4.8331c0,-0.124 -0.1,-0.224 -0.22,-0.224v0.89c-0.37,0 -0.67,-0.298 -0.67,-0.666zM6.1007,4.6091c-0.06,0 -0.12,0.024 -0.16,0.065l0.63,0.631c-0.13,0.124 -0.29,0.194 -0.47,0.194zM5.9407,4.6741c-0.04,0.043 -0.07,0.101 -0.07,0.159h0.89c0,0.176 -0.07,0.346 -0.19,0.471zM5.8707,4.8331v-1.697h0.89v1.697zM5.8707,3.1361c0,-0.315 0.26,-0.571 0.57,-0.571v0.891c0.18,0 0.32,-0.144 0.32,-0.32zM6.4407,2.5651c0.32,0 0.58,0.256 0.58,0.571h-0.89c0,0.177 0.14,0.32 0.31,0.32zM7.0207,3.1361v1.281h-0.9l0.01,-1.281zM7.0207,4.4171c0,-0.124 -0.1,-0.224 -0.23,-0.224v0.89c-0.37,0 -0.67,-0.299 -0.67,-0.666zM6.7907,4.1931c-0.06,0 -0.11,0.024 -0.16,0.065l0.63,0.631c-0.12,0.125 -0.29,0.194 -0.47,0.194zM6.6307,4.2591c-0.04,0.042 -0.06,0.1 -0.06,0.158h0.89c0,0.176 -0.07,0.345 -0.2,0.471zM6.5707,4.4171v-2.596h0.89v2.596zM6.5707,1.8211c0,-0.66 -0.48,-1.125 -0.99,-1.125v-0.89c1.08,0 1.88,0.944 1.88,2.015zM5.1607,0.1291v0l0.85,0.244v0z" fill="#4CAF4F" mask="url(#path-497-inside-1_204_686)"/>
</g>
<path id="Vector_431" d="M1.3307,5.7471l-0.02,-0.013c-0.01,0.011 -0.03,0.04 -0.05,0.083c0.01,0.004 0.02,0.009 0.03,0.012c0.01,-0.026 0.03,-0.054 0.04,-0.082z" fill="#4CAF4F" stroke="#4CAF4F" stroke-width="0.445155"/>
<g id="Vector_432">
<mask id="path-500-inside-2_204_686" fill="white">
<path d="M1398.12 340.269C1397.88 340.656 1397.5 340.92 1397.04 341.014C1396.59 341.107 1396.11 341.021 1395.69 340.772L1393.46 339.437C1393.36 339.372 1393.28 339.269 1393.25 339.146C1393.22 339.024 1393.24 338.897 1393.3 338.789C1393.34 338.721 1393.4 338.668 1393.47 338.628L1393.47 338.628C1393.36 338.563 1393.28 338.46 1393.25 338.337C1393.22 338.215 1393.24 338.088 1393.3 337.979C1393.34 337.91 1393.4 337.855 1393.47 337.817C1393.37 337.751 1393.3 337.657 1393.28 337.544C1393.25 337.421 1393.26 337.294 1393.33 337.186C1393.39 337.078 1393.5 337.001 1393.62 336.971C1393.66 336.961 1393.7 336.956 1393.74 336.956C1393.81 336.956 1393.88 336.976 1393.95 337.011C1393.96 336.923 1393.98 336.837 1394.03 336.762C1394.18 336.559 1394.46 336.503 1394.68 336.635L1396.5 337.728L1396.27 337.305C1396.18 337.143 1396.18 336.944 1396.27 336.785C1396.32 336.707 1396.39 336.643 1396.47 336.598C1396.53 336.562 1396.6 336.545 1396.67 336.545C1396.82 336.545 1396.97 336.624 1397.05 336.764C1397.32 337.251 1397.83 338.169 1397.86 338.234C1397.87 338.245 1397.89 338.278 1397.91 338.306C1397.93 338.332 1397.95 338.358 1397.97 338.383C1398.43 338.935 1398.48 339.657 1398.12 340.269L1398.12 340.269ZM1397.78 338.543C1397.75 338.513 1397.73 338.482 1397.71 338.45C1397.64 338.354 1397.64 338.351 1397.63 338.326C1397.55 338.195 1397.36 337.846 1396.83 336.886C1396.78 336.802 1396.67 336.771 1396.59 336.818C1396.55 336.841 1396.51 336.873 1396.49 336.914C1396.44 336.996 1396.44 337.099 1396.48 337.183L1396.95 338.016C1396.97 338.066 1396.97 338.128 1396.92 338.167C1396.88 338.207 1396.82 338.214 1396.77 338.184L1394.55 336.85C1394.44 336.787 1394.31 336.812 1394.24 336.905C1394.2 336.959 1394.19 337.023 1394.21 337.086C1394.22 337.143 1394.26 337.192 1394.31 337.222C1394.31 337.222 1394.31 337.222 1394.31 337.223L1395.76 338.095C1395.82 338.131 1395.84 338.208 1395.81 338.267C1395.77 338.327 1395.69 338.346 1395.63 338.31L1393.85 337.239C1393.8 337.209 1393.74 337.2 1393.68 337.214C1393.62 337.229 1393.58 337.265 1393.54 337.315C1393.51 337.366 1393.51 337.426 1393.52 337.483C1393.53 337.54 1393.57 337.589 1393.62 337.619L1393.97 337.828L1395.41 338.69C1395.47 338.726 1395.48 338.803 1395.45 338.863C1395.41 338.922 1395.34 338.941 1395.28 338.906L1393.82 338.033C1393.72 337.97 1393.58 338.004 1393.52 338.109C1393.49 338.16 1393.48 338.219 1393.49 338.276C1393.51 338.334 1393.54 338.382 1393.59 338.413L1393.95 338.627L1395.05 339.285C1395.11 339.321 1395.13 339.398 1395.09 339.458C1395.06 339.517 1394.98 339.537 1394.92 339.501L1393.82 338.842C1393.77 338.812 1393.71 338.803 1393.65 338.817C1393.6 338.831 1393.55 338.867 1393.52 338.918C1393.49 338.969 1393.48 339.028 1393.49 339.086C1393.51 339.143 1393.54 339.191 1393.59 339.222L1395.82 340.557C1396.18 340.774 1396.6 340.849 1396.99 340.768C1397.38 340.688 1397.71 340.465 1397.9 340.14C1398.22 339.614 1398.17 339.017 1397.78 338.543L1397.78 338.543Z"/>
</mask>
<path d="M10.5707,9.2341c-0.24,0.387 -0.62,0.651 -1.08,0.745c-0.45,0.093 -0.93,0.007 -1.35,-0.242l-2.23,-1.335c-0.1,-0.065 -0.18,-0.168 -0.21,-0.291c-0.03,-0.122 -0.01,-0.249 0.05,-0.357c0.04,-0.068 0.1,-0.121 0.17,-0.161v0c-0.11,-0.065 -0.19,-0.168 -0.22,-0.291c-0.03,-0.122 -0.01,-0.249 0.05,-0.358c0.04,-0.069 0.1,-0.124 0.17,-0.162c-0.1,-0.066 -0.17,-0.16 -0.19,-0.273c-0.03,-0.123 -0.02,-0.25 0.05,-0.358c0.06,-0.108 0.17,-0.185 0.29,-0.215c0.04,-0.01 0.08,-0.015 0.12,-0.015c0.07,0 0.14,0.02 0.21,0.055c0.01,-0.088 0.03,-0.174 0.08,-0.249c0.15,-0.203 0.43,-0.259 0.65,-0.127l1.82,1.093l-0.23,-0.423c-0.09,-0.162 -0.09,-0.361 0,-0.52c0.05,-0.078 0.12,-0.142 0.2,-0.187c0.06,-0.036 0.13,-0.053 0.2,-0.053c0.15,0 0.3,0.079 0.38,0.219c0.27,0.487 0.78,1.405 0.81,1.47c0.01,0.011 0.03,0.044 0.05,0.072c0.02,0.026 0.04,0.052 0.06,0.077c0.46,0.552 0.51,1.274 0.15,1.886zM10.2307,7.5081c-0.03,-0.03 -0.05,-0.061 -0.07,-0.093c-0.07,-0.096 -0.07,-0.099 -0.08,-0.124c-0.08,-0.131 -0.27,-0.48 -0.8,-1.44c-0.05,-0.084 -0.16,-0.115 -0.24,-0.068c-0.04,0.023 -0.08,0.055 -0.1,0.096c-0.05,0.082 -0.05,0.185 -0.01,0.269l0.47,0.833c0.02,0.05 0.02,0.112 -0.03,0.151c-0.04,0.04 -0.1,0.047 -0.15,0.017l-2.22,-1.334c-0.11,-0.063 -0.24,-0.038 -0.31,0.055c-0.04,0.054 -0.05,0.118 -0.03,0.181c0.01,0.057 0.05,0.106 0.1,0.136c0,0 0,0 0,0.001l1.45,0.872c0.06,0.036 0.08,0.113 0.05,0.172c-0.04,0.06 -0.12,0.079 -0.18,0.043l-1.78,-1.071c-0.05,-0.03 -0.11,-0.039 -0.17,-0.025c-0.06,0.015 -0.1,0.051 -0.14,0.101c-0.03,0.051 -0.03,0.111 -0.02,0.168c0.01,0.057 0.05,0.106 0.1,0.136l0.35,0.209l1.44,0.862c0.06,0.036 0.07,0.113 0.04,0.173c-0.04,0.059 -0.11,0.078 -0.17,0.043l-1.46,-0.873c-0.1,-0.063 -0.24,-0.029 -0.3,0.076c-0.03,0.051 -0.04,0.11 -0.03,0.167c0.02,0.058 0.05,0.106 0.1,0.137l0.36,0.214l1.1,0.658c0.06,0.036 0.08,0.113 0.04,0.173c-0.03,0.059 -0.11,0.079 -0.17,0.043l-1.1,-0.659c-0.05,-0.03 -0.11,-0.039 -0.17,-0.025c-0.05,0.014 -0.1,0.05 -0.13,0.101c-0.03,0.051 -0.04,0.11 -0.03,0.168c0.02,0.057 0.05,0.105 0.1,0.136l2.23,1.335c0.36,0.217 0.78,0.292 1.17,0.211c0.39,-0.08 0.72,-0.303 0.91,-0.628c0.32,-0.526 0.27,-1.123 -0.12,-1.597z" fill="#4CAF4F"/>
<path d="M10.5707,9.2341l-0.15,-0.421l1.15,-0.393l-0.62,1.043zM9.4907,9.9791l0.09,0.436v0zM8.1407,9.7371l-0.23,0.382v0zM5.9107,8.4021l0.23,-0.382v0zM5.7007,8.1111l-0.43,0.108v0zM5.7507,7.7541l0.38,0.228v0.001zM5.9207,7.5931l0.23,-0.377l0.62,0.386l-0.63,0.373zM5.9207,7.5931l0.22,-0.382l0.01,0.004zM5.7007,7.3021l0.43,-0.108v0.001zM5.7507,6.9441l-0.38,-0.228v-0.001zM5.9207,6.7821l0.25,-0.367l0.57,0.396l-0.6,0.354zM5.7307,6.5091l0.43,-0.108v0zM5.7807,6.1511l0.38,0.229v0zM6.0707,5.9361l0.11,0.431v0.001zM6.1907,5.9211v-0.445v0zM6.4007,5.9761l0.45,0.021l-0.04,0.697l-0.61,-0.323zM6.4807,5.7271l0.37,0.254v0zM7.1307,5.6001l-0.23,0.381v0zM8.9507,6.6931l0.39,-0.216l0.81,1.452l-1.43,-0.854zM8.7207,6.2701l0.38,-0.217v0.001zM8.7207,5.7501l-0.38,-0.229v-0.001zM8.9207,5.5631l-0.22,-0.388v-0.001zM9.1207,5.5101v-0.445v0zM9.5007,5.7291l-0.39,0.216v0zM10.3107,7.1991l-0.36,0.252l-0.02,-0.017l-0.01,-0.018zM10.3607,7.2711l-0.36,0.256v0zM10.4207,7.3481l0.35,-0.284v0.001zM10.5707,9.2341l0.14,0.421l-1.15,0.393l0.62,-1.043zM10.2307,7.5081l0.04,0.443l-0.23,0.024l-0.15,-0.183zM10.1607,7.4151l0.36,-0.256v0.001zM10.0807,7.2911l0.38,-0.23l0.04,0.066l0.02,0.076zM9.2807,5.8511l-0.39,0.216v0zM9.0407,5.7831l-0.22,-0.389v-0.001zM8.9407,5.8791l0.38,0.229v0zM8.9307,6.1481l0.39,-0.217v0.001zM9.4007,6.9811l-0.39,0.216v0zM9.3707,7.1321l-0.31,-0.319l0.01,-0.001zM9.2207,7.1491l-0.22,0.383l-0.01,-0.001zM7.0007,5.8151l0.23,-0.382v0zM6.6907,5.8701l0.37,0.254v0zM6.6607,6.0511l-0.43,0.108v-0.001zM6.7607,6.1871l-0.2,0.398l-0.02,-0.007l-0.01,-0.009zM6.7607,6.1881l0.2,-0.399l0.01,0.008l0.02,0.009zM8.2107,7.0601l0.23,-0.382v0zM8.2607,7.2321l0.38,0.229v0.001zM8.0807,7.2751l0.23,-0.381v0zM6.3007,6.2041l0.23,-0.382v0.001zM6.1307,6.1791l0.11,0.432v0zM5.9907,6.2801l0.39,0.229v0.001zM5.9707,6.4481l-0.43,0.108v-0.001zM6.0707,6.5841l-0.23,0.382v0zM6.4207,6.7931l0.23,-0.382v0zM7.8607,7.6551l0.22,-0.381h0.01zM7.9007,7.8281l0.38,0.229v0zM7.7307,7.8711l-0.23,0.381v0zM6.2707,6.9981l-0.23,0.382v-0.001zM5.9707,7.0741l0.38,0.229v0zM5.9407,7.2411l-0.43,0.108v-0.001zM6.0407,7.3781l-0.22,0.381h-0.01zM6.4007,7.5921l0.23,-0.382v0zM7.5007,8.2501l0.23,-0.381v0zM7.5407,8.4231l0.38,0.229v0zM7.3707,8.4661l0.23,-0.382v0zM6.2707,7.8071l0.23,-0.382v0zM6.1007,7.7821l-0.1,-0.432v0zM5.9707,7.8831l-0.38,-0.229v0zM5.9407,8.0511l-0.43,0.108v-0.001zM6.0407,8.1871l-0.23,0.381v0zM8.2707,9.5221l0.23,-0.382v0zM9.4407,9.7331l0.09,0.436v0zM10.3507,9.1051l-0.38,-0.229v0zM10.2307,7.5081l-0.04,-0.443l0.23,-0.023l0.15,0.183zM10.9507,9.4631c-0.3,0.499 -0.79,0.835 -1.37,0.952l-0.18,-0.872c0.35,-0.07 0.62,-0.264 0.78,-0.538zM9.5807,10.4151c-0.57,0.117 -1.16,0.008 -1.67,-0.296l0.46,-0.763c0.32,0.194 0.69,0.257 1.03,0.187zM7.9107,10.1191l-2.22,-1.335l0.45,-0.764l2.23,1.336zM5.6907,8.7841c-0.21,-0.126 -0.36,-0.327 -0.42,-0.565l0.86,-0.216c0,0.005 0,0.008 0.01,0.01c0,0.002 0,0.005 0,0.007zM5.2707,8.2191c-0.06,-0.237 -0.02,-0.485 0.1,-0.694l0.76,0.458c0,0.004 0,0.008 0,0.01c0,0.003 0,0.006 0,0.011zM5.3707,7.5251c0.08,-0.138 0.2,-0.241 0.32,-0.314l0.45,0.764c0,0.004 0,0.006 -0.01,0.007c0,0.001 0,0.001 0,0zM5.6807,7.9711v-0.001l0.47,-0.755v0.001zM5.6907,7.9751c-0.21,-0.126 -0.36,-0.327 -0.42,-0.565l0.86,-0.215c0,0.004 0,0.007 0.01,0.009c0,0.002 0,0.005 0,0.007zM5.2707,7.4111c-0.06,-0.238 -0.02,-0.486 0.1,-0.695l0.76,0.457c0,0.005 0,0.008 0,0.011c0,0.002 0,0.006 0,0.01zM5.3707,6.7151c0.08,-0.137 0.2,-0.243 0.32,-0.317l0.45,0.767c0,0.002 0,0.004 0,0.005c0,0.001 0,0.002 -0.01,0.004zM5.6707,7.1491c-0.18,-0.124 -0.32,-0.309 -0.38,-0.532l0.87,-0.216c0,0.002 0,0.003 0,0.005c0,0.002 0,0.005 0.01,0.009zM5.2907,6.6171c-0.06,-0.237 -0.02,-0.486 0.11,-0.695l0.76,0.458c0,0.005 0,0.008 0,0.01c0,0.003 0,0.006 0,0.011zM5.4007,5.9221c0.12,-0.209 0.32,-0.359 0.56,-0.418l0.22,0.864c-0.01,0.001 -0.01,0.002 -0.01,0.004c0,0.001 -0.01,0.004 -0.01,0.008zM5.9607,5.5041c0.08,-0.019 0.15,-0.028 0.23,-0.028v0.891c-0.01,0 -0.01,0 -0.01,0zM6.1907,5.4761c0.15,0 0.29,0.039 0.42,0.106l-0.41,0.789c-0.01,-0.003 -0.01,-0.004 -0.01,-0.004h-0.01zM5.9607,5.9551c0.01,-0.162 0.05,-0.331 0.16,-0.481l0.73,0.507c0,-0.002 0,0.002 0,0.016zM6.1207,5.4741c0.28,-0.407 0.83,-0.502 1.24,-0.256l-0.46,0.763c-0.01,-0.007 -0.03,-0.009 -0.04,-0.007c-0.01,0.002 -0.01,0.006 -0.01,0.007zM7.3607,5.2181l1.82,1.093l-0.46,0.764l-1.82,-1.094zM8.5607,6.9091l-0.23,-0.423l0.77,-0.432l0.24,0.423zM8.3307,6.4871c-0.17,-0.302 -0.16,-0.671 0.01,-0.966l0.77,0.458c-0.02,0.023 -0.02,0.052 -0.01,0.074zM8.3407,5.5201c0.09,-0.144 0.21,-0.263 0.36,-0.345l0.43,0.776c-0.01,0.007 -0.02,0.017 -0.02,0.028zM8.7007,5.1741c0.13,-0.074 0.28,-0.109 0.42,-0.109v0.89c0.01,0 0.01,-0.001 0.01,-0.002zM9.1207,5.0651c0.31,0 0.61,0.16 0.77,0.448l-0.78,0.432c0,0.003 0,0.006 0,0.008c0.01,0.001 0.01,0.002 0.01,0.002zM9.8907,5.5131c0.27,0.488 0.78,1.405 0.81,1.468l-0.78,0.435c-0.03,-0.065 -0.54,-0.985 -0.81,-1.471zM10.6807,6.9461c0.01,0.009 0.03,0.041 0.05,0.069l-0.73,0.512c-0.02,-0.029 -0.05,-0.063 -0.05,-0.076zM10.7307,7.0141c0.01,0.013 0.02,0.029 0.04,0.05l-0.69,0.568c-0.02,-0.029 -0.05,-0.064 -0.08,-0.105zM10.7707,7.0651c0.57,0.696 0.64,1.624 0.18,2.398l-0.77,-0.458c0.27,-0.449 0.24,-0.967 -0.1,-1.373zM10.4207,8.8131v0l0.29,0.842v0zM9.8907,7.7921c-0.03,-0.034 -0.07,-0.075 -0.1,-0.121l0.73,-0.511c0.01,0.018 0.03,0.038 0.05,0.065zM9.7907,7.6721c-0.02,-0.04 -0.05,-0.082 -0.07,-0.115c-0.02,-0.023 -0.04,-0.055 -0.05,-0.096c-0.02,-0.04 -0.02,-0.075 -0.02,-0.082l0.87,-0.176c0,0.005 0,-0.019 -0.02,-0.049c-0.01,-0.03 -0.02,-0.051 -0.02,-0.058c0,-0.003 -0.01,-0.004 0,-0.002c0,0.002 0,0.006 0,0.012c0.01,0.012 0.02,0.028 0.04,0.053zM9.7007,7.5211c-0.08,-0.14 -0.28,-0.501 -0.81,-1.454l0.78,-0.432c0.53,0.966 0.72,1.304 0.79,1.426zM8.8907,6.0671c0.07,0.13 0.23,0.178 0.36,0.105l-0.43,-0.779c0.3,-0.166 0.68,-0.056 0.85,0.242zM9.2607,6.1711c0.02,-0.015 0.05,-0.037 0.06,-0.063l-0.76,-0.458c0.06,-0.107 0.15,-0.195 0.26,-0.256zM9.3207,6.1081c0.03,-0.053 0.04,-0.12 0,-0.177l-0.77,0.434c-0.13,-0.224 -0.12,-0.497 0.01,-0.715zM9.3207,5.9321l0.47,0.833l-0.78,0.432l-0.46,-0.833zM9.7907,6.7651c0.12,0.225 0.08,0.507 -0.11,0.687l-0.61,-0.64c-0.11,0.101 -0.13,0.259 -0.06,0.385zM9.6907,7.4511c-0.19,0.182 -0.48,0.211 -0.69,0.081l0.45,-0.765c-0.12,-0.072 -0.28,-0.057 -0.39,0.046zM8.9907,7.5311l-2.22,-1.334l0.46,-0.764l2.22,1.335zM6.7707,6.1971c0.04,0.026 0.09,0.034 0.14,0.025c0.04,-0.008 0.1,-0.036 0.15,-0.098l-0.74,-0.507c0.22,-0.309 0.63,-0.352 0.91,-0.184zM7.0607,6.1241c0.03,-0.05 0.04,-0.117 0.03,-0.18l-0.86,0.214c-0.05,-0.188 -0.01,-0.383 0.09,-0.541zM7.0907,5.9431c-0.02,-0.058 -0.05,-0.108 -0.1,-0.138l-0.46,0.764c-0.15,-0.091 -0.26,-0.237 -0.3,-0.41zM6.9607,5.7891c0.04,0.02 0.07,0.043 0.09,0.058c0.01,0.008 0.01,0.015 0.02,0.019c0,0.002 0,0.004 0,0.005v0.001v0c0,0.001 0,0.001 0,0.001v0v0v0c0,0 0,-0.003 0,-0.007c-0.01,-0.004 -0.01,-0.011 -0.02,-0.018c-0.02,-0.016 -0.05,-0.039 -0.09,-0.059l-0.4,0.797c-0.04,-0.02 -0.07,-0.043 -0.09,-0.059c-0.01,-0.007 -0.02,-0.014 -0.02,-0.018c0,-0.002 0,-0.004 0,-0.005c-0.01,-0.001 -0.01,-0.001 -0.01,-0.001c0,-0.001 0,-0.001 0,-0.001v0v0v0v0c0,0 0.01,0.003 0.01,0.007c0,0.004 0.01,0.01 0.02,0.018c0.02,0.016 0.05,0.038 0.09,0.058zM6.9907,5.8061l1.45,0.872l-0.46,0.764l-1.45,-0.873zM8.4407,6.6781c0.27,0.163 0.36,0.513 0.2,0.783l-0.77,-0.458c-0.09,0.152 -0.04,0.348 0.11,0.439zM8.6407,7.4621c-0.16,0.269 -0.51,0.358 -0.79,0.195l0.46,-0.763c-0.15,-0.091 -0.34,-0.041 -0.44,0.109zM7.8507,7.6571l-1.78,-1.071l0.46,-0.763l1.78,1.071zM6.0707,6.5861c0.05,0.03 0.11,0.04 0.17,0.025l-0.22,-0.863c0.17,-0.044 0.36,-0.016 0.51,0.074zM6.2407,6.6111c0.06,-0.014 0.11,-0.052 0.14,-0.102l-0.77,-0.457c0.09,-0.152 0.24,-0.262 0.41,-0.305zM6.3807,6.5101c0.03,-0.051 0.04,-0.112 0.02,-0.169l-0.86,0.214c-0.04,-0.171 -0.02,-0.352 0.07,-0.504zM6.4007,6.3401c-0.01,-0.058 -0.05,-0.108 -0.1,-0.137l-0.46,0.763c-0.15,-0.091 -0.26,-0.238 -0.3,-0.41zM6.3007,6.2021l0.35,0.209l-0.46,0.763l-0.35,-0.208zM6.6507,6.4111l1.43,0.863l-0.45,0.763l-1.44,-0.863zM8.0907,7.2741c0.27,0.162 0.35,0.512 0.19,0.783l-0.76,-0.458c-0.09,0.151 -0.04,0.347 0.11,0.438zM8.2807,8.0571c-0.16,0.27 -0.51,0.357 -0.78,0.195l0.46,-0.763c-0.16,-0.091 -0.35,-0.042 -0.44,0.109zM7.5007,8.2521l-1.46,-0.872l0.46,-0.764l1.46,0.873zM6.0407,7.3791c0.11,0.065 0.25,0.029 0.31,-0.076l-0.76,-0.458c0.19,-0.315 0.6,-0.419 0.91,-0.229zM6.3507,7.3031c0.03,-0.05 0.04,-0.112 0.03,-0.168l-0.87,0.213c-0.04,-0.171 -0.01,-0.351 0.08,-0.503zM6.3707,7.1341c-0.01,-0.059 -0.05,-0.108 -0.1,-0.138l-0.46,0.763c-0.15,-0.091 -0.26,-0.237 -0.3,-0.41zM6.2707,6.9961l0.36,0.214l-0.46,0.763l-0.35,-0.214zM6.6307,7.2101l1.1,0.659l-0.46,0.763l-1.1,-0.659zM7.7307,7.8691c0.27,0.162 0.36,0.512 0.19,0.783l-0.76,-0.458c-0.09,0.151 -0.04,0.347 0.11,0.438zM7.9207,8.6521c-0.16,0.269 -0.51,0.359 -0.78,0.195l0.46,-0.763c-0.15,-0.091 -0.35,-0.041 -0.44,0.109zM7.1407,8.8471l-1.1,-0.658l0.46,-0.764l1.1,0.659zM6.0407,8.1891c0.05,0.03 0.11,0.039 0.17,0.025l-0.21,-0.864c0.17,-0.043 0.35,-0.016 0.5,0.075zM6.2107,8.2141c0.06,-0.014 0.11,-0.052 0.14,-0.102l-0.76,-0.458c0.09,-0.152 0.23,-0.261 0.41,-0.304zM6.3507,8.1121c0.03,-0.05 0.04,-0.111 0.02,-0.168l-0.86,0.214c-0.04,-0.172 -0.01,-0.352 0.08,-0.504zM6.3707,7.9431c-0.01,-0.059 -0.05,-0.108 -0.1,-0.138l-0.46,0.763c-0.15,-0.09 -0.26,-0.237 -0.3,-0.409zM6.2707,7.8051l2.23,1.335l-0.46,0.764l-2.23,-1.336zM8.5007,9.1401c0.27,0.163 0.57,0.214 0.85,0.157l0.18,0.872c-0.51,0.104 -1.04,0.006 -1.49,-0.265zM9.3507,9.2971c0.28,-0.056 0.49,-0.209 0.62,-0.421l0.76,0.458c-0.26,0.438 -0.69,0.732 -1.2,0.835zM9.9707,8.8761c0.22,-0.364 0.19,-0.755 -0.08,-1.084l0.68,-0.567c0.51,0.619 0.58,1.421 0.16,2.109zM10.2707,7.9511v0l-0.08,-0.886v0z" fill="#4CAF4F" mask="url(#path-500-inside-2_204_686)"/>
</g>
</g></svg>