<svg viewBox="0 0 15.6186 10.389" x="0" y="0" fill="none" xmlns="http://www.w3.org/2000/svg"><path id="Vector_429" d="M10.3614,0.1721v0c0.79,-0.003 1.56,0.238 2.2,0.688c0.65,0.451 1.14,1.09 1.41,1.83c0.27,0.741 0.31,1.547 0.1,2.308c-0.2,0.761 -0.64,1.441 -1.24,1.946l-0.2,0.171l0.24,0.11c0.99,0.449 1.84,1.155 2.47,2.046v0.001c0.05,0.063 0.08,0.134 0.1,0.208c0.01,0.075 0.02,0.153 0,0.228c-0.01,0.075 -0.04,0.147 -0.08,0.212c-0.04,0.064 -0.1,0.12 -0.16,0.164v0.001c-0.1,0.069 -0.21,0.107 -0.33,0.106l-0.07,-0.004c-0.07,-0.008 -0.14,-0.03 -0.2,-0.062c-0.09,-0.043 -0.16,-0.106 -0.21,-0.182c-0.46,-0.646 -1.06,-1.173 -1.76,-1.537c-0.62,-0.318 -1.29,-0.505 -1.98,-0.547l-0.29,-0.009l-0.12,-0.011c-0.11,-0.023 -0.21,-0.078 -0.3,-0.159c-0.1,-0.11 -0.17,-0.259 -0.17,-0.413c0,-0.155 0.07,-0.304 0.17,-0.414c0.11,-0.109 0.26,-0.171 0.42,-0.171c0.71,-0.001 1.39,-0.282 1.89,-0.783c0.5,-0.501 0.78,-1.18 0.78,-1.888c0,-0.709 -0.28,-1.388 -0.78,-1.889c-0.5,-0.501 -1.18,-0.782 -1.89,-0.782c-0.25,-0.001 -0.49,0.033 -0.72,0.1l-0.01,0.001c-0.07,0.022 -0.15,0.029 -0.23,0.021c-0.07,-0.008 -0.15,-0.032 -0.21,-0.07c-0.07,-0.037 -0.13,-0.087 -0.18,-0.148c-0.05,-0.061 -0.08,-0.13 -0.11,-0.205c-0.02,-0.075 -0.02,-0.153 -0.01,-0.23c0.01,-0.076 0.03,-0.15 0.07,-0.217c0.04,-0.068 0.09,-0.127 0.15,-0.174c0.06,-0.047 0.13,-0.082 0.21,-0.102v-0.001c0.34,-0.096 0.69,-0.144 1.04,-0.143zM5.2614,0.1671c0.78,0 1.55,0.242 2.2,0.693c0.64,0.452 1.13,1.091 1.4,1.831c0.27,0.74 0.31,1.545 0.11,2.306c-0.21,0.761 -0.64,1.44 -1.24,1.947l-0.2,0.171l0.24,0.11c0.86,0.393 1.63,0.983 2.22,1.721l0.25,0.325v0.007c0.05,0.063 0.09,0.135 0.11,0.211c0.02,0.077 0.02,0.156 0.01,0.235c-0.01,0.078 -0.04,0.153 -0.08,0.22c-0.04,0.068 -0.09,0.126 -0.16,0.171c-0.06,0.046 -0.14,0.078 -0.22,0.094c-0.07,0.016 -0.15,0.017 -0.23,0.002c-0.08,-0.016 -0.15,-0.047 -0.22,-0.092c-0.03,-0.022 -0.06,-0.048 -0.09,-0.076l-0.07,-0.093v-0.007c-0.46,-0.647 -1.06,-1.175 -1.76,-1.54c-0.7,-0.364 -1.48,-0.554 -2.27,-0.554c-0.79,0 -1.57,0.19 -2.28,0.554c-0.7,0.365 -1.3,0.893 -1.75,1.54v0.001c-0.06,0.077 -0.13,0.14 -0.21,0.183c-0.09,0.043 -0.18,0.065 -0.27,0.064v0c-0.12,0.001 -0.24,-0.037 -0.34,-0.106v0c-0.12,-0.089 -0.21,-0.226 -0.24,-0.378c-0.02,-0.152 0.01,-0.309 0.1,-0.436c0.63,-0.891 1.48,-1.597 2.48,-2.046l0.24,-0.11l-0.21,-0.171c-0.6,-0.507 -1.03,-1.186 -1.23,-1.947c-0.21,-0.761 -0.17,-1.566 0.1,-2.306c0.27,-0.74 0.76,-1.379 1.4,-1.831c0.65,-0.451 1.42,-0.693 2.21,-0.693zM5.7814,1.3921c-0.52,-0.104 -1.06,-0.05 -1.55,0.152c-0.48,0.202 -0.9,0.544 -1.2,0.983c-0.29,0.439 -0.45,0.956 -0.45,1.484c0,0.708 0.29,1.387 0.79,1.888c0.5,0.501 1.18,0.782 1.89,0.783c0.52,0 1.04,-0.157 1.48,-0.451c0.44,-0.293 0.78,-0.71 0.98,-1.198c0.21,-0.488 0.26,-1.025 0.16,-1.543c-0.11,-0.518 -0.36,-0.994 -0.74,-1.368c-0.37,-0.373 -0.85,-0.627 -1.36,-0.73z" fill="currentColor" stroke="currentColor" stroke-width="0.333867" xmlns="http://www.w3.org/2000/svg"/></svg>