<svg viewBox="0 0 45.2445 38.9799" x="0" y="0" fill="none" xmlns="http://www.w3.org/2000/svg"><g id="Icon_2" xmlns="http://www.w3.org/2000/svg">
<path id="Rectangle 157" d="M45.2448,26.4501c0,6.92 -5.61,12.53 -12.53,12.53h-18.793c-1.923,0 -3.481,-1.558 -3.481,-3.481v-23.666c0,-3.844 3.117,-6.961 6.961,-6.961h24.362c1.923,0 3.481,1.559 3.481,3.481z" fill="#E8F5E9"/>
<g id="Icon_3">
<path id="Vector_267" d="M16.6988,6.9611c-2.486,0 -4.51,2.042 -4.51,4.538c0,1.579 0.811,2.974 2.036,3.787c-1.479,0.494 -2.759,1.418 -3.698,2.628c-0.519,-0.4 -1.098,-0.721 -1.724,-0.951c0.948,-0.703 1.568,-1.834 1.568,-3.104c0,-2.118 -1.713,-3.851 -3.817,-3.851c-2.104,0 -3.817,1.733 -3.817,3.851c0,1.271 0.62,2.402 1.569,3.106c-2.512,0.927 -4.306,3.353 -4.306,6.209v2.006c0,0.153 0.062,0.3 0.17,0.408c0.109,0.108 0.255,0.168 0.408,0.167h8.802c0.021,0.003 0.043,0.004 0.064,0.004h14.51c0.022,0 0.043,-0.001 0.064,-0.004h8.803c0.316,-0.001 0.572,-0.258 0.573,-0.575v-2.006c0,-2.856 -1.791,-5.282 -4.301,-6.21c0.949,-0.703 1.569,-1.834 1.569,-3.106c0,-2.117 -1.713,-3.85 -3.817,-3.85c-2.105,0 -3.817,1.733 -3.817,3.85c0,1.271 0.62,2.402 1.568,3.105c-0.627,0.231 -1.207,0.553 -1.727,0.953c-0.938,-1.21 -2.216,-2.136 -3.695,-2.63c1.224,-0.813 2.036,-2.208 2.036,-3.787c0,-2.496 -2.025,-4.538 -4.511,-4.538zM16.6988,8.1121c1.859,0 3.358,1.509 3.358,3.387c0,1.864 -1.476,3.358 -3.314,3.382c-0.015,0 -0.029,-0.002 -0.044,-0.002c-0.015,0 -0.029,0.002 -0.044,0.002c-1.839,-0.024 -3.313,-1.518 -3.313,-3.382c0,-1.878 1.497,-3.387 3.357,-3.387zM6.5538,11.1601c1.475,0 2.665,1.197 2.665,2.699c0,1.491 -1.174,2.683 -2.636,2.699c-0.009,0 -0.019,-0.001 -0.029,-0.001c-0.01,0 -0.019,0.001 -0.029,0.001c-1.462,-0.016 -2.636,-1.208 -2.636,-2.699c0,-1.502 1.19,-2.699 2.665,-2.699zM26.8438,11.1601c1.476,0 2.666,1.197 2.666,2.699c0,1.491 -1.175,2.683 -2.636,2.699c-0.01,0 -0.02,-0.001 -0.03,-0.001c-0.009,0 -0.019,0.001 -0.029,0.001c-1.461,-0.016 -2.636,-1.208 -2.636,-2.699c0,-1.502 1.19,-2.699 2.665,-2.699zM16.6548,16.0321c0.014,0.001 0.029,0.002 0.044,0.002c0.014,0 0.029,-0.002 0.044,-0.002c3.687,0.024 6.638,3 6.638,6.726v1.849h-13.364v-1.849c0,-3.726 2.95,-6.702 6.637,-6.726zM6.5098,17.7111c0.015,0.001 0.029,0.002 0.044,0.002c0.015,0 0.029,-0.002 0.044,-0.002c1.247,0.01 2.385,0.44 3.292,1.16c-0.649,1.147 -1.024,2.472 -1.024,3.887v1.845h-7.715v-1.429c0,-3.028 2.381,-5.439 5.359,-5.463zM26.7998,17.7111c0.015,0.001 0.029,0.002 0.044,0.002c0.015,0 0.029,-0.002 0.044,-0.002c2.978,0.024 5.359,2.436 5.359,5.463v1.429h-7.719v-1.845c0,-1.414 -0.374,-2.738 -1.021,-3.885c0.906,-0.721 2.045,-1.152 3.293,-1.162z" fill="#103E13"/>
</g>
</g></svg>