<svg viewBox="0 0 14.0224 11.0176" x="0" y="0" fill="none" xmlns="http://www.w3.org/2000/svg"><path id="Vector_434" d="M2.2494,0.1672h9.52c0.55,0 1.08,0.22 1.47,0.611c0.4,0.391 0.62,0.922 0.62,1.476v6.509c0,0.554 -0.22,1.085 -0.62,1.476c-0.39,0.391 -0.92,0.611 -1.47,0.611h-9.52c-0.55,0 -1.08,-0.22 -1.47,-0.611c-0.39,-0.391 -0.61,-0.922 -0.61,-1.476v-6.509c0,-0.554 0.22,-1.085 0.61,-1.476c0.39,-0.391 0.92,-0.611 1.47,-0.611zM0.8394,8.7632c0,0.377 0.14,0.738 0.41,1.004c0.27,0.266 0.63,0.415 1,0.415h9.52c0.38,0 0.74,-0.149 1,-0.415c0.27,-0.266 0.42,-0.627 0.42,-1.004v-4.923h-12.35zM9.5194,7.1782h1.5c0.09,0 0.17,0.036 0.23,0.098c0.07,0.063 0.1,0.147 0.1,0.236c0,0.088 -0.03,0.173 -0.1,0.236c-0.06,0.062 -0.14,0.097 -0.23,0.097h-1.5c-0.09,0 -0.18,-0.035 -0.24,-0.097c-0.06,-0.063 -0.1,-0.148 -0.1,-0.236c0,-0.089 0.04,-0.173 0.1,-0.236c0.06,-0.062 0.15,-0.098 0.24,-0.098zM2.2494,0.8352c-0.37,0 -0.73,0.149 -1,0.415c-0.27,0.266 -0.41,0.627 -0.41,1.004v0.918h12.35v-0.918c0,-0.377 -0.15,-0.738 -0.42,-1.004c-0.26,-0.266 -0.62,-0.415 -1,-0.415z" fill="currentColor" stroke="currentColor" stroke-width="0.333867" xmlns="http://www.w3.org/2000/svg"/></svg>