<svg viewBox="0 0 114.3277 105.2499" x="0" y="0" fill="none" xmlns="http://www.w3.org/2000/svg"><g id="mobile-login/rafiki" xmlns="http://www.w3.org/2000/svg">
<g id="Shadow">
<path id="Vector_307" d="M57.1666,105.2498c31.57,0 57.16,-1.494 57.16,-3.337c0,-1.843 -25.59,-3.338 -57.16,-3.338c-31.57,0 -57.17,1.495 -57.17,3.338c0,1.843 25.6,3.337 57.17,3.337z" fill="#F5F5F5"/>
</g>
<g id="character-2">
<path id="Vector_308" d="M86.4266,27.3778l-2.93,-1.18c0,0 -3.86,7.038 -4.96,7.395c-1.5,0.483 -4.62,1.828 -6.46,2.063c-0.25,0.295 -0.66,1.212 -0.63,1.545c2.48,0.829 7.93,-0.271 9.1,-1.138c2.66,-1.966 5.88,-8.685 5.88,-8.685z" fill="#E58A7B"/>
<path id="Vector_309" d="M87.3266,25.7768c0.54,2.014 -2.41,6.064 -2.41,6.064l-3.87,-2.169c0,0 0.72,-1.666 1.61,-3.361c1.42,-2.739 4.05,-2.831 4.67,-0.534z" fill="#4CAF4F"/>
<path id="Vector_310" opacity="0.2" d="M87.3266,25.7768c0.54,2.014 -2.41,6.064 -2.41,6.064l-3.87,-2.169c0,0 0.72,-1.666 1.61,-3.361c1.42,-2.739 4.05,-2.831 4.67,-0.534z" fill="black"/>
<path id="Vector_311" opacity="0.2" d="M82.5766,30.5378l1.53,0.855l0.27,-4.679c-0.89,0.681 -1.52,2.733 -1.8,3.824z" fill="black"/>
<path id="Vector_312" d="M84.7766,24.2608c0,0 -3.01,6.705 -1.26,19.188h11.88c0.19,-1.822 -0.44,-10.714 1.82,-19.3c-1.3,-0.254 -2.62,-0.423 -3.94,-0.504c-1.68,-0.097 -3.37,-0.097 -5.05,0c-1.16,0.119 -2.32,0.325 -3.45,0.616z" fill="#4CAF4F"/>
<path id="Vector_313" opacity="0.2" d="M84.7766,24.2608c0,0 -3.01,6.705 -1.26,19.188h11.88c0.19,-1.822 -0.44,-10.714 1.82,-19.3c-1.3,-0.254 -2.62,-0.423 -3.94,-0.504c-1.68,-0.097 -3.37,-0.097 -5.05,0c-1.16,0.119 -2.32,0.325 -3.45,0.616z" fill="black"/>
<g id="Vector_314" style="mix-blend-mode:multiply">
<path d="M82.0266,102.1778c-0.02,0.318 4.48,0.575 10.05,0.575c5.57,0 10.1,-0.257 10.12,-0.575c0.02,-0.318 -4.48,-0.572 -10.05,-0.572c-5.57,0 -10.1,0.257 -10.12,0.572z" fill="#E8ECF1"/>
</g>
<path id="Vector_315" d="M89.9466,93.8118l-2.1,0.815l1.81,4.686l2.11,-0.815z" fill="#E58A7B"/>
<path id="Vector_316" d="M99.3366,99.9108h-2.22l-0.81,-5.139h2.22z" fill="#E58A7B"/>
<path id="Vector_317" d="M96.9666,99.6538h2.49c0.05,0.001 0.09,0.016 0.12,0.044c0.03,0.028 0.06,0.067 0.06,0.11l0.32,1.972c0.01,0.05 0.01,0.1 -0.01,0.148c-0.01,0.048 -0.04,0.092 -0.07,0.129c-0.03,0.038 -0.07,0.068 -0.12,0.088c-0.04,0.02 -0.09,0.031 -0.14,0.03c-0.87,-0.015 -1.29,-0.068 -2.39,-0.068c-0.67,0 -2.06,0.071 -3,0.071c-0.94,0 -1,-0.92 -0.61,-1.005c1.73,-0.375 2.4,-0.885 2.98,-1.38c0.1,-0.09 0.23,-0.139 0.37,-0.139z" fill="#263238"/>
<path id="Vector_318" d="M89.5966,98.8938l2.36,-0.69c0.04,-0.012 0.08,-0.009 0.12,0.008c0.04,0.017 0.08,0.048 0.1,0.086l0.88,1.769c0.02,0.045 0.03,0.094 0.03,0.143c0,0.05 -0.01,0.098 -0.03,0.143c-0.02,0.045 -0.05,0.084 -0.09,0.116c-0.04,0.031 -0.08,0.054 -0.13,0.067c-0.86,0.236 -1.43,0.38 -2.5,0.693c-0.74,0.215 -1.5,0.566 -2.23,0.799c-0.51,0.162 -1.7,0.168 -2.32,0.168c-0.91,0 -1.11,-0.961 -0.72,-1.006c0.99,-0.109 1.12,-0.059 1.67,-0.333c0.89,-0.39 1.7,-0.948 2.38,-1.645c0.13,-0.146 0.29,-0.256 0.48,-0.318z" fill="#263238"/>
<path id="Vector_319" d="M72.4466,35.6448l-2.44,-1.023l-1.01,2.706c1,0.152 2.02,0.152 3.02,0z" fill="#E58A7B"/>
<path id="Vector_320" d="M68.1866,34.5508l-0.06,1.798l0.87,0.973l1.01,-2.706z" fill="#E58A7B"/>
<path id="Vector_321" d="M90.2366,94.2098l-2.11,0.815l0.93,2.423l2.12,-0.815z" fill="#CF6F64"/>
<path id="Vector_322" d="M98.5266,94.7718h-2.22l0.42,2.651h2.22z" fill="#CF6F64"/>
<path id="Vector_323" opacity="0.2" d="M83.1466,40.0728c0.04,0.534 0.09,1.079 0.16,1.639l8.82,-2.866c1.38,-0.408 2.58,-1.274 3.4,-2.455c0.04,-0.788 0.08,-1.616 0.15,-2.48c0.03,-0.419 0.06,-0.849 0.1,-1.285c0.04,-0.437 0.09,-0.92 0.15,-1.386z" fill="black"/>
<path id="Vector_324" d="M86.0266,30.4028l-0.29,-0.036c0.17,-1.474 1.27,-2.635 2.43,-2.606v0.295c-1.02,-0.021 -1.98,1.026 -2.14,2.347z" fill="white"/>
<path id="Vector_325" d="M87.5966,33.1238h-0.05v-0.295c1.02,0.038 1.97,-1.02 2.12,-2.338l0.3,0.035c-0.16,1.442 -1.22,2.598 -2.37,2.598z" fill="white"/>
<path id="Vector_326" d="M93.1066,17.9638c-0.41,1.624 -0.9,4.599 0.17,5.681c0,0 -0.75,1.648 -3.77,1.648c-2.75,0 -1.28,-1.648 -1.28,-1.648c1.84,-0.43 1.87,-1.769 1.63,-3.036z" fill="#E58A7B"/>
<path id="Vector_327" d="M91.7866,19.0428l-1.93,1.566c0.06,0.291 0.09,0.587 0.1,0.884c0.57,0.56 1.7,-0.858 1.81,-1.583c0.06,-0.286 0.06,-0.58 0.02,-0.867z" fill="#CF6F64"/>
<path id="Vector_328" d="M86.5466,17.9428c0.13,0.232 0.31,0.435 0.53,0.594c0.22,0.159 0.46,0.272 0.72,0.332c0.71,0.156 1.06,-0.495 0.87,-1.15c-0.17,-0.589 -0.76,-1.383 -1.47,-1.247c-0.16,0.032 -0.3,0.1 -0.43,0.199c-0.12,0.099 -0.21,0.226 -0.28,0.37c-0.06,0.144 -0.09,0.301 -0.08,0.458c0.01,0.157 0.06,0.309 0.14,0.444z" fill="#CF6F64"/>
<path id="Vector_329" d="M87.7166,12.7448c-1.1,0.505 -1.49,4.886 -0.11,5.534c1.39,0.649 2.2,-6.492 0.11,-5.534z" fill="#263238"/>
<path id="Vector_330" d="M93.4466,15.5198c-0.27,2.199 -0.3,3.494 -1.48,4.62c-0.36,0.374 -0.82,0.639 -1.33,0.767c-0.51,0.128 -1.04,0.113 -1.54,-0.042c-0.5,-0.156 -0.94,-0.446 -1.29,-0.84c-0.34,-0.393 -0.57,-0.874 -0.66,-1.389c-0.36,-1.975 0.14,-5.239 2.34,-6.115c0.47,-0.204 0.97,-0.281 1.48,-0.222c0.5,0.059 0.98,0.252 1.38,0.557c0.41,0.306 0.72,0.715 0.91,1.183c0.2,0.468 0.26,0.98 0.19,1.481z" fill="#E58A7B"/>
<path id="Vector_331" d="M89.8266,13.8838c1.63,-0.416 2.83,-0.699 2.4,0.66c-0.57,1.816 -1.25,3.573 -0.34,3.653c0.56,0.05 3.04,-1 2.72,-2.064c-0.27,-0.926 0.89,-1.179 1.09,-1.648c0.77,-1.698 -1.42,-1.474 -1.03,-2.506c0.39,-1.032 -1.77,-2.695 -2.95,-1.866c-1.92,1.338 -5.21,1.318 -3.48,-0.885c1.24,-1.571 -0.97,-1.25 -0.97,-1.25c0,0 1.34,0.793 -0.91,2.02c-2.39,1.309 -0.2,4.826 3.47,3.886z" fill="#263238"/>
<path id="Vector_332" d="M94.3166,17.9428c-0.33,0.467 -0.81,0.797 -1.36,0.926c-0.73,0.156 -1.01,-0.495 -0.74,-1.15c0.25,-0.589 0.92,-1.383 1.61,-1.247c0.7,0.136 0.86,0.893 0.49,1.471z" fill="#E58A7B"/>
<path id="Vector_333" d="M83.5166,43.4488c0,0 -1.99,17.837 -2.14,24.606c-0.16,7.04 6.75,29.008 6.75,29.008l3.54,-1.474c0,0 -4.13,-20.072 -3.54,-26.986c0.62,-7.538 3.21,-25.142 3.21,-25.142z" fill="#4CAF4F"/>
<path id="Vector_334" opacity="0.2" d="M88.4766,48.3458c-1.59,3.296 -0.52,9.815 0.34,13.677c0.33,-2.727 0.72,-5.687 1.08,-8.426c-0.03,-4.21 -0.36,-7.462 -1.42,-5.251z" fill="black"/>
<path id="Vector_335" d="M91.5066,94.4208c0.02,0 0.42,1.126 0.42,1.126l-4.08,1.716l-0.64,-1.197z" fill="#4CAF4F"/>
<path id="Vector_336" d="M87.7366,43.4488c0,0 1.52,16.964 2.53,23.318c1.11,6.96 5.45,30.143 5.45,30.143h4.07c0,0 -2.44,-22.62 -2.89,-29.513c-0.51,-7.476 -1.5,-23.948 -1.5,-23.948z" fill="#4CAF4F"/>
<path id="Vector_337" d="M99.8466,95.8508c0.02,0 0.14,1.135 0.14,1.135h-4.47l-0.32,-1.303z" fill="#4CAF4F"/>
<path id="Vector_338" opacity="0.2" d="M98.2966,94.5068c-0.01,0 -0.02,-0.003 -0.03,-0.009c-0.01,-0.006 -0.01,-0.015 -0.01,-0.024c-0.03,-0.206 -2.22,-20.637 -2.64,-26.829c-0.44,-6.716 -1.35,-21.614 -1.35,-21.764c-0.01,-0.005 0,-0.01 0,-0.014c0,-0.005 0,-0.009 0,-0.013c0.01,-0.003 0.01,-0.006 0.02,-0.008c0,-0.002 0.01,-0.003 0.01,-0.003c0.01,0 0.02,0.003 0.03,0.01c0,0.006 0.01,0.015 0.01,0.025c0,0.15 0.91,15.036 1.36,21.764c0.41,6.192 2.61,26.608 2.63,26.829c0,0.005 0,0.01 0,0.015c0,0.005 -0.01,0.009 -0.01,0.013c0,0.004 -0.01,0.007 -0.01,0.01c0,0.002 -0.01,0.003 -0.01,0.004z" fill="black"/>
<path id="Vector_339" d="M90.0766,16.1328c0,0.18 -0.12,0.324 -0.23,0.324c-0.12,0 -0.21,-0.144 -0.2,-0.324c0.02,-0.18 0.12,-0.324 0.23,-0.324c0.12,0 0.21,0.147 0.2,0.324z" fill="#263238"/>
<path id="Vector_340" d="M88.0466,16.1328c0,0.18 -0.11,0.324 -0.23,0.324c-0.11,0 -0.2,-0.144 -0.19,-0.324c0.01,-0.18 0.11,-0.324 0.23,-0.324c0.12,0 0.21,0.147 0.19,0.324z" fill="#263238"/>
<path id="Vector_341" d="M88.6866,16.2238c-0.25,0.55 -0.56,1.064 -0.94,1.531c0.29,0.294 0.84,0.159 0.84,0.159z" fill="#DF5753"/>
<path id="Vector_342" d="M88.7366,18.6658c0,0 -0.01,-0.002 -0.02,-0.004c0,-0.003 -0.01,-0.007 -0.01,-0.012c-0.01,-0.005 -0.01,-0.011 -0.01,-0.017c-0.01,-0.007 -0.01,-0.014 -0.01,-0.02c0,-0.015 0.01,-0.028 0.02,-0.038c0.01,-0.01 0.02,-0.015 0.04,-0.015c0.22,0.001 0.45,-0.048 0.65,-0.144c0.21,-0.096 0.39,-0.236 0.53,-0.411c0.01,-0.009 0.02,-0.014 0.04,-0.014c0.01,0 0.02,0.005 0.03,0.014c0.01,0.01 0.02,0.023 0.02,0.037c0,0.014 -0.01,0.027 -0.02,0.037c-0.15,0.186 -0.34,0.335 -0.56,0.436c-0.22,0.102 -0.46,0.153 -0.7,0.151z" fill="#263238"/>
<path id="Vector_343" d="M90.4366,15.5908c-0.02,0.007 -0.03,0.011 -0.05,0.011c-0.02,0 -0.03,-0.004 -0.05,-0.011c-0.11,-0.072 -0.23,-0.116 -0.36,-0.13c-0.13,-0.014 -0.26,0.003 -0.39,0.05c-0.01,0.006 -0.02,0.009 -0.04,0.01c-0.01,0.001 -0.02,-0.001 -0.04,-0.005c-0.01,-0.004 -0.02,-0.011 -0.03,-0.02c-0.01,-0.009 -0.02,-0.02 -0.02,-0.032c-0.01,-0.026 -0.01,-0.056 0,-0.082c0.01,-0.027 0.03,-0.048 0.05,-0.06c0.16,-0.063 0.32,-0.087 0.49,-0.072c0.17,0.015 0.33,0.07 0.46,0.161c0.02,0.007 0.03,0.017 0.03,0.029c0.01,0.011 0.02,0.024 0.02,0.037c0,0.014 0,0.028 0,0.041c-0.01,0.013 -0.01,0.026 -0.02,0.037c-0.01,0.017 -0.03,0.029 -0.05,0.036z" fill="#263238"/>
<path id="Vector_344" d="M87.2666,15.0008c-0.01,-0.004 -0.03,-0.012 -0.04,-0.024c-0.01,-0.009 -0.02,-0.021 -0.02,-0.033c-0.01,-0.013 -0.01,-0.027 -0.01,-0.04c0,-0.014 0,-0.028 0.01,-0.04c0,-0.013 0.01,-0.024 0.02,-0.034c0.11,-0.127 0.25,-0.226 0.41,-0.289c0.16,-0.064 0.33,-0.09 0.5,-0.077c0.01,0.002 0.03,0.007 0.04,0.015c0.01,0.007 0.02,0.017 0.03,0.028c0,0.011 0.01,0.024 0.01,0.037c0,0.014 0,0.028 0,0.041c-0.01,0.028 -0.02,0.052 -0.04,0.068c-0.03,0.016 -0.05,0.024 -0.08,0.021c-0.14,-0.009 -0.27,0.013 -0.39,0.064c-0.13,0.052 -0.24,0.13 -0.33,0.23c-0.01,0.015 -0.03,0.026 -0.05,0.032c-0.02,0.006 -0.04,0.006 -0.06,0.001z" fill="#263238"/>
<path id="Vector_345" d="M98.3566,27.0498l-3.06,-0.816c0,0 -3.01,7.403 -4.07,7.883c-1.45,0.661 -5.11,2.949 -6.66,4.031c-0.09,0.368 -0.02,1.344 0.17,1.612c2.66,-0.483 7.74,-2.438 8.8,-3.431c2.42,-2.268 4.82,-9.279 4.82,-9.279z" fill="#E58A7B"/>
<path id="Vector_346" d="M96.2166,100.0438c-0.15,0.011 -0.3,-0.029 -0.42,-0.115c-0.04,-0.035 -0.07,-0.078 -0.08,-0.127c-0.02,-0.048 -0.02,-0.1 -0.01,-0.151c0,-0.031 0.01,-0.061 0.03,-0.087c0.02,-0.026 0.04,-0.047 0.07,-0.06c0.25,-0.127 0.94,0.313 1.02,0.363c0.01,0.005 0.02,0.013 0.02,0.023c0,0.009 0,0.02 0,0.03c0,0.01 -0.01,0.02 -0.01,0.027c-0.01,0.008 -0.02,0.014 -0.03,0.017c-0.19,0.047 -0.39,0.074 -0.59,0.08zM95.9266,99.5838c-0.02,-0.005 -0.05,-0.005 -0.07,0c-0.01,0.005 -0.02,0.014 -0.03,0.025c0,0.011 -0.01,0.024 -0.01,0.037c0,0.034 0,0.07 0.01,0.103c0.01,0.034 0.03,0.064 0.05,0.088c0.12,0.103 0.41,0.115 0.79,0.041c-0.23,-0.149 -0.48,-0.249 -0.75,-0.294z" fill="#4CAF4F"/>
<path id="Vector_347" d="M96.7866,99.9638c0,0.002 -0.01,0.002 -0.02,0c-0.22,-0.124 -0.64,-0.61 -0.57,-0.858c0.01,-0.039 0.03,-0.074 0.06,-0.099c0.03,-0.026 0.07,-0.039 0.11,-0.04c0.04,-0.005 0.08,-0.002 0.12,0.01c0.04,0.012 0.07,0.032 0.1,0.058c0.25,0.21 0.26,0.852 0.26,0.885c0,0.009 0,0.019 0,0.028c-0.01,0.008 -0.02,0.015 -0.03,0.019c-0.01,0.002 -0.02,0.001 -0.03,-0.003zM96.3966,99.0648h-0.02c-0.07,0 -0.08,0.038 -0.08,0.053c-0.04,0.144 0.23,0.513 0.44,0.687c0,-0.249 -0.07,-0.492 -0.22,-0.696c-0.03,-0.03 -0.07,-0.046 -0.12,-0.044z" fill="#4CAF4F"/>
<path id="Vector_348" d="M88.3966,99.6748c-0.19,0.063 -0.38,0.063 -0.56,0c-0.04,-0.022 -0.08,-0.054 -0.1,-0.094c-0.03,-0.039 -0.04,-0.084 -0.05,-0.13c0,-0.029 0,-0.059 0.01,-0.086c0.02,-0.028 0.03,-0.052 0.06,-0.07c0.23,-0.213 1.2,0 1.3,0.041c0.01,0.003 0.02,0.009 0.03,0.017c0.01,0.009 0.01,0.019 0.01,0.03c0,0.011 0,0.022 -0.01,0.032c0,0.009 -0.01,0.017 -0.02,0.021c-0.22,0.098 -0.44,0.178 -0.67,0.239zM87.9066,99.3238c-0.03,0.007 -0.06,0.022 -0.09,0.044c-0.01,0.007 -0.01,0.017 -0.02,0.028c0,0.011 0,0.023 0,0.034c0,0.031 0.01,0.061 0.03,0.087c0.01,0.027 0.04,0.048 0.06,0.064c0.16,0.082 0.52,0.017 0.99,-0.18c-0.31,-0.08 -0.64,-0.106 -0.97,-0.077z" fill="#4CAF4F"/>
<path id="Vector_349" d="M89.0566,99.4358h-0.03c-0.29,-0.053 -0.88,-0.392 -0.9,-0.645c0,-0.059 0.03,-0.142 0.17,-0.189c0.05,-0.017 0.1,-0.024 0.15,-0.021c0.05,0.003 0.1,0.016 0.15,0.039c0.31,0.156 0.48,0.722 0.49,0.748c0,0.009 0,0.019 0,0.027c0,0.009 -0.01,0.017 -0.01,0.023c-0.01,0.008 -0.01,0.014 -0.02,0.018zM88.3566,98.6898h-0.03c-0.09,0.033 -0.09,0.071 -0.09,0.083c0,0.153 0.43,0.433 0.72,0.528c-0.06,-0.237 -0.21,-0.445 -0.41,-0.59c-0.06,-0.03 -0.13,-0.038 -0.19,-0.021z" fill="#4CAF4F"/>
<path id="Vector_350" d="M84.8166,37.9738l-3.08,1.415l-0.36,0.884l1.14,0.764c0,0 2.12,-0.23 2.73,-1.595z" fill="#E58A7B"/>
<path id="Vector_351" d="M84.9466,39.8108c-0.07,-0.591 -0.27,-1.16 -0.58,-1.669l0.49,-0.366c0.37,0.586 0.6,1.246 0.68,1.931z" fill="#263238"/>
<path id="Vector_352" d="M85.4666,38.3918c0.07,0.103 0.1,0.222 0.09,0.344c0,0.121 -0.05,0.237 -0.12,0.333c-0.07,0.096 -0.18,0.167 -0.29,0.203c-0.12,0.036 -0.24,0.035 -0.36,-0.002c-0.11,-0.036 -0.21,-0.108 -0.29,-0.204c-0.07,-0.097 -0.11,-0.214 -0.12,-0.335c0,-0.121 0.03,-0.24 0.1,-0.342c0.06,-0.102 0.16,-0.181 0.27,-0.227c0.13,-0.064 0.27,-0.076 0.41,-0.033c0.13,0.044 0.25,0.138 0.31,0.263z" fill="#263238"/>
<path id="Vector_353" d="M79.6566,40.5328l0.41,0.413l2.76,-1.18l-1.09,-0.377z" fill="#E58A7B"/>
<path id="Vector_354" opacity="0.2" d="M91.5066,94.4208c0.02,0 0.42,1.126 0.42,1.126l-4.08,1.716l-0.64,-1.197z" fill="black"/>
<path id="Vector_355" opacity="0.2" d="M99.8466,95.8508c0.02,0 0.14,1.135 0.14,1.135h-4.47l-0.32,-1.303z" fill="black"/>
<path id="Vector_356" d="M99.1566,26.2008c0.81,2.615 -2.36,6.192 -2.36,6.192l-4.37,-1.787c0.51,-1.511 1.11,-2.995 1.79,-4.443c1.34,-2.898 4.12,-2.6 4.94,0.038z" fill="#4CAF4F"/>
<path id="Vector_357" opacity="0.2" d="M99.1566,26.2008c0.81,2.615 -2.36,6.192 -2.36,6.192l-4.37,-1.787c0.51,-1.511 1.11,-2.995 1.79,-4.443c1.34,-2.898 4.12,-2.6 4.94,0.038z" fill="black"/>
</g>
<g id="Screen">
<path id="Vector_358" d="M55.6566,-0.0002h-1.89v0.304h1.89z" fill="#4CAF4F"/>
<path id="Vector_359" d="M80.0466,12.0188l-0.23,5.06l0.3,0.014l0.23,-5.06z" fill="#4CAF4F"/>
<path id="Vector_360" d="M79.4566,1.3618h-34.79l-3.24,72.445h34.79z" fill="#4CAF4F"/>
<path id="Vector_361" opacity="0.56" d="M78.4166,2.3588h-34.79l-3.24,72.444h34.79z" fill="#FAFAFA"/>
<path id="Vector_362" opacity="0.07" d="M77.3766,3.3518h-34.79l-3.24,72.445h34.79z" fill="#4CAF4F"/>
<path id="Vector_363" d="M73.4166,34.9488h-29.69l-0.25,5.543h29.7z" fill="white"/>
<path id="Vector_364" d="M60.0566,30.9038h-16.15l-0.11,2.479h16.15z" fill="#4CAF4F"/>
<path id="Vector_365" d="M72.7466,49.9078h-29.69l-0.25,5.543h29.7z" fill="white"/>
<path id="Vector_366" opacity="0.47" d="M67.3066,62.9368h-19.97l-0.3,6.642h19.97z" fill="#4CAF4F"/>
<path id="Vector_367" d="M65.9666,70.6108h-19.96c-0.01,0.002 -0.02,0.002 -0.03,0c0,-0.009 0,-0.018 0,-0.027l0.29,-6.645c0,-0.004 0,-0.009 0.01,-0.013c0,-0.004 0,-0.008 0,-0.011c0.01,-0.003 0.01,-0.005 0.02,-0.007c0,-0.001 0,-0.002 0.01,-0.001h19.97c0,-0.002 0.01,-0.003 0.01,-0.003c0,0 0.01,0.001 0.01,0.003c0,0.003 0,0.007 0,0.011c0,0.005 0,0.009 0,0.012l-0.29,6.66c0,0.007 -0.01,0.013 -0.01,0.017c-0.01,0.003 -0.02,0.005 -0.03,0.004zM46.0366,70.5398h19.9l0.29,-6.574h-19.89z" fill="white"/>
<path id="Vector_368" d="M56.5666,45.8628h-13.33l-0.11,2.483h13.33z" fill="#4CAF4F"/>
<path id="Vector_369" d="M66.9266,17.0438c-0.08,1.613 -0.65,3.163 -1.64,4.437c-0.74,0.963 -1.68,1.744 -2.77,2.284c-1.08,0.54 -2.27,0.825 -3.48,0.833c-0.98,0.007 -1.95,-0.186 -2.85,-0.567c-0.9,-0.382 -1.72,-0.944 -2.39,-1.651c-0.68,-0.708 -1.2,-1.546 -1.54,-2.464c-0.34,-0.918 -0.49,-1.895 -0.44,-2.872c0.11,-2.027 0.98,-3.938 2.45,-5.342c1.46,-1.404 3.41,-2.195 5.44,-2.211c0.98,-0.009 1.95,0.182 2.85,0.563c0.91,0.381 1.72,0.942 2.4,1.65c0.67,0.708 1.2,1.547 1.54,2.466c0.34,0.918 0.48,1.896 0.43,2.874z" fill="white"/>
<path id="Vector_370" d="M67.6366,11.0708c-0.02,0.429 -0.17,0.841 -0.44,1.179c-0.19,0.256 -0.44,0.463 -0.73,0.607c-0.29,0.143 -0.61,0.219 -0.93,0.222c-0.31,0.002 -0.62,-0.073 -0.9,-0.217c-0.27,-0.145 -0.51,-0.355 -0.69,-0.612c-0.23,-0.347 -0.35,-0.761 -0.33,-1.179c0.03,-0.538 0.27,-1.045 0.65,-1.418c0.39,-0.372 0.91,-0.582 1.45,-0.587c0.26,-0.002 0.52,0.049 0.76,0.15c0.24,0.101 0.45,0.25 0.63,0.438c0.18,0.187 0.32,0.41 0.41,0.654c0.09,0.244 0.13,0.503 0.12,0.763z" fill="#4CAF4F"/>
<path id="Vector_371" d="M46.9266,37.7198c-0.02,0.238 -0.12,0.461 -0.29,0.625c-0.17,0.164 -0.4,0.257 -0.64,0.26c-0.12,0.001 -0.23,-0.021 -0.34,-0.066c-0.1,-0.044 -0.2,-0.11 -0.28,-0.193c-0.08,-0.083 -0.14,-0.181 -0.18,-0.289c-0.04,-0.107 -0.06,-0.222 -0.05,-0.337c0.01,-0.238 0.12,-0.462 0.29,-0.626c0.17,-0.165 0.4,-0.257 0.64,-0.258c0.11,-0.001 0.23,0.021 0.33,0.066c0.11,0.044 0.2,0.11 0.28,0.193c0.08,0.083 0.15,0.181 0.19,0.288c0.04,0.108 0.05,0.223 0.05,0.337z" fill="#263238"/>
<path id="Vector_372" d="M50.8966,37.7198c-0.01,0.238 -0.11,0.462 -0.29,0.626c-0.17,0.164 -0.4,0.257 -0.64,0.259c-0.11,0.001 -0.22,-0.022 -0.33,-0.066c-0.11,-0.045 -0.2,-0.111 -0.28,-0.194c-0.08,-0.083 -0.14,-0.181 -0.18,-0.288c-0.04,-0.108 -0.06,-0.222 -0.05,-0.337c0.01,-0.237 0.11,-0.461 0.28,-0.625c0.18,-0.165 0.41,-0.257 0.64,-0.259c0.12,-0.002 0.23,0.021 0.34,0.065c0.1,0.044 0.2,0.11 0.28,0.193c0.08,0.083 0.14,0.181 0.18,0.289c0.04,0.108 0.06,0.222 0.05,0.337z" fill="#263238"/>
<path id="Vector_373" d="M54.8766,37.7198c-0.01,0.238 -0.12,0.462 -0.29,0.626c-0.17,0.164 -0.4,0.257 -0.64,0.259c-0.11,0.001 -0.23,-0.022 -0.33,-0.066c-0.11,-0.045 -0.2,-0.111 -0.28,-0.194c-0.08,-0.082 -0.15,-0.181 -0.19,-0.288c-0.04,-0.108 -0.05,-0.222 -0.05,-0.337c0.02,-0.238 0.12,-0.461 0.29,-0.626c0.17,-0.164 0.4,-0.256 0.64,-0.258c0.12,-0.002 0.23,0.021 0.34,0.065c0.1,0.044 0.2,0.11 0.28,0.193c0.08,0.083 0.14,0.181 0.18,0.289c0.04,0.108 0.06,0.222 0.05,0.337z" fill="#263238"/>
<path id="Vector_374" d="M46.2566,52.6798c-0.02,0.237 -0.12,0.461 -0.29,0.625c-0.17,0.164 -0.4,0.257 -0.64,0.259c-0.11,0.001 -0.23,-0.021 -0.33,-0.066c-0.11,-0.045 -0.21,-0.11 -0.29,-0.193c-0.07,-0.083 -0.14,-0.181 -0.18,-0.289c-0.04,-0.107 -0.05,-0.222 -0.05,-0.336c0.01,-0.238 0.12,-0.462 0.29,-0.626c0.17,-0.164 0.4,-0.257 0.64,-0.259c0.11,-0.001 0.23,0.022 0.33,0.066c0.11,0.045 0.21,0.111 0.28,0.193c0.08,0.083 0.15,0.181 0.19,0.289c0.04,0.107 0.05,0.222 0.05,0.337z" fill="#263238"/>
<path id="Vector_375" d="M50.2266,52.6798c-0.01,0.237 -0.11,0.46 -0.29,0.625c-0.17,0.164 -0.4,0.257 -0.63,0.259c-0.12,0.002 -0.23,-0.021 -0.34,-0.065c-0.1,-0.045 -0.2,-0.11 -0.28,-0.193c-0.08,-0.083 -0.14,-0.181 -0.18,-0.289c-0.04,-0.108 -0.06,-0.223 -0.05,-0.337c0.01,-0.238 0.12,-0.462 0.29,-0.626c0.17,-0.164 0.4,-0.257 0.64,-0.259c0.11,-0.001 0.23,0.022 0.33,0.066c0.11,0.045 0.2,0.111 0.28,0.194c0.08,0.082 0.14,0.181 0.18,0.288c0.04,0.108 0.06,0.222 0.05,0.337z" fill="#263238"/>
<path id="Vector_376" d="M54.2166,52.6798c-0.01,0.238 -0.12,0.461 -0.29,0.626c-0.17,0.164 -0.4,0.256 -0.64,0.258c-0.11,0.001 -0.23,-0.022 -0.33,-0.067c-0.11,-0.045 -0.2,-0.11 -0.28,-0.193c-0.08,-0.083 -0.15,-0.181 -0.19,-0.288c-0.04,-0.107 -0.05,-0.222 -0.05,-0.336c0.02,-0.238 0.12,-0.461 0.29,-0.625c0.17,-0.165 0.4,-0.257 0.64,-0.26c0.11,-0.001 0.23,0.021 0.33,0.065c0.11,0.045 0.21,0.111 0.29,0.194c0.08,0.082 0.14,0.181 0.18,0.288c0.04,0.108 0.06,0.223 0.05,0.338z" fill="#263238"/>
<path id="Vector_377" d="M58.1866,52.6798c-0.02,0.237 -0.12,0.461 -0.29,0.625c-0.18,0.164 -0.4,0.257 -0.64,0.259c-0.12,0.001 -0.23,-0.022 -0.34,-0.067c-0.1,-0.045 -0.2,-0.11 -0.28,-0.193c-0.08,-0.083 -0.14,-0.181 -0.18,-0.288c-0.04,-0.107 -0.06,-0.222 -0.05,-0.336c0.01,-0.238 0.12,-0.461 0.29,-0.625c0.17,-0.165 0.4,-0.257 0.64,-0.26c0.11,-0.001 0.23,0.022 0.33,0.066c0.11,0.045 0.2,0.111 0.28,0.193c0.08,0.083 0.14,0.181 0.18,0.289c0.05,0.107 0.06,0.222 0.06,0.337z" fill="#263238"/>
<path id="Vector_378" d="M62.1766,52.6798c-0.01,0.237 -0.12,0.461 -0.29,0.625c-0.17,0.164 -0.4,0.257 -0.64,0.259c-0.11,0.002 -0.23,-0.021 -0.33,-0.065c-0.11,-0.045 -0.21,-0.11 -0.29,-0.193c-0.08,-0.083 -0.14,-0.181 -0.18,-0.289c-0.04,-0.108 -0.05,-0.223 -0.05,-0.337c0.01,-0.238 0.12,-0.462 0.29,-0.626c0.17,-0.164 0.4,-0.257 0.64,-0.259c0.11,-0.001 0.23,0.022 0.33,0.066c0.11,0.045 0.21,0.111 0.29,0.193c0.07,0.083 0.14,0.181 0.18,0.289c0.04,0.107 0.05,0.222 0.05,0.337z" fill="#263238"/>
<path id="Vector_379" d="M61.5766,16.6508c1.23,-1.207 1.3,-3.141 0.14,-4.321c-1.15,-1.179 -3.09,-1.157 -4.32,0.05c-1.23,1.207 -1.3,3.141 -0.15,4.32c1.16,1.18 3.09,1.157 4.33,-0.049z" fill="#4CAF4F"/>
<path id="Vector_380" d="M65.2866,21.4808c-0.74,0.963 -1.68,1.744 -2.77,2.284c-1.08,0.54 -2.27,0.825 -3.48,0.832c-1.18,0.01 -2.34,-0.269 -3.38,-0.812c-1.04,-0.544 -1.93,-1.335 -2.59,-2.304c1.43,-1.427 3.7,-2.358 6.21,-2.358c2.51,0 4.7,0.931 6.01,2.358z" fill="#4CAF4F"/>
<path id="Vector_381" opacity="0.1" d="M61.5766,16.6508c1.23,-1.207 1.3,-3.141 0.14,-4.321c-1.15,-1.179 -3.09,-1.157 -4.32,0.05c-1.23,1.207 -1.3,3.141 -0.15,4.32c1.16,1.18 3.09,1.157 4.33,-0.049z" fill="white"/>
<path id="Vector_382" opacity="0.1" d="M65.2866,21.4808c-0.74,0.963 -1.68,1.744 -2.77,2.284c-1.08,0.54 -2.27,0.825 -3.48,0.832c-1.18,0.01 -2.34,-0.269 -3.38,-0.812c-1.04,-0.544 -1.93,-1.335 -2.59,-2.304c1.43,-1.427 3.7,-2.358 6.21,-2.358c2.51,0 4.7,0.931 6.01,2.358z" fill="white"/>
</g>
<g id="character-1">
<path id="Vector_383" d="M21.9066,41.8268c-0.28,0.613 -0.58,1.288 -0.83,1.943c-0.26,0.655 -0.52,1.33 -0.75,2.002c-0.46,1.325 -0.81,2.685 -1.05,4.068l-0.07,0.434c0,0.074 0,0.149 0.02,0.221c0.07,0.244 0.18,0.475 0.33,0.684c0.37,0.54 0.81,1.034 1.31,1.474c0.51,0.482 1.06,0.936 1.62,1.359c0.57,0.437 1.16,0.861 1.75,1.262l-0.55,1.035c-1.4,-0.61 -2.73,-1.373 -3.97,-2.273c-0.65,-0.481 -1.25,-1.043 -1.76,-1.675c-0.31,-0.376 -0.55,-0.802 -0.71,-1.259c-0.09,-0.285 -0.14,-0.584 -0.14,-0.884c0,-0.071 0,-0.174 0,-0.224v-0.145l0.03,-0.295c0.17,-1.536 0.49,-3.051 0.96,-4.522c0.23,-0.725 0.48,-1.448 0.76,-2.152c0.28,-0.705 0.57,-1.395 0.92,-2.111z" fill="#E58A7B"/>
<path id="Vector_384" d="M23.8266,55.0908l2.08,-1.055l-0.54,2.288c0,0 -1.43,0.401 -2.09,-0.295z" fill="#E58A7B"/>
<path id="Vector_385" d="M27.8166,54.4098l-0.56,1.893l-1.89,0.021l0.54,-2.288z" fill="#E58A7B"/>
<path id="Vector_386" d="M30.7566,30.7888c0.11,0.408 0.27,0.804 0.46,1.179c-0.05,0.065 -0.13,0.113 -0.21,0.14c-0.08,0.026 -0.17,0.03 -0.26,0.01z" fill="#DF5753"/>
<path id="Vector_387" d="M30.6966,30.8068c0.12,0 0.22,-0.152 0.22,-0.34c0,-0.187 -0.1,-0.339 -0.22,-0.339c-0.12,0 -0.22,0.152 -0.22,0.339c0,0.188 0.1,0.34 0.22,0.34z" fill="#263238"/>
<path id="Vector_388" d="M30.6266,30.1398l0.45,-0.127c0,0 -0.22,0.348 -0.45,0.127z" fill="#263238"/>
<path id="Vector_389" d="M24.9966,32.9528c0.27,1.371 0.54,3.886 -0.42,4.803c0,0 0.37,1.391 2.92,1.391c2.81,0 1.34,-1.391 1.34,-1.391c-1.53,-0.366 -1.49,-1.501 -1.22,-2.568z" fill="#E58A7B"/>
<path id="Vector_390" d="M24.2566,29.8278c0.14,2.291 0.15,3.263 1.3,4.44c1.75,1.769 4.53,1.097 5.08,-1.179c0.49,-2.064 0.18,-5.461 -2.07,-6.372c-0.49,-0.203 -1.03,-0.276 -1.56,-0.214c-0.52,0.062 -1.03,0.258 -1.46,0.569c-0.43,0.312 -0.78,0.728 -1.01,1.21c-0.22,0.482 -0.32,1.014 -0.28,1.546z" fill="#E58A7B"/>
<path id="Vector_391" d="M24.4766,27.2508c-1.15,0.419 -2.68,0.106 -2.08,3.653c0.64,3.756 -0.34,4.991 -0.34,4.991c0,0 4.36,0.929 8.81,-0.056c0,0 -1.36,-2.376 -0.98,-4.127c0.49,-2.212 0.11,-3.028 0.11,-3.028c0,0 -3.9,-2.023 -5.52,-1.433z" fill="#263238"/>
<path id="Vector_392" d="M29.3466,31.0218c0,0.435 0.12,0.862 0.36,1.229c0.31,0.478 0.68,0.295 0.77,-0.212c0.08,-0.445 0.02,-1.232 -0.38,-1.539c-0.4,-0.307 -0.75,-0.006 -0.75,0.522z" fill="#E58A7B"/>
<path id="Vector_393" d="M23.4766,27.6368c-0.33,-0.928 1.25,-2.358 4.58,-1.769c3.33,0.59 3.47,3.364 3.47,3.364l-0.67,-0.802l0.03,0.843l-3.42,0.658z" fill="#263238"/>
<path id="Vector_394" d="M23.7666,37.9118c-0.02,-0.135 0.01,-0.272 0.09,-0.382c0.08,-0.11 0.2,-0.185 0.33,-0.208c1.04,-0.171 3.4,-0.519 4.59,-0.354c0.88,0.124 1.11,0.637 1.15,1.059c0,0.074 -0.01,0.148 -0.03,0.218c-0.03,0.069 -0.07,0.133 -0.12,0.186c-0.05,0.053 -0.11,0.094 -0.18,0.121c-0.07,0.027 -0.14,0.039 -0.22,0.035l-5.12,-0.23c-0.12,-0.006 -0.24,-0.054 -0.33,-0.135c-0.09,-0.081 -0.15,-0.191 -0.16,-0.31z" fill="#4CAF4F"/>
<path id="Vector_395" opacity="0.6" d="M23.7666,37.9118c-0.02,-0.135 0.01,-0.272 0.09,-0.382c0.08,-0.11 0.2,-0.185 0.33,-0.208c1.04,-0.171 3.4,-0.519 4.59,-0.354c0.88,0.124 1.11,0.637 1.15,1.059c0,0.074 -0.01,0.148 -0.03,0.218c-0.03,0.069 -0.07,0.133 -0.12,0.186c-0.05,0.053 -0.11,0.094 -0.18,0.121c-0.07,0.027 -0.14,0.039 -0.22,0.035l-5.12,-0.23c-0.12,-0.006 -0.24,-0.054 -0.33,-0.135c-0.09,-0.081 -0.15,-0.191 -0.16,-0.31z" fill="black"/>
<path id="Vector_396" d="M26.7266,89.4178l1.9,1.321l3.18,-4.313l-1.9,-1.318z" fill="#E58A7B"/>
<path id="Vector_397" d="M22.2966,89.3318l2,1.144l2.82,-4.561l-2.01,-1.144z" fill="#E58A7B"/>
<path id="Vector_398" d="M31.8066,86.4258l-1.64,2.223l-1.9,-1.318l1.64,-2.223z" fill="#CF6F64"/>
<path id="Vector_399" d="M25.1066,84.7708l2.01,1.147l-1.45,2.35l-2.01,-1.147z" fill="#CF6F64"/>
<path id="Vector_400" d="M28.3266,52.3108c0,0 7.43,9.355 6.03,18.303c-1.12,7.226 -7.64,17.011 -7.64,17.011l-3.06,-1.521c2.16,-4.326 4,-8.804 5.51,-13.397c0.47,-1.426 0.61,-2.939 0.4,-4.425c-0.2,-1.486 -0.74,-2.907 -1.58,-4.154c-3.76,-5.493 -9.78,-2.223 -5.73,-11.817z" fill="#4CAF4F"/>
<path id="Vector_401" opacity="0.6" d="M28.3266,52.3108c0,0 7.43,9.355 6.03,18.303c-1.12,7.226 -7.64,17.011 -7.64,17.011l-3.06,-1.521c2.16,-4.326 4,-8.804 5.51,-13.397c0.47,-1.426 0.61,-2.939 0.4,-4.425c-0.2,-1.486 -0.74,-2.907 -1.58,-4.154c-3.76,-5.493 -9.78,-2.223 -5.73,-11.817z" fill="black"/>
<path id="Vector_402" opacity="0.4" d="M31.9666,58.3198l-1.07,-1.073c0,0.085 2.09,12.99 2.67,16.616c0.35,-1.059 0.61,-2.144 0.8,-3.243c0.69,-4.39 -0.76,-8.874 -2.4,-12.3z" fill="black"/>
<path id="Vector_403" d="M31.6466,52.3108c0,0 8.94,11.758 9.19,18.807c0.21,5.897 -9.73,17.321 -9.73,17.321l-2.89,-1.869c0,0 5.82,-8.114 7.28,-14.741c-0.56,-6.569 -12.53,-19.518 -12.53,-19.518z" fill="#4CAF4F"/>
<path id="Vector_404" opacity="0.6" d="M31.6466,52.3108c0,0 8.94,11.758 9.19,18.807c0.21,5.897 -9.73,17.321 -9.73,17.321l-2.89,-1.869c0,0 5.82,-8.114 7.28,-14.741c-0.56,-6.569 -12.53,-19.518 -12.53,-19.518z" fill="black"/>
<path id="Vector_405" d="M20.5866,38.2798c-0.96,0.227 -1.87,3.7 -1.87,3.7l3.73,2.495c0,0 1.25,-2.748 0.81,-3.951c-0.45,-1.253 -1.47,-2.53 -2.67,-2.244z" fill="#4CAF4F"/>
<path id="Vector_406" opacity="0.2" d="M21.3166,40.5178l-0.26,3.028l1.39,0.932c0.38,-0.864 0.67,-1.768 0.84,-2.695z" fill="black"/>
<path id="Vector_407" d="M32.7466,38.3478c0,0 1.11,0.386 -1.1,13.96h-9.4c0.16,-3.833 0.17,-6.191 -1.66,-14.028c1.31,-0.271 2.65,-0.446 3.99,-0.524c1.42,-0.102 2.84,-0.102 4.26,0c1.84,0.168 3.91,0.592 3.91,0.592z" fill="#4CAF4F"/>
<path id="Vector_408" d="M33.7066,40.5178c0.21,0.59 0.43,1.224 0.67,1.834c0.24,0.61 0.46,1.238 0.7,1.857l0.72,1.852l0.18,0.463l0.1,0.23l0.04,0.115c0,0.02 0,0.02 0,0.017c-0.05,-0.076 -0.12,-0.138 -0.2,-0.182c-0.12,-0.069 -0.25,-0.109 -0.39,-0.115c-0.11,-0.004 -0.22,0.017 -0.32,0.061c-0.14,0.062 -0.14,0.089 -0.14,0.086c0.03,-0.02 0.05,-0.042 0.07,-0.068c0.16,-0.214 0.3,-0.444 0.42,-0.687c0.14,-0.271 0.27,-0.56 0.4,-0.852c0.26,-0.59 0.5,-1.2 0.74,-1.816c0.24,-0.616 0.47,-1.238 0.69,-1.866l0.67,-1.881l1.13,0.295c-0.22,1.344 -0.51,2.653 -0.86,3.986c-0.16,0.663 -0.36,1.32 -0.59,1.984c-0.11,0.333 -0.23,0.663 -0.37,1.002c-0.15,0.368 -0.33,0.722 -0.55,1.056c-0.07,0.112 -0.16,0.219 -0.26,0.318c-0.15,0.163 -0.33,0.292 -0.53,0.38c-0.18,0.078 -0.38,0.114 -0.57,0.107c-0.22,-0.009 -0.44,-0.073 -0.63,-0.186c-0.22,-0.139 -0.4,-0.33 -0.53,-0.557c-0.05,-0.077 -0.09,-0.154 -0.11,-0.21l-0.06,-0.112l-0.11,-0.23l-0.22,-0.457c-0.3,-0.613 -0.59,-1.232 -0.85,-1.854c-0.26,-0.622 -0.53,-1.253 -0.78,-1.887c-0.25,-0.634 -0.48,-1.268 -0.7,-1.952z" fill="#E58A7B"/>
<path id="Vector_409" d="M32.7466,38.3478c1.13,0.269 2.4,3.606 2.4,3.606l-3.36,2.857c0,0 -2.17,-3.638 -1.73,-4.838c0.46,-1.25 1.22,-1.976 2.69,-1.625z" fill="#4CAF4F"/>
<path id="Vector_410" d="M38.5866,38.5098l1.18,-0.984l0.82,1.276l-0.6,1.065c0,0 -0.96,0.884 -1.81,0.433c-0.14,-0.303 -0.17,-0.642 -0.09,-0.965c0.07,-0.322 0.25,-0.612 0.5,-0.825z" fill="#E58A7B"/>
<path id="Vector_411" d="M41.8966,37.5288l-0.09,0.321l-1.86,0.312l-0.19,-0.636z" fill="#E58A7B"/>
<path id="Vector_412" d="M31.3366,88.5898l-3.37,-2.176l0.61,-1.05l3.78,2.326z" fill="#4CAF4F"/>
<path id="Vector_413" d="M25.6166,90.3228c-0.29,-0.036 -0.58,-0.137 -0.83,-0.295c-0.01,-0.003 -0.02,-0.01 -0.03,-0.019c0,-0.009 -0.01,-0.02 -0.01,-0.031c0,-0.011 0.01,-0.022 0.01,-0.031c0.01,-0.009 0.02,-0.015 0.03,-0.019c0.09,-0.029 0.88,-0.274 1.11,-0.085c0.03,0.021 0.05,0.049 0.06,0.081c0.01,0.031 0.01,0.065 0.01,0.098c-0.01,0.053 -0.02,0.105 -0.05,0.149c-0.03,0.044 -0.07,0.08 -0.12,0.105c-0.05,0.03 -0.12,0.046 -0.18,0.047zM24.9566,89.9988c0.37,0.188 0.66,0.256 0.8,0.186c0.03,-0.018 0.06,-0.042 0.08,-0.072c0.02,-0.03 0.03,-0.064 0.03,-0.099c0,-0.048 0,-0.068 -0.03,-0.08c-0.12,-0.1 -0.56,-0.024 -0.89,0.065z" fill="#263238"/>
<path id="Vector_414" d="M24.8066,90.0488c-0.02,0 -0.03,-0.007 -0.04,-0.018c-0.01,-0.008 -0.01,-0.017 -0.01,-0.026c0,-0.01 0,-0.019 0.01,-0.027c0,-0.026 0.19,-0.666 0.49,-0.811c0.04,-0.017 0.08,-0.026 0.12,-0.026c0.05,0 0.09,0.009 0.13,0.026c0.04,0.013 0.07,0.04 0.1,0.076c0.02,0.036 0.03,0.079 0.03,0.122c-0.02,0.265 -0.56,0.631 -0.81,0.693zM25.3766,89.2438c-0.03,0.001 -0.05,0.008 -0.08,0.021c-0.18,0.088 -0.33,0.433 -0.41,0.642c0.26,-0.109 0.62,-0.398 0.63,-0.56c0,-0.026 0,-0.059 -0.07,-0.088c-0.02,-0.012 -0.04,-0.02 -0.07,-0.024z" fill="#263238"/>
<path id="Vector_415" d="M29.8266,91.5968c-0.34,0 -0.8,-0.428 -1.05,-0.69c-0.01,-0.009 -0.01,-0.02 -0.01,-0.031c0,-0.011 0,-0.022 0.01,-0.031c0,-0.01 0.01,-0.017 0.02,-0.022c0.01,-0.006 0.02,-0.008 0.03,-0.007c0.12,0 1.15,0.153 1.29,0.442c0.02,0.026 0.02,0.055 0.02,0.085c0,0.03 0,0.06 -0.02,0.086c-0.02,0.045 -0.05,0.083 -0.1,0.112c-0.04,0.029 -0.08,0.047 -0.13,0.053zM28.9666,90.9478c0.37,0.36 0.7,0.56 0.89,0.537c0.03,-0.004 0.06,-0.017 0.09,-0.036c0.02,-0.019 0.05,-0.044 0.06,-0.073c0.01,-0.01 0.01,-0.022 0.01,-0.034c0,-0.012 0,-0.024 -0.01,-0.034c-0.08,-0.159 -0.62,-0.295 -1.04,-0.36z" fill="#263238"/>
<path id="Vector_416" d="M29.0066,90.9328c-0.07,0.002 -0.14,-0.003 -0.2,-0.014c-0.01,-0.002 -0.02,-0.005 -0.03,-0.011c0,-0.006 -0.01,-0.013 -0.01,-0.022c-0.01,-0.009 -0.01,-0.018 -0.01,-0.028c0,-0.01 0,-0.019 0.01,-0.028c0.01,-0.02 0.41,-0.501 0.79,-0.533c0.11,-0.009 0.21,0.025 0.29,0.094c0.12,0.1 0.11,0.189 0.08,0.245c-0.07,0.2 -0.58,0.297 -0.92,0.297zM28.9266,90.8238c0.33,0.018 0.86,-0.091 0.92,-0.236c0,0 0.03,-0.047 -0.05,-0.112c-0.03,-0.026 -0.06,-0.046 -0.1,-0.058c-0.04,-0.012 -0.08,-0.017 -0.12,-0.012c-0.26,0.071 -0.48,0.218 -0.65,0.421z" fill="#263238"/>
<path id="Vector_417" d="M24.8866,89.7298l-2.5,-0.707c-0.04,-0.013 -0.09,-0.01 -0.13,0.009c-0.04,0.019 -0.07,0.053 -0.09,0.094l-0.84,1.896c-0.02,0.048 -0.03,0.101 -0.03,0.153c0,0.052 0.01,0.104 0.04,0.151c0.02,0.047 0.05,0.089 0.09,0.122c0.04,0.033 0.09,0.058 0.14,0.072c0.88,0.23 1.31,0.295 2.41,0.61c0.68,0.189 1.64,0.54 2.58,0.805c0.93,0.266 1.25,-0.645 0.88,-0.84c-1.64,-0.867 -1.77,-1.474 -2.21,-2.123c-0.08,-0.117 -0.2,-0.203 -0.34,-0.242z" fill="#4CAF4F"/>
<path id="Vector_418" d="M28.8466,90.5618l-2.14,-1.474c-0.03,-0.027 -0.08,-0.039 -0.12,-0.034c-0.05,0.004 -0.09,0.024 -0.12,0.057l-1.42,1.522c-0.03,0.039 -0.06,0.085 -0.07,0.135c-0.02,0.05 -0.02,0.103 -0.01,0.155c0,0.052 0.02,0.102 0.05,0.146c0.03,0.045 0.06,0.083 0.11,0.112c0.75,0.504 1.14,0.708 2.08,1.359c0.59,0.401 1.73,1.292 2.52,1.846c0.8,0.554 1.39,-0.207 1.11,-0.507c-1.27,-1.354 -1.55,-2.203 -1.76,-2.972c-0.03,-0.14 -0.12,-0.262 -0.23,-0.345z" fill="#4CAF4F"/>
<path id="Vector_419" d="M27.1166,87.8198l-3.85,-1.913l0.4,-1.044l4.11,2.017z" fill="#4CAF4F"/>
<path id="Vector_420" d="M22.1066,51.7568l-0.32,0.849c-0.03,0.065 0.04,0.133 0.15,0.133h9.75c0.09,0 0.16,-0.042 0.17,-0.095l0.08,-0.843c0,-0.056 -0.07,-0.106 -0.16,-0.106h-9.51c-0.03,-0.003 -0.06,0.002 -0.09,0.012c-0.03,0.011 -0.05,0.028 -0.07,0.05z" fill="#4CAF4F"/>
<path id="Vector_421" opacity="0.4" d="M22.1066,51.7568l-0.32,0.849c-0.03,0.065 0.04,0.133 0.15,0.133h9.75c0.09,0 0.16,-0.042 0.17,-0.095l0.08,-0.843c0,-0.056 -0.07,-0.106 -0.16,-0.106h-9.51c-0.03,-0.003 -0.06,0.002 -0.09,0.012c-0.03,0.011 -0.05,0.028 -0.07,0.05z" fill="white"/>
<path id="Vector_422" d="M23.6466,52.8208h-0.26c-0.05,0 -0.09,-0.026 -0.08,-0.059l0.12,-1.094c0,-0.029 0.04,-0.056 0.09,-0.056h0.26c0.05,0 0.09,0.027 0.09,0.056l-0.12,1.094c-0.01,0.033 -0.05,0.059 -0.1,0.059z" fill="#4CAF4F"/>
<path id="Vector_423" d="M29.6566,52.8208h-0.25c-0.05,0 -0.09,-0.026 -0.09,-0.059l0.12,-1.094c0,-0.029 0.05,-0.056 0.1,-0.056h0.26c0.05,0 0.09,0.027 0.08,0.056l-0.12,1.094c-0.01,0.033 -0.04,0.059 -0.1,0.059z" fill="#4CAF4F"/>
<g id="Vector_424" style="mix-blend-mode:multiply">
<path d="M23.4166,102.7498c4.37,0 7.9,-0.256 7.9,-0.572c0,-0.316 -3.53,-0.572 -7.9,-0.572c-4.36,0 -7.89,0.256 -7.89,0.572c0,0.316 3.53,0.572 7.89,0.572z" fill="#F5F5F5"/>
</g>
<path id="Vector_425" d="M28.2366,101.3698c-1.4,-0.407 -2.95,-0.928 -3.89,-1.474c-0.03,-0.018 -0.06,-0.026 -0.08,-0.041v-6.327h2.82c0.22,-0.013 0.42,-0.107 0.57,-0.264c0.15,-0.156 0.23,-0.363 0.23,-0.578c0,-0.215 -0.08,-0.422 -0.23,-0.578c-0.15,-0.157 -0.35,-0.251 -0.57,-0.264h-2.81v-28.839h-1.7v28.839h-2.81c-0.11,-0.006 -0.23,0.01 -0.33,0.05c-0.11,0.039 -0.21,0.1 -0.29,0.179c-0.09,0.078 -0.15,0.173 -0.2,0.279c-0.05,0.105 -0.07,0.219 -0.07,0.334c0,0.115 0.02,0.229 0.07,0.334c0.05,0.106 0.11,0.201 0.2,0.28c0.08,0.079 0.18,0.139 0.29,0.179c0.1,0.039 0.22,0.056 0.33,0.049h2.81v6.318c-0.02,0 -0.05,0.024 -0.08,0.041c-0.95,0.555 -2.49,1.076 -3.88,1.474c-0.1,0.029 -0.18,0.09 -0.23,0.173c-0.06,0.084 -0.08,0.183 -0.06,0.281c0.01,0.097 0.06,0.187 0.13,0.252c0.08,0.065 0.17,0.101 0.27,0.102h9.39c0.1,-0.006 0.18,-0.045 0.25,-0.109c0.07,-0.064 0.12,-0.15 0.13,-0.244c0.01,-0.093 0,-0.189 -0.05,-0.27c-0.05,-0.081 -0.13,-0.143 -0.21,-0.176z" fill="#E0E0E0"/>
<path id="Vector_426" d="M28.6666,60.0678h-10.48c-0.85,0 -1.53,0.684 -1.53,1.527v3.116c0,0.844 0.68,1.528 1.53,1.528h10.48c0.84,0 1.53,-0.684 1.53,-1.528v-3.116c0,-0.843 -0.69,-1.527 -1.53,-1.527z" fill="#4CAF4F"/>
<path id="Vector_427" d="M18.0866,66.2418v0.536c0,0.443 0.48,0.802 1.07,0.802h8.55c0.59,0 1.07,-0.359 1.07,-0.802v-0.536z" fill="#4CAF4F"/>
<path id="Vector_428" opacity="0.3" d="M18.0866,66.2418v0.536c0,0.443 0.48,0.802 1.07,0.802h8.55c0.59,0 1.07,-0.359 1.07,-0.802v-0.536z" fill="white"/>
</g>
</g></svg>