<svg viewBox="0 0 147.4131 144.6974" x="0" y="0" fill="none" xmlns="http://www.w3.org/2000/svg"><g id="mobile-login/pana" xmlns="http://www.w3.org/2000/svg">
<g id="Floor">
<path id="Vector_435" d="M125.6594,144.6074c0,0.049 -23.96,0.09 -53.51,0.09c-29.55,0 -53.52,-0.041 -53.52,-0.09c0,-0.048 23.96,-0.089 53.52,-0.089c29.56,0 53.51,0.044 53.51,0.089z" fill="#263238"/>
</g>
<g id="Plant">
<path id="Vector_436" d="M102.3094,102.3654c-5.33,-3.723 -6.54,-10.635 -6.33,-16.849c0.04,-1.035 -0.08,-2.133 0.42,-3.04c0.49,-0.908 1.64,-1.532 2.57,-1.097c0.77,0.362 1.1,1.259 1.54,2.001c0.57,0.988 1.42,1.793 2.43,2.322c0.66,0.345 1.48,0.552 2.13,0.193c0.9,-0.493 1,-1.725 0.99,-2.76c0,-1.925 -0.01,-3.849 -0.03,-5.769c-0.06,-1.032 0.04,-2.067 0.31,-3.065c0.32,-0.98 1.03,-1.887 2.01,-2.163c0.98,-0.276 2.19,0.293 2.41,1.301c0.04,0.427 0.05,0.855 0.04,1.283c0.02,0.432 0.22,0.904 0.63,1.036c0.4,0.131 0.82,-0.169 1.13,-0.473c1.07,-1.035 1.79,-2.385 2.46,-3.716c0.68,-1.332 1.33,-2.702 2.3,-3.838c0.97,-1.135 2.3,-2.035 3.8,-2.122c1.49,-0.086 3.05,0.832 3.42,2.281c0.37,1.449 -0.47,2.93 -1.38,4.106c-1.37,1.747 -2.98,3.287 -4.79,4.572c-0.36,0.193 -0.64,0.495 -0.81,0.86c-0.22,0.69 0.43,1.38 1.11,1.597c0.77,0.256 1.6,0.176 2.42,0.273c0.81,0.097 1.67,0.448 1.98,1.208c0.42,1.055 -0.47,2.16 -1.33,2.884c-1.74,1.45 -3.72,2.59 -5.84,3.372c-0.76,0.276 -1.56,0.521 -2.17,1.052c-0.62,0.531 -0.98,1.46 -0.61,2.188c0.37,0.728 1.32,0.959 2.11,0.811c0.8,-0.149 1.51,-0.577 2.27,-0.863c1.42,-0.535 3.24,-0.438 4.14,0.787c0.27,0.422 0.45,0.902 0.51,1.403c0.06,0.501 0,1.009 -0.17,1.485c-0.34,0.946 -0.87,1.813 -1.56,2.55c-2.26,2.7 -5.2,4.752 -8.51,5.945c-3.29,1.139 -6.33,1.449 -9.6,0.252" fill="#4CAF4F"/>
<path id="Vector_437" d="M123.0194,66.4624c0,0 -0.03,0.034 -0.1,0.096l-0.31,0.273c-0.26,0.241 -0.66,0.593 -1.16,1.059c-1.42,1.317 -2.74,2.74 -3.94,4.255c-0.77,0.956 -1.57,2.039 -2.42,3.216c-0.85,1.176 -1.72,2.446 -2.59,3.795c-0.93,1.423 -1.78,2.895 -2.55,4.41c-0.4,0.79 -0.75,1.615 -1.11,2.457l-1.07,2.571c-1.41,3.238 -2.64,6.552 -3.68,9.927c-0.84,2.762 -1.41,5.595 -1.72,8.465c-0.2,1.936 -0.24,3.886 -0.1,5.828c0.05,0.69 0.11,1.218 0.15,1.577c0.03,0.172 0.04,0.31 0.05,0.41v0.142c-0.01,-0.045 -0.02,-0.092 -0.03,-0.138c-0.02,-0.1 -0.04,-0.235 -0.06,-0.408c-0.07,-0.345 -0.13,-0.89 -0.19,-1.58c-0.17,-1.945 -0.16,-3.902 0.03,-5.845c0.29,-2.882 0.86,-5.729 1.69,-8.503c1.03,-3.384 2.25,-6.707 3.67,-9.951l1.09,-2.56c0.37,-0.839 0.72,-1.671 1.13,-2.464c0.77,-1.52 1.62,-2.995 2.56,-4.42c0.88,-1.381 1.77,-2.63 2.61,-3.796c0.84,-1.166 1.65,-2.257 2.42,-3.209c1.21,-1.511 2.55,-2.924 3.99,-4.224c0.51,-0.459 0.92,-0.804 1.19,-1.035l0.32,-0.259c0.04,-0.034 0.09,-0.064 0.13,-0.089z" fill="#263238"/>
<path id="Vector_438" d="M109.8394,83.4874c-0.05,-0.142 -0.08,-0.289 -0.1,-0.438c-0.06,-0.287 -0.12,-0.69 -0.19,-1.215c-0.15,-1.035 -0.3,-2.453 -0.46,-4.023c-0.16,-1.57 -0.35,-2.992 -0.5,-4.017c-0.08,-0.51 -0.15,-0.921 -0.2,-1.207c-0.03,-0.147 -0.05,-0.298 -0.05,-0.449c0.06,0.138 0.1,0.283 0.12,0.431c0.08,0.283 0.17,0.69 0.26,1.205c0.2,1.035 0.39,2.443 0.55,4.016c0.17,1.574 0.3,2.954 0.41,4.027c0.05,0.483 0.1,0.894 0.13,1.221c0.03,0.148 0.04,0.299 0.03,0.449z" fill="#263238"/>
<path id="Vector_439" d="M123.1194,81.0094c-0.17,0.037 -0.34,0.058 -0.51,0.063c-0.35,0.031 -0.84,0.072 -1.45,0.141c-1.21,0.131 -2.88,0.373 -4.71,0.718c-1.83,0.345 -3.48,0.735 -4.66,1.035c-0.59,0.152 -1.07,0.29 -1.38,0.383c-0.17,0.06 -0.35,0.101 -0.52,0.124c0.16,-0.08 0.32,-0.146 0.5,-0.196c0.32,-0.114 0.79,-0.273 1.38,-0.442c1.17,-0.345 2.82,-0.756 4.66,-1.108c1.56,-0.298 3.13,-0.517 4.71,-0.655c0.61,-0.052 1.1,-0.073 1.45,-0.08c0.17,-0.012 0.35,-0.006 0.53,0.017z" fill="#263238"/>
<path id="Vector_440" d="M104.0794,98.2284c-0.04,-0.05 -0.07,-0.105 -0.09,-0.162l-0.23,-0.48c-0.2,-0.417 -0.46,-1.035 -0.78,-1.791c-0.64,-1.518 -1.46,-3.644 -2.33,-6.004c-0.87,-2.36 -1.67,-4.486 -2.28,-6.021c-0.29,-0.745 -0.54,-1.356 -0.72,-1.812l-0.19,-0.493c-0.03,-0.057 -0.05,-0.117 -0.06,-0.18c0.04,0.05 0.07,0.105 0.09,0.163l0.23,0.479c0.19,0.418 0.46,1.035 0.78,1.791c0.64,1.518 1.46,3.644 2.33,6.004c0.87,2.36 1.67,4.486 2.27,6.021c0.3,0.746 0.55,1.357 0.73,1.812c0.08,0.197 0.14,0.345 0.19,0.493c0.03,0.057 0.05,0.118 0.06,0.18z" fill="#263238"/>
<path id="Vector_441" d="M121.6994,92.5454c-0.05,0.032 -0.11,0.056 -0.17,0.072l-0.51,0.173l-1.89,0.611c-1.6,0.517 -3.8,1.256 -6.21,2.07c-2.42,0.814 -4.63,1.539 -6.23,2.022c-0.8,0.245 -1.46,0.431 -1.91,0.556l-0.52,0.134c-0.06,0.019 -0.12,0.032 -0.19,0.038c0.06,-0.032 0.12,-0.056 0.18,-0.072l0.51,-0.173l1.89,-0.611c1.59,-0.517 3.79,-1.256 6.21,-2.07c2.41,-0.814 4.62,-1.539 6.23,-2.022c0.8,-0.245 1.45,-0.431 1.91,-0.556l0.52,-0.134c0.06,-0.019 0.12,-0.032 0.18,-0.038z" fill="#263238"/>
</g>
<g id="Padlock">
<path id="Vector_442" d="M114.5094,8.8434l-1.77,0.635l-0.77,-2.322c-1.4,-4.282 -5.86,-6.556 -9.97,-5.11c-4.1,1.446 -6.28,6.142 -4.88,10.424l0.76,2.322l-1.78,0.639c-0.68,0.264 -1.24,0.779 -1.55,1.44c-0.31,0.661 -0.35,1.415 -0.12,2.107l4.95,15.11c0.1,0.342 0.27,0.661 0.5,0.936c0.23,0.275 0.51,0.502 0.83,0.666c0.31,0.165 0.66,0.264 1.02,0.291c0.35,0.028 0.71,-0.016 1.05,-0.13l18.42,-6.587c0.69,-0.263 1.25,-0.784 1.56,-1.452c0.31,-0.668 0.35,-1.431 0.12,-2.13l-4.95,-15.11c-0.11,-0.341 -0.28,-0.658 -0.51,-0.931c-0.23,-0.273 -0.51,-0.497 -0.83,-0.658c-0.32,-0.162 -0.67,-0.257 -1.03,-0.281c-0.35,-0.024 -0.71,0.024 -1.05,0.141zM100.4794,11.2594c-0.38,-1.114 -0.31,-2.33 0.18,-3.394c0.5,-1.065 1.4,-1.895 2.49,-2.317c0.54,-0.185 1.12,-0.26 1.69,-0.218c0.57,0.041 1.13,0.196 1.64,0.458c0.51,0.261 0.96,0.622 1.33,1.062c0.36,0.439 0.64,0.948 0.81,1.497l0.75,2.322l-8.14,2.912zM110.8294,24.6684l1.26,3.858c0.02,0.077 0.02,0.16 -0.02,0.232c-0.04,0.072 -0.1,0.127 -0.18,0.154l-1.77,0.632c-0.07,0.019 -0.14,0.011 -0.21,-0.024c-0.06,-0.035 -0.11,-0.093 -0.13,-0.163l-1.28,-3.84c-0.7,-0.038 -1.37,-0.29 -1.93,-0.722c-0.55,-0.432 -0.96,-1.023 -1.17,-1.694c-0.3,-0.887 -0.25,-1.856 0.15,-2.703c0.4,-0.848 1.11,-1.509 1.99,-1.845c0.43,-0.147 0.88,-0.206 1.34,-0.173c0.45,0.033 0.9,0.157 1.3,0.365c0.41,0.208 0.77,0.495 1.06,0.846c0.29,0.35 0.51,0.755 0.65,1.192c0.22,0.681 0.24,1.413 0.05,2.105c-0.19,0.692 -0.57,1.314 -1.11,1.79z" fill="#4CAF4F"/>
<path id="Vector_443" d="M112.6594,9.4374c0,0.048 -3.3,1.287 -7.4,2.761c-4.1,1.473 -7.44,2.656 -7.46,2.622c-0.02,-0.035 3.3,-1.284 7.4,-2.761c4.1,-1.476 7.44,-2.667 7.46,-2.622z" fill="#263238"/>
<path id="Vector_444" d="M116.5694,10.0724c0.01,0.03 0.03,0.061 0.04,0.093c0.02,0.069 0.06,0.159 0.1,0.269c0.09,0.252 0.21,0.601 0.37,1.035l1.32,3.858c0.55,1.636 1.21,3.575 1.94,5.728c0.35,1.08 0.76,2.205 1.14,3.389c0.2,0.61 0.29,1.252 0.25,1.894c-0.02,0.334 -0.12,0.659 -0.28,0.956c-0.16,0.296 -0.38,0.557 -0.65,0.769c-0.53,0.389 -1.12,0.691 -1.75,0.894l-1.78,0.638l-3.36,1.205l-5.7,2.029l-3.85,1.352l-1.03,0.345l-0.28,0.09c-0.03,0.013 -0.06,0.021 -0.09,0.024c0,0 0.03,0 0.09,-0.041l0.27,-0.107l1.03,-0.39l3.83,-1.408l5.68,-2.07l3.36,-1.215l1.78,-0.642c0.61,-0.194 1.18,-0.487 1.7,-0.866c0.25,-0.197 0.45,-0.439 0.61,-0.714c0.14,-0.275 0.23,-0.577 0.26,-0.887c0.03,-0.619 -0.06,-1.238 -0.25,-1.825c-0.38,-1.173 -0.77,-2.309 -1.12,-3.389c-0.72,-2.156 -1.38,-4.103 -1.91,-5.738c-0.52,-1.636 -0.97,-2.95 -1.27,-3.875c-0.14,-0.452 -0.25,-0.804 -0.34,-1.059l-0.09,-0.277c-0.01,-0.02 -0.02,-0.042 -0.02,-0.065z" fill="#263238"/>
<path id="Vector_445" d="M106.8494,5.3144c0,0 -0.18,-0.09 -0.52,-0.228c-0.48,-0.185 -0.99,-0.288 -1.51,-0.304c-0.76,-0.026 -1.52,0.118 -2.23,0.421c-0.85,0.378 -1.58,0.989 -2.1,1.763c-0.53,0.773 -0.81,1.685 -0.82,2.619c0.01,0.766 0.13,1.527 0.35,2.261c0.18,0.628 0.37,1.128 0.49,1.476c0.07,0.177 0.13,0.36 0.18,0.546c-0.1,-0.166 -0.18,-0.34 -0.25,-0.521c-0.14,-0.345 -0.34,-0.835 -0.54,-1.467c-0.25,-0.741 -0.38,-1.514 -0.4,-2.295c-0.01,-0.969 0.28,-1.919 0.83,-2.719c0.54,-0.802 1.3,-1.432 2.19,-1.815c0.73,-0.305 1.51,-0.439 2.3,-0.393c0.52,0.027 1.04,0.15 1.52,0.362c0.13,0.06 0.26,0.129 0.38,0.207c0.05,0.022 0.09,0.051 0.13,0.087z" fill="#263238"/>
<path id="Vector_446" d="M107.0094,18.8164c0.06,-0.034 0.11,-0.063 0.17,-0.087c0.18,-0.078 0.35,-0.141 0.54,-0.189c0.29,-0.086 0.59,-0.137 0.89,-0.152c0.41,-0.022 0.83,0.04 1.21,0.183c0.89,0.31 1.7,1.211 2.1,2.415c0.19,0.646 0.19,1.334 0,1.981c-0.22,0.701 -0.6,1.34 -1.11,1.86l0.02,-0.094c0.46,1.26 0.96,2.626 1.47,4.051l0.03,0.087l-0.08,0.031l-0.79,0.262l-1.73,0.576l-0.08,0.028l-0.03,-0.086c-0.47,-1.429 -0.99,-2.761 -1.38,-4.069l0.07,0.059c-0.67,-0.056 -1.31,-0.309 -1.84,-0.728c-0.49,-0.371 -0.88,-0.842 -1.16,-1.38c-0.25,-0.478 -0.38,-1.013 -0.37,-1.553c0.02,-0.552 0.16,-1.094 0.41,-1.587c0.25,-0.493 0.6,-0.924 1.04,-1.263c0.18,-0.146 0.38,-0.262 0.6,-0.345c-0.2,0.115 -0.39,0.241 -0.57,0.376c-0.48,0.405 -0.85,0.927 -1.07,1.515c-0.18,0.443 -0.27,0.922 -0.25,1.404c0.01,0.481 0.14,0.953 0.36,1.38c0.28,0.518 0.66,0.971 1.13,1.325c0.51,0.398 1.12,0.638 1.76,0.69h0.06l0.02,0.052c0.38,1.284 0.9,2.626 1.38,4.062l-0.11,-0.056l1.72,-0.576l0.79,-0.266l-0.06,0.118c-0.51,-1.425 -1.01,-2.795 -1.46,-4.055v-0.052l0.04,-0.041c0.5,-0.498 0.87,-1.11 1.09,-1.784c0.18,-0.618 0.18,-1.276 0,-1.894c-0.38,-1.16 -1.16,-2.04 -2,-2.35c-0.37,-0.144 -0.77,-0.211 -1.17,-0.197c-0.29,0.007 -0.59,0.048 -0.88,0.121c-0.51,0.128 -0.76,0.245 -0.76,0.228z" fill="#263238"/>
</g>
<g id="Device">
<path id="Vector_447" d="M96.3394,118.4484l-34.46,-0.158c-1.99,-0.011 -3.9,-0.812 -5.3,-2.226c-1.4,-1.414 -2.18,-3.327 -2.17,-5.317l0.36,-86.407c0.01,-0.986 0.2,-1.962 0.59,-2.871c0.38,-0.91 0.93,-1.735 1.63,-2.429c0.71,-0.694 1.54,-1.243 2.45,-1.616c0.91,-0.373 1.89,-0.563 2.87,-0.558l34.47,0.159c1.99,0.01 3.9,0.81 5.3,2.223c1.4,1.414 2.18,3.326 2.17,5.316l-0.36,86.403c-0.01,0.987 -0.2,1.963 -0.59,2.873c-0.38,0.91 -0.93,1.736 -1.63,2.43c-0.7,0.695 -1.54,1.245 -2.45,1.618c-0.91,0.374 -1.89,0.564 -2.88,0.56z" fill="#455A64"/>
<path id="Vector_448" d="M96.7294,19.9964h-6.68c-0.22,0.004 -0.44,0.051 -0.64,0.138c-0.2,0.087 -0.38,0.213 -0.53,0.37c-0.15,0.157 -0.27,0.342 -0.35,0.545c-0.08,0.203 -0.12,0.42 -0.11,0.638v1.211c0,0.218 -0.04,0.434 -0.12,0.637c-0.08,0.203 -0.19,0.388 -0.35,0.544c-0.15,0.157 -0.33,0.282 -0.53,0.369c-0.2,0.087 -0.41,0.134 -0.63,0.137l-13.02,-0.059c-0.44,-0.011 -0.86,-0.197 -1.16,-0.517c-0.31,-0.32 -0.47,-0.747 -0.46,-1.187v-1.211c0.01,-0.44 -0.15,-0.867 -0.46,-1.186c-0.3,-0.32 -0.72,-0.506 -1.16,-0.519h-2.35l-5.84,-0.027c-1.4,-0.009 -2.73,0.535 -3.72,1.51c-1,0.976 -1.56,2.305 -1.57,3.696l-0.35,84.34c0,0.69 0.13,1.374 0.39,2.013c0.26,0.639 0.65,1.22 1.13,1.71c0.49,0.49 1.07,0.88 1.7,1.147c0.64,0.267 1.32,0.406 2.01,0.409l34.4,0.159c0.69,0.003 1.37,-0.13 2.01,-0.391c0.64,-0.261 1.22,-0.646 1.71,-1.132c0.49,-0.486 0.88,-1.064 1.15,-1.701c0.27,-0.637 0.41,-1.32 0.41,-2.01l0.35,-84.34c0,-1.395 -0.54,-2.736 -1.52,-3.729c-0.98,-0.992 -2.32,-1.555 -3.71,-1.564z" fill="white"/>
<path id="Vector_449" d="M92.0994,103.6114l-25.58,-0.111c-0.26,0 -0.47,-0.289 -0.47,-0.641l0.03,-6.691c0,-0.345 0.21,-0.642 0.48,-0.642l25.58,0.117c0.14,0.026 0.27,0.107 0.36,0.227c0.09,0.121 0.13,0.27 0.11,0.419l-0.02,6.683c0,0.356 -0.22,0.642 -0.49,0.639z" fill="#4CAF4F"/>
<path id="SING UP" d="M74.2994,99.5304c-0.14,0 -0.28,-0.022 -0.41,-0.068c-0.12,-0.047 -0.22,-0.106 -0.3,-0.179l0.08,-0.155c0.07,0.066 0.16,0.121 0.27,0.166c0.12,0.043 0.24,0.065 0.36,0.065c0.12,0 0.22,-0.014 0.29,-0.043c0.08,-0.031 0.13,-0.072 0.17,-0.122c0.03,-0.051 0.05,-0.107 0.05,-0.169c0,-0.074 -0.02,-0.134 -0.06,-0.179c-0.05,-0.045 -0.1,-0.08 -0.17,-0.106c-0.07,-0.027 -0.14,-0.05 -0.23,-0.07c-0.08,-0.02 -0.16,-0.041 -0.25,-0.063c-0.08,-0.023 -0.16,-0.054 -0.23,-0.092c-0.07,-0.038 -0.12,-0.088 -0.17,-0.149c-0.04,-0.064 -0.06,-0.146 -0.06,-0.247c0,-0.095 0.03,-0.181 0.07,-0.258c0.06,-0.08 0.13,-0.143 0.24,-0.19c0.1,-0.049 0.23,-0.074 0.39,-0.074c0.11,0 0.21,0.016 0.32,0.046c0.1,0.029 0.19,0.07 0.27,0.123l-0.07,0.16c-0.08,-0.055 -0.17,-0.094 -0.26,-0.12c-0.09,-0.025 -0.18,-0.038 -0.26,-0.038c-0.12,0 -0.21,0.016 -0.28,0.046c-0.08,0.031 -0.13,0.073 -0.17,0.125c-0.03,0.051 -0.05,0.109 -0.05,0.174c0,0.074 0.02,0.134 0.06,0.179c0.05,0.046 0.1,0.081 0.17,0.106c0.07,0.026 0.15,0.048 0.23,0.068c0.08,0.02 0.17,0.042 0.25,0.065c0.08,0.024 0.16,0.054 0.23,0.092c0.07,0.037 0.12,0.086 0.16,0.147c0.05,0.062 0.07,0.142 0.07,0.242c0,0.092 -0.03,0.178 -0.08,0.258c-0.05,0.077 -0.13,0.141 -0.23,0.19c-0.1,0.047 -0.24,0.07 -0.4,0.07zM75.4494,99.5144v-1.9h0.2v1.9zM76.2694,99.5144v-1.9h0.16l1.31,1.65h-0.08v-1.65h0.19v1.9h-0.16l-1.31,-1.651h0.09v1.651zM79.3094,99.5304c-0.15,0 -0.28,-0.023 -0.4,-0.07c-0.12,-0.049 -0.23,-0.117 -0.32,-0.204c-0.09,-0.087 -0.16,-0.189 -0.21,-0.307c-0.05,-0.117 -0.07,-0.246 -0.07,-0.385c0,-0.14 0.02,-0.268 0.07,-0.386c0.05,-0.117 0.12,-0.22 0.21,-0.307c0.09,-0.086 0.2,-0.153 0.32,-0.2c0.12,-0.049 0.26,-0.074 0.4,-0.074c0.15,0 0.28,0.023 0.4,0.068c0.12,0.045 0.22,0.114 0.31,0.206l-0.13,0.128c-0.08,-0.08 -0.17,-0.137 -0.26,-0.171c-0.1,-0.034 -0.2,-0.052 -0.31,-0.052c-0.12,0 -0.23,0.02 -0.33,0.06c-0.09,0.038 -0.18,0.093 -0.25,0.166c-0.08,0.07 -0.13,0.154 -0.18,0.25c-0.04,0.094 -0.06,0.198 -0.06,0.312c0,0.112 0.02,0.216 0.06,0.312c0.05,0.096 0.1,0.18 0.18,0.252c0.07,0.071 0.16,0.126 0.25,0.166c0.1,0.038 0.21,0.057 0.33,0.057c0.1,0 0.21,-0.016 0.3,-0.049c0.1,-0.032 0.19,-0.088 0.27,-0.165l0.12,0.152c-0.09,0.079 -0.2,0.14 -0.32,0.181c-0.12,0.04 -0.25,0.06 -0.38,0.06zM79.8094,99.2644v-0.7h0.2v0.725zM82.0494,99.5304c-0.24,0 -0.43,-0.069 -0.57,-0.209c-0.14,-0.139 -0.21,-0.345 -0.21,-0.619v-1.088h0.2v1.08c0,0.224 0.05,0.39 0.15,0.497c0.1,0.107 0.25,0.16 0.43,0.16c0.19,0 0.33,-0.053 0.43,-0.16c0.1,-0.107 0.15,-0.273 0.15,-0.497v-1.08h0.2v1.088c0,0.274 -0.07,0.48 -0.21,0.619c-0.14,0.14 -0.33,0.209 -0.57,0.209zM83.4294,99.5144v-1.9h0.72c0.16,0 0.3,0.026 0.41,0.078c0.12,0.051 0.21,0.125 0.27,0.223c0.06,0.096 0.09,0.213 0.09,0.35c0,0.134 -0.03,0.25 -0.09,0.348c-0.06,0.096 -0.15,0.17 -0.27,0.222c-0.11,0.053 -0.25,0.079 -0.41,0.079h-0.6l0.09,-0.095v0.695zM83.6394,98.8354l-0.09,-0.097h0.59c0.19,0 0.33,-0.041 0.43,-0.123c0.1,-0.083 0.15,-0.2 0.15,-0.35c0,-0.152 -0.05,-0.27 -0.15,-0.353c-0.1,-0.083 -0.24,-0.125 -0.43,-0.125h-0.59l0.09,-0.095z" fill="#E8E8E3"/>
<path id="Vector_450" d="M71.6294,44.7884l-8.88,-0.04l-0.01,1.629l8.88,0.04z" fill="#4CAF4F"/>
<path id="Vector_451" opacity="0.1" d="M71.6294,44.7884l-8.88,-0.04l-0.01,1.629l8.88,0.04z" fill="black"/>
<path id="Vector_452" d="M97.6394,54.7884c0.07,-0.007 0.14,-0.023 0.21,-0.048c0.09,-0.037 0.17,-0.101 0.24,-0.183c0.06,-0.083 0.09,-0.181 0.1,-0.283c0,-0.549 0,-1.349 0,-2.377c0,-0.514 0,-1.091 0,-1.726c0,-0.155 0,-0.317 0,-0.479c0.02,-0.158 -0.01,-0.318 -0.1,-0.452c-0.04,-0.065 -0.11,-0.117 -0.18,-0.154c-0.07,-0.036 -0.15,-0.056 -0.23,-0.057h-0.53h-4.99l-28.86,-0.107c-0.08,-0.001 -0.15,0.016 -0.21,0.049c-0.07,0.033 -0.13,0.081 -0.17,0.141c-0.08,0.135 -0.12,0.296 -0.09,0.452c0,0.345 0,0.69 0,1.035c0,0.69 0,1.38 0,2.071c0,0.345 0,0.69 0,1.035c-0.02,0.16 -0.02,0.322 0,0.483c0.02,0.069 0.05,0.133 0.1,0.186c0.04,0.054 0.1,0.097 0.17,0.124c0.07,0.027 0.14,0.04 0.21,0.038h1.76l7.66,0.042l12.98,0.079l8.74,0.069l2.38,0.028h0.62c0.14,0 0.21,0 0.21,0h-0.21h-0.62h-2.38h-8.74l-12.98,-0.042l-7.66,-0.031h-1.76c-0.09,0.004 -0.19,-0.012 -0.28,-0.048c-0.09,-0.039 -0.17,-0.098 -0.24,-0.173c-0.06,-0.074 -0.11,-0.163 -0.13,-0.258c-0.02,-0.091 -0.03,-0.184 -0.02,-0.276v-0.256c0,-0.345 0,-0.69 0,-1.035c0,-0.69 0,-1.38 0,-2.07c0,-0.345 0,-0.69 0,-1.035c-0.01,-0.092 -0.01,-0.185 0,-0.276c0.01,-0.102 0.05,-0.198 0.11,-0.28c0.06,-0.083 0.14,-0.151 0.23,-0.197c0.09,-0.046 0.19,-0.07 0.29,-0.069l28.87,0.159l4.98,0.035h0.54c0.09,0 0.19,0.023 0.27,0.066c0.09,0.044 0.16,0.108 0.21,0.185c0.1,0.15 0.14,0.331 0.11,0.508c0,0.162 0,0.324 0,0.479c0,0.628 0,1.205 0,1.726c0,1.035 -0.02,1.828 -0.03,2.381c-0.01,0.106 -0.05,0.207 -0.11,0.292c-0.06,0.085 -0.15,0.15 -0.25,0.187c-0.07,0.041 -0.14,0.062 -0.22,0.062z" fill="#E0E0E0"/>
<path id="Vector_453" d="M81.6494,50.6544h-16.23v1.522h16.23z" fill="#4CAF4F"/>
<path id="Vector_454" opacity="0.2" d="M81.6494,50.6544h-16.23v1.522h16.23z" fill="white"/>
<path id="Vector_455" d="M71.5694,59.6464l-8.88,-0.04l-0.01,1.629l8.88,0.04z" fill="#4CAF4F"/>
<path id="Vector_456" opacity="0.1" d="M71.5694,59.6464l-8.88,-0.04l-0.01,1.629l8.88,0.04z" fill="black"/>
<path id="Vector_457" d="M97.4194,69.6474c0.07,-0.009 0.14,-0.022 0.2,-0.038c0.1,-0.031 0.19,-0.082 0.27,-0.15c0.07,-0.068 0.13,-0.151 0.17,-0.244c0.05,-0.139 0.08,-0.289 0.06,-0.438c0,-0.166 0,-0.345 0,-0.545c0,-0.401 0,-0.856 0,-1.38v-2.192c0.02,-0.158 -0.02,-0.318 -0.1,-0.455c-0.08,-0.141 -0.22,-0.245 -0.37,-0.293c-0.18,-0.031 -0.35,-0.04 -0.53,-0.028h-4.96l-28.76,-0.107c-0.16,0 -0.31,0.057 -0.42,0.159c-0.12,0.102 -0.19,0.243 -0.21,0.397c0,0.327 0,0.69 0,1.035c0,0.69 0,1.38 0,2.07c0,0.345 0,0.69 0,1.035c-0.02,0.162 -0.01,0.324 0.02,0.483c0.04,0.14 0.13,0.262 0.25,0.345c0.13,0.081 0.28,0.12 0.43,0.111h0.48h0.99l7.64,0.038l12.93,0.079l8.72,0.069l2.37,0.028h-2.37h-8.72l-12.94,-0.014l-7.63,-0.028h-1.5c-0.19,0.011 -0.38,-0.038 -0.53,-0.141c-0.16,-0.109 -0.27,-0.269 -0.33,-0.452c-0.03,-0.175 -0.04,-0.354 -0.02,-0.532c0,-0.345 0,-0.69 0,-1.035c0,-0.69 0,-1.38 0,-2.07c0,-0.345 0,-0.69 0,-1.035c0.02,-0.198 0.12,-0.379 0.27,-0.51c0.15,-0.132 0.34,-0.204 0.54,-0.204l28.76,0.158l4.96,0.038c0.19,-0.011 0.37,0.002 0.56,0.038c0.17,0.059 0.33,0.182 0.42,0.345c0.09,0.152 0.13,0.329 0.11,0.504c0,0.162 0,0.321 0,0.48c0,0.624 0,1.197 0,1.725c0,0.528 0,0.973 0,1.38c0,0.197 0,0.38 0,0.549c0.01,0.154 -0.01,0.309 -0.07,0.452c-0.05,0.095 -0.11,0.179 -0.19,0.247c-0.08,0.068 -0.18,0.118 -0.28,0.146c-0.07,0.006 -0.15,-0.001 -0.22,-0.02z" fill="#E0E0E0"/>
<path id="Vector_458" d="M71.4994,75.1494l-8.88,-0.04v1.629l8.87,0.04z" fill="#4CAF4F"/>
<path id="Vector_459" opacity="0.1" d="M71.4994,75.1494l-8.88,-0.04v1.629l8.87,0.04z" fill="black"/>
<path id="Vector_460" d="M97.3494,85.1434c0.07,-0.008 0.14,-0.021 0.21,-0.038c0.09,-0.03 0.18,-0.081 0.26,-0.148c0.07,-0.067 0.13,-0.15 0.17,-0.242c0.05,-0.139 0.08,-0.289 0.06,-0.438c0,-0.169 0,-0.345 0,-0.549c0,-0.396 0,-0.855 0,-1.38v-2.191c0.02,-0.159 -0.02,-0.318 -0.1,-0.455c-0.08,-0.139 -0.22,-0.241 -0.37,-0.29c-0.18,-0.032 -0.35,-0.043 -0.52,-0.031h-4.97l-28.76,-0.107c-0.16,0 -0.3,0.057 -0.42,0.159c-0.12,0.102 -0.19,0.243 -0.21,0.396c0,0.345 0,0.69 0,1.035c0,0.691 0,1.381 0,2.071c0,0.345 0,0.69 0,1.035c-0.01,0.16 -0.01,0.321 0.02,0.48c0.04,0.14 0.13,0.262 0.25,0.345c0.13,0.082 0.28,0.121 0.43,0.11h1.5l7.64,0.041l12.93,0.08l8.71,0.069l2.37,0.027h-2.37h-8.71l-12.93,-0.038l-7.64,-0.031h-1.5c-0.19,0.013 -0.37,-0.037 -0.53,-0.141c-0.16,-0.109 -0.27,-0.268 -0.32,-0.452c-0.03,-0.175 -0.04,-0.354 -0.03,-0.531c0,-0.346 0,-0.691 0,-1.036c0,-0.69 0,-1.38 0,-2.07c0,-0.345 0,-0.69 0,-1.052c0.02,-0.197 0.12,-0.379 0.27,-0.51c0.15,-0.132 0.34,-0.205 0.54,-0.205l28.76,0.159l4.96,0.038c0.19,-0.011 0.37,0.001 0.55,0.038c0.18,0.059 0.33,0.181 0.43,0.345c0.09,0.152 0.13,0.328 0.11,0.504c0,0.162 0,0.324 0,0.479c0,0.625 0,1.198 0,1.726c0,0.528 0,0.973 0,1.38c0,0.197 0,0.38 0,0.549c0.01,0.154 -0.01,0.309 -0.07,0.452c-0.05,0.095 -0.11,0.179 -0.19,0.247c-0.08,0.068 -0.18,0.118 -0.28,0.146c-0.08,0.028 -0.17,0.036 -0.25,0.024z" fill="#E0E0E0"/>
<path id="Vector_461" d="M81.2994,65.9434l-16.23,-0.074l-0.01,1.522l16.24,0.074z" fill="#4CAF4F"/>
<path id="Vector_462" opacity="0.2" d="M81.2994,65.9434l-16.23,-0.074l-0.01,1.522l16.24,0.074z" fill="white"/>
<path id="Vector_463" d="M66.5394,82.3284c-0.01,0.138 -0.06,0.271 -0.15,0.381c-0.08,0.111 -0.2,0.193 -0.33,0.239c-0.13,0.045 -0.27,0.051 -0.41,0.016c-0.13,-0.035 -0.25,-0.108 -0.35,-0.211c-0.09,-0.104 -0.15,-0.232 -0.17,-0.37c-0.02,-0.137 0,-0.278 0.05,-0.404c0.06,-0.127 0.16,-0.233 0.27,-0.307c0.12,-0.073 0.26,-0.111 0.4,-0.107c0.19,0.011 0.37,0.097 0.5,0.24c0.13,0.142 0.2,0.33 0.19,0.523z" fill="#4CAF4F"/>
<path id="Vector_464" d="M68.7394,82.3384c0,0.097 -0.01,0.195 -0.04,0.287c-0.04,0.092 -0.09,0.176 -0.15,0.247c-0.07,0.071 -0.15,0.128 -0.24,0.167c-0.09,0.039 -0.19,0.059 -0.28,0.059c-0.1,0 -0.2,-0.02 -0.29,-0.059c-0.09,-0.039 -0.17,-0.096 -0.23,-0.167c-0.07,-0.071 -0.12,-0.155 -0.15,-0.247c-0.04,-0.092 -0.05,-0.19 -0.04,-0.287c-0.01,-0.097 0,-0.195 0.04,-0.287c0.03,-0.092 0.08,-0.176 0.15,-0.247c0.06,-0.072 0.14,-0.129 0.23,-0.168c0.09,-0.038 0.19,-0.058 0.29,-0.058c0.09,0 0.19,0.02 0.28,0.058c0.09,0.039 0.17,0.096 0.24,0.168c0.06,0.071 0.11,0.155 0.15,0.247c0.03,0.092 0.04,0.19 0.04,0.287z" fill="#4CAF4F"/>
<path id="Vector_465" d="M70.9394,82.3484c-0.01,0.139 -0.06,0.272 -0.15,0.382c-0.08,0.11 -0.2,0.193 -0.33,0.238c-0.13,0.046 -0.27,0.051 -0.41,0.017c-0.13,-0.035 -0.25,-0.109 -0.35,-0.212c-0.09,-0.103 -0.15,-0.231 -0.17,-0.369c-0.02,-0.138 0,-0.278 0.05,-0.405c0.06,-0.126 0.16,-0.233 0.27,-0.306c0.12,-0.074 0.26,-0.111 0.4,-0.107c0.19,0.011 0.37,0.098 0.5,0.24c0.13,0.143 0.2,0.33 0.19,0.522z" fill="#4CAF4F"/>
<path id="Vector_466" d="M73.1394,82.3594c-0.01,0.138 -0.06,0.271 -0.15,0.381c-0.08,0.111 -0.2,0.193 -0.33,0.239c-0.13,0.045 -0.28,0.051 -0.41,0.016c-0.13,-0.035 -0.26,-0.108 -0.35,-0.211c-0.09,-0.104 -0.15,-0.232 -0.18,-0.37c-0.02,-0.137 0,-0.278 0.06,-0.404c0.06,-0.127 0.15,-0.233 0.27,-0.307c0.12,-0.073 0.26,-0.111 0.4,-0.107c0.19,0.012 0.37,0.098 0.5,0.24c0.13,0.143 0.19,0.33 0.19,0.523z" fill="#4CAF4F"/>
<path id="Vector_467" d="M75.3294,82.3654c-0.01,0.139 -0.06,0.273 -0.14,0.383c-0.08,0.111 -0.2,0.195 -0.33,0.24c-0.13,0.046 -0.28,0.052 -0.41,0.018c-0.14,-0.035 -0.26,-0.108 -0.35,-0.211c-0.09,-0.103 -0.16,-0.231 -0.18,-0.369c-0.02,-0.138 0,-0.279 0.06,-0.405c0.06,-0.127 0.15,-0.234 0.27,-0.307c0.12,-0.074 0.25,-0.111 0.39,-0.108c0.2,0.012 0.37,0.098 0.5,0.24c0.13,0.141 0.2,0.328 0.19,0.519z" fill="#4CAF4F"/>
<path id="Vector_468" d="M77.5394,82.3764c-0.01,0.138 -0.06,0.271 -0.15,0.381c-0.08,0.111 -0.2,0.194 -0.33,0.24c-0.13,0.047 -0.27,0.054 -0.4,0.021c-0.14,-0.033 -0.26,-0.104 -0.35,-0.206c-0.1,-0.101 -0.16,-0.228 -0.18,-0.365c-0.03,-0.136 -0.01,-0.277 0.05,-0.404c0.05,-0.127 0.14,-0.235 0.26,-0.311c0.11,-0.075 0.25,-0.116 0.39,-0.115c0.19,0.007 0.38,0.091 0.51,0.233c0.13,0.142 0.2,0.331 0.2,0.526z" fill="#4CAF4F"/>
<path id="Vector_469" d="M79.7294,82.3864c0.01,0.097 0,0.195 -0.04,0.287c-0.03,0.092 -0.08,0.176 -0.15,0.247c-0.06,0.072 -0.14,0.129 -0.23,0.168c-0.09,0.038 -0.19,0.059 -0.29,0.059c-0.09,0 -0.19,-0.021 -0.28,-0.059c-0.09,-0.039 -0.17,-0.096 -0.24,-0.168c-0.06,-0.071 -0.11,-0.155 -0.15,-0.247c-0.03,-0.092 -0.04,-0.19 -0.03,-0.287c-0.01,-0.097 0,-0.195 0.03,-0.287c0.04,-0.092 0.09,-0.176 0.15,-0.247c0.07,-0.071 0.15,-0.128 0.24,-0.167c0.09,-0.039 0.19,-0.059 0.28,-0.059c0.1,0 0.2,0.02 0.29,0.059c0.09,0.039 0.17,0.096 0.23,0.167c0.07,0.071 0.12,0.155 0.15,0.247c0.04,0.092 0.05,0.19 0.04,0.287z" fill="#4CAF4F"/>
<path id="Vector_470" d="M81.9294,82.3964c-0.01,0.139 -0.06,0.271 -0.14,0.382c-0.08,0.11 -0.2,0.194 -0.33,0.24c-0.13,0.046 -0.27,0.054 -0.41,0.021c-0.13,-0.033 -0.25,-0.105 -0.35,-0.206c-0.09,-0.102 -0.15,-0.228 -0.18,-0.365c-0.02,-0.137 0,-0.277 0.05,-0.404c0.06,-0.127 0.15,-0.235 0.26,-0.311c0.12,-0.076 0.26,-0.116 0.39,-0.116c0.2,0.008 0.38,0.091 0.51,0.234c0.14,0.142 0.21,0.331 0.2,0.525z" fill="#4CAF4F"/>
<path id="Vector_471" d="M84.1294,82.4074c-0.01,0.139 -0.06,0.272 -0.14,0.383c-0.09,0.11 -0.2,0.194 -0.34,0.24c-0.13,0.045 -0.27,0.052 -0.4,0.017c-0.14,-0.034 -0.26,-0.107 -0.36,-0.211c-0.09,-0.103 -0.15,-0.231 -0.17,-0.369c-0.02,-0.137 0,-0.278 0.05,-0.405c0.06,-0.127 0.16,-0.233 0.27,-0.307c0.12,-0.074 0.26,-0.111 0.4,-0.107c0.19,0.011 0.37,0.097 0.5,0.239c0.13,0.142 0.2,0.328 0.19,0.52z" fill="#4CAF4F"/>
<g id="Group_16" opacity="0.2">
<path id="Vector_472" d="M66.5394,82.3284c-0.01,0.138 -0.06,0.271 -0.15,0.381c-0.08,0.111 -0.2,0.193 -0.33,0.239c-0.13,0.045 -0.27,0.051 -0.41,0.016c-0.13,-0.035 -0.25,-0.108 -0.35,-0.211c-0.09,-0.104 -0.15,-0.232 -0.17,-0.37c-0.02,-0.137 0,-0.278 0.05,-0.404c0.06,-0.127 0.16,-0.233 0.27,-0.307c0.12,-0.073 0.26,-0.111 0.4,-0.107c0.19,0.011 0.37,0.097 0.5,0.24c0.13,0.142 0.2,0.33 0.19,0.523z" fill="white"/>
<path id="Vector_473" d="M68.7394,82.3384c0,0.097 -0.01,0.195 -0.04,0.287c-0.04,0.092 -0.09,0.176 -0.15,0.247c-0.07,0.071 -0.15,0.128 -0.24,0.167c-0.09,0.039 -0.19,0.059 -0.28,0.059c-0.1,0 -0.2,-0.02 -0.29,-0.059c-0.09,-0.039 -0.17,-0.096 -0.23,-0.167c-0.07,-0.071 -0.12,-0.155 -0.15,-0.247c-0.04,-0.092 -0.05,-0.19 -0.04,-0.287c-0.01,-0.097 0,-0.195 0.04,-0.287c0.03,-0.092 0.08,-0.176 0.15,-0.247c0.06,-0.072 0.14,-0.129 0.23,-0.168c0.09,-0.038 0.19,-0.058 0.29,-0.058c0.09,0 0.19,0.02 0.28,0.058c0.09,0.039 0.17,0.096 0.24,0.168c0.06,0.071 0.11,0.155 0.15,0.247c0.03,0.092 0.04,0.19 0.04,0.287z" fill="white"/>
<path id="Vector_474" d="M70.9394,82.3484c-0.01,0.139 -0.06,0.272 -0.15,0.382c-0.08,0.11 -0.2,0.193 -0.33,0.238c-0.13,0.046 -0.27,0.051 -0.41,0.017c-0.13,-0.035 -0.25,-0.109 -0.35,-0.212c-0.09,-0.103 -0.15,-0.231 -0.17,-0.369c-0.02,-0.137 0,-0.278 0.05,-0.405c0.06,-0.126 0.16,-0.233 0.27,-0.306c0.12,-0.074 0.26,-0.111 0.4,-0.107c0.19,0.011 0.37,0.098 0.5,0.24c0.13,0.143 0.2,0.33 0.19,0.522z" fill="white"/>
<path id="Vector_475" d="M73.1394,82.3594c-0.01,0.138 -0.06,0.271 -0.15,0.381c-0.08,0.111 -0.2,0.193 -0.33,0.239c-0.13,0.045 -0.28,0.051 -0.41,0.016c-0.13,-0.035 -0.26,-0.108 -0.35,-0.211c-0.09,-0.104 -0.15,-0.232 -0.18,-0.37c-0.02,-0.137 0,-0.278 0.06,-0.404c0.06,-0.127 0.15,-0.233 0.27,-0.307c0.12,-0.073 0.26,-0.111 0.4,-0.107c0.19,0.012 0.37,0.098 0.5,0.24c0.13,0.143 0.19,0.33 0.19,0.523z" fill="white"/>
<path id="Vector_476" d="M75.3294,82.3654c-0.01,0.139 -0.06,0.273 -0.14,0.383c-0.08,0.111 -0.2,0.195 -0.33,0.24c-0.13,0.046 -0.28,0.052 -0.41,0.018c-0.14,-0.035 -0.26,-0.108 -0.35,-0.211c-0.09,-0.103 -0.16,-0.231 -0.18,-0.369c-0.02,-0.138 0,-0.279 0.06,-0.405c0.06,-0.127 0.15,-0.234 0.27,-0.307c0.12,-0.074 0.25,-0.111 0.39,-0.108c0.2,0.012 0.37,0.098 0.5,0.24c0.13,0.141 0.2,0.328 0.19,0.519z" fill="white"/>
<path id="Vector_477" d="M77.5394,82.3764c-0.01,0.138 -0.06,0.271 -0.15,0.381c-0.08,0.111 -0.2,0.194 -0.33,0.24c-0.13,0.047 -0.27,0.054 -0.4,0.021c-0.14,-0.033 -0.26,-0.104 -0.35,-0.206c-0.1,-0.101 -0.16,-0.228 -0.18,-0.365c-0.03,-0.136 -0.01,-0.277 0.04,-0.404c0.06,-0.127 0.15,-0.235 0.27,-0.311c0.11,-0.075 0.25,-0.116 0.39,-0.115c0.19,0.007 0.38,0.091 0.51,0.233c0.13,0.142 0.2,0.331 0.2,0.526z" fill="white"/>
<path id="Vector_478" d="M79.7294,82.3864c0.01,0.097 0,0.195 -0.04,0.287c-0.03,0.092 -0.08,0.176 -0.15,0.247c-0.06,0.072 -0.14,0.129 -0.23,0.168c-0.09,0.038 -0.19,0.059 -0.29,0.059c-0.09,0 -0.19,-0.021 -0.28,-0.059c-0.09,-0.039 -0.17,-0.096 -0.24,-0.168c-0.06,-0.071 -0.11,-0.155 -0.15,-0.247c-0.03,-0.092 -0.04,-0.19 -0.03,-0.287c-0.01,-0.097 0,-0.195 0.03,-0.287c0.04,-0.092 0.09,-0.176 0.15,-0.247c0.07,-0.071 0.15,-0.128 0.24,-0.167c0.09,-0.039 0.19,-0.059 0.28,-0.059c0.1,0 0.2,0.02 0.29,0.059c0.09,0.039 0.17,0.096 0.23,0.167c0.07,0.071 0.12,0.155 0.15,0.247c0.04,0.092 0.05,0.19 0.04,0.287z" fill="white"/>
<path id="Vector_479" d="M81.9294,82.3974c-0.01,0.138 -0.06,0.27 -0.14,0.381c-0.08,0.11 -0.2,0.194 -0.33,0.24c-0.13,0.047 -0.27,0.054 -0.41,0.021c-0.13,-0.033 -0.25,-0.105 -0.35,-0.206c-0.09,-0.102 -0.15,-0.228 -0.18,-0.365c-0.02,-0.137 0,-0.277 0.05,-0.404c0.06,-0.127 0.15,-0.235 0.26,-0.311c0.12,-0.076 0.26,-0.116 0.39,-0.116c0.2,0.008 0.38,0.092 0.51,0.234c0.14,0.142 0.21,0.331 0.2,0.526z" fill="white"/>
<path id="Vector_480" d="M84.1294,82.4074c-0.01,0.139 -0.06,0.272 -0.14,0.383c-0.09,0.11 -0.2,0.194 -0.34,0.24c-0.13,0.045 -0.27,0.052 -0.4,0.017c-0.14,-0.034 -0.26,-0.107 -0.36,-0.211c-0.09,-0.103 -0.15,-0.231 -0.17,-0.369c-0.02,-0.137 0,-0.278 0.05,-0.405c0.06,-0.127 0.16,-0.233 0.27,-0.307c0.12,-0.074 0.26,-0.111 0.4,-0.107c0.19,0.011 0.37,0.097 0.5,0.239c0.13,0.142 0.2,0.328 0.19,0.52z" fill="white"/>
</g>
<path id="Vector_481" d="M81.0094,32.5944c0.24,-0.106 0.44,-0.279 0.58,-0.499c0.14,-0.221 0.22,-0.478 0.21,-0.74c0.01,-0.17 -0.01,-0.34 -0.07,-0.5c-0.06,-0.16 -0.15,-0.306 -0.27,-0.43c-0.12,-0.124 -0.26,-0.222 -0.41,-0.29c-0.16,-0.067 -0.33,-0.102 -0.5,-0.102c-0.17,0 -0.34,0.035 -0.5,0.102c-0.15,0.068 -0.29,0.166 -0.41,0.29c-0.12,0.124 -0.21,0.27 -0.27,0.43c-0.06,0.16 -0.08,0.33 -0.07,0.5c-0.01,0.265 0.06,0.525 0.21,0.748c0.14,0.223 0.34,0.399 0.59,0.505c-1.94,0.29 -1.85,2.388 -1.85,2.388l4.57,0.02c0,0 0.11,-2.136 -1.81,-2.422z" fill="#4CAF4F"/>
<path id="Vector_482" opacity="0.1" d="M81.0094,32.5944c0.24,-0.106 0.44,-0.279 0.58,-0.499c0.14,-0.221 0.22,-0.478 0.21,-0.74c0.01,-0.17 -0.01,-0.34 -0.07,-0.5c-0.06,-0.16 -0.15,-0.306 -0.27,-0.43c-0.12,-0.124 -0.26,-0.222 -0.41,-0.29c-0.16,-0.067 -0.33,-0.102 -0.5,-0.102c-0.17,0 -0.34,0.035 -0.5,0.102c-0.15,0.068 -0.29,0.166 -0.41,0.29c-0.12,0.124 -0.21,0.27 -0.27,0.43c-0.06,0.16 -0.08,0.33 -0.07,0.5c-0.01,0.265 0.06,0.525 0.21,0.748c0.14,0.223 0.34,0.399 0.59,0.505c-1.94,0.29 -1.85,2.388 -1.85,2.388l4.57,0.02c0,0 0.11,-2.136 -1.81,-2.422z" fill="black"/>
<path id="Vector_483" d="M88.4294,36.3694l-16.28,-0.073l-0.01,1.946l16.28,0.074z" fill="#4CAF4F"/>
<path id="Vector_484" opacity="0.2" d="M88.4294,36.3694l-16.28,-0.073l-0.01,1.946l16.28,0.074z" fill="white"/>
</g>
<g id="speech-bubble">
<path id="Vector_485" d="M28.5694,46.4554h-0.16l-0.47,0.035c-0.26,0.015 -0.51,0.048 -0.76,0.1c-0.16,0.022 -0.32,0.053 -0.48,0.093l-0.53,0.148c-0.91,0.28 -1.77,0.705 -2.55,1.26c-1.02,0.742 -1.87,1.692 -2.5,2.788c-0.37,0.631 -0.67,1.304 -0.88,2.005c-0.22,0.761 -0.35,1.546 -0.38,2.339c-0.02,0.416 -0.01,0.834 0.02,1.249c0,0.211 0.06,0.421 0.09,0.635c0.02,0.216 0.06,0.429 0.12,0.638c0.31,1.385 0.94,2.678 1.84,3.776c0.89,1.098 2.04,1.971 3.33,2.549c0.94,0.405 1.95,0.631 2.97,0.666c1.05,0.058 2.11,-0.093 3.1,-0.445l0.31,-0.114h0.04l0.03,0.021l4.35,2.208l-0.12,0.111c-0.47,-1.442 -0.92,-2.84 -1.35,-4.182v-0.052l0.03,-0.038c1.06,-1.063 1.84,-2.365 2.29,-3.796c0.4,-1.307 0.52,-2.687 0.34,-4.044c-0.15,-1.206 -0.54,-2.37 -1.14,-3.43c-0.51,-0.909 -1.18,-1.726 -1.97,-2.415c-0.64,-0.545 -1.36,-1.003 -2.13,-1.36c-0.58,-0.25 -1.19,-0.441 -1.81,-0.569l-0.69,-0.114l-0.5,-0.038l-0.3,-0.02h-0.11c0.04,-0.004 0.07,-0.004 0.11,0h0.3l0.5,0.02l0.69,0.1c0.63,0.119 1.25,0.303 1.84,0.549c0.78,0.353 1.51,0.809 2.17,1.356c0.8,0.686 1.48,1.503 2.01,2.415c0.61,1.071 1.01,2.251 1.17,3.475c0.2,1.378 0.09,2.781 -0.32,4.113c-0.44,1.461 -1.24,2.79 -2.31,3.875l0.02,-0.089c0.43,1.342 0.88,2.739 1.35,4.178l0.07,0.211l-0.2,-0.1l-4.35,-2.205h0.08l-0.32,0.114c-1.01,0.357 -2.08,0.512 -3.16,0.455c-1.04,-0.04 -2.07,-0.274 -3.03,-0.69c-1.82,-0.782 -3.34,-2.141 -4.32,-3.868c-0.45,-0.798 -0.78,-1.659 -0.98,-2.554c-0.05,-0.214 -0.09,-0.432 -0.12,-0.652c-0.02,-0.217 -0.07,-0.431 -0.08,-0.645c-0.09,-1.228 0.04,-2.462 0.38,-3.644c0.22,-0.71 0.52,-1.391 0.9,-2.029c0.65,-1.105 1.52,-2.062 2.56,-2.805c0.79,-0.556 1.66,-0.978 2.59,-1.249l0.54,-0.138c0.16,-0.037 0.32,-0.066 0.48,-0.086c0.25,-0.047 0.51,-0.075 0.76,-0.083l0.48,-0.018c0.05,-0.007 0.1,-0.01 0.16,-0.01z" fill="#4CAF4F"/>
<path id="Vector_486" d="M30.5294,54.5024h-0.63l-1.38,-1.939v-1.274c0,0 -0.99,-0.062 -0.87,1.605c0.11,1.667 0,1.242 0,1.242c0,0 -2.1,0 -2.27,0.19c-0.17,0.19 -0.18,2.212 -0.21,3.34c-0.01,0.272 0.07,0.541 0.22,0.763c0.16,0.223 0.39,0.387 0.65,0.465c0.07,0.021 0.15,0.031 0.22,0.032c0.53,0 3.19,-0.425 3.19,-0.425h1.11z" fill="#4CAF4F"/>
<path id="Vector_487" d="M32.3594,54.1604l-0.39,4.362h-1.09v-4.272z" fill="#4CAF4F"/>
</g>
<g id="Character">
<path id="Vector_488" d="M45.3694,142.9554v-2.951l-5.29,-0.038l-0.05,4.462l0.33,0.024c1.46,0.093 7.42,0.231 8.4,-0.072c1.09,-0.339 -3.39,-1.425 -3.39,-1.425z" fill="#4CAF4F"/>
<path id="Vector_489" d="M48.8894,144.1044c0,0.048 -1.98,0.089 -4.42,0.089c-2.44,0 -4.42,-0.041 -4.42,-0.089c0,-0.049 1.98,-0.09 4.42,-0.09c2.44,0 4.42,0.041 4.42,0.09z" fill="#263238"/>
<path id="Vector_490" d="M45.4594,143.5584c-0.05,-0.024 0,-0.179 0.11,-0.345c0.1,-0.165 0.25,-0.234 0.28,-0.2c0.04,0.035 -0.04,0.166 -0.14,0.307c-0.1,0.142 -0.21,0.263 -0.25,0.238z" fill="#263238"/>
<path id="Vector_491" d="M45.7994,143.7524c-0.05,0 -0.03,-0.194 0.08,-0.376c0.1,-0.183 0.24,-0.294 0.28,-0.266c0.03,0.027 -0.03,0.183 -0.12,0.345c-0.1,0.162 -0.2,0.314 -0.24,0.297z" fill="#263238"/>
<path id="Vector_492" d="M41.6394,144.0904c-0.02,0 -0.1,-0.062 -0.21,-0.193c-0.14,-0.169 -0.3,-0.324 -0.46,-0.463c-0.17,-0.132 -0.37,-0.219 -0.58,-0.252c-0.16,-0.02 -0.26,0 -0.27,-0.02c-0.01,-0.021 0.09,-0.094 0.28,-0.107c0.25,-0.006 0.49,0.077 0.69,0.234c0.18,0.149 0.33,0.331 0.45,0.535c0.08,0.152 0.12,0.252 0.1,0.266z" fill="#263238"/>
<path id="Vector_493" d="M45.4794,143.0034c0.02,0.041 -0.07,0.145 -0.22,0.2c-0.15,0.055 -0.29,0.034 -0.29,0c-0.01,-0.035 0.1,-0.107 0.23,-0.155c0.13,-0.049 0.25,-0.087 0.28,-0.045z" fill="#263238"/>
<path id="Vector_494" d="M45.3894,142.7164c0,0.052 -0.13,0.094 -0.31,0.097c-0.18,0.003 -0.33,-0.038 -0.32,-0.086c0,-0.049 0.14,-0.093 0.32,-0.097c0.17,-0.003 0.31,0.038 0.31,0.086z" fill="#263238"/>
<path id="Vector_495" d="M58.3894,142.9554v-2.951l-5.29,-0.038l-0.04,4.417l0.32,0.024c1.46,0.093 7.43,0.276 8.41,-0.027c1.09,-0.339 -3.4,-1.425 -3.4,-1.425z" fill="#4CAF4F"/>
<path id="Vector_496" d="M61.9094,144.1104c0,0.049 -1.97,0.09 -4.42,0.09c-2.44,0 -4.41,-0.041 -4.41,-0.09c0,-0.048 1.97,-0.089 4.41,-0.089c2.44,0 4.42,0.041 4.42,0.089z" fill="#263238"/>
<path id="Vector_497" d="M58.4794,143.5584c-0.04,-0.024 0,-0.179 0.11,-0.345c0.11,-0.165 0.25,-0.234 0.29,-0.2c0.03,0.035 -0.04,0.166 -0.14,0.307c-0.11,0.142 -0.21,0.263 -0.26,0.238z" fill="#263238"/>
<path id="Vector_498" d="M58.8194,143.7524c-0.04,0 -0.02,-0.194 0.09,-0.376c0.1,-0.183 0.24,-0.294 0.28,-0.266c0.03,0.027 -0.03,0.183 -0.13,0.345c-0.1,0.162 -0.19,0.314 -0.24,0.297z" fill="#263238"/>
<path id="Vector_499" d="M54.6694,144.0904c-0.02,0 -0.1,-0.062 -0.22,-0.193c-0.13,-0.169 -0.29,-0.324 -0.46,-0.463c-0.16,-0.132 -0.36,-0.219 -0.57,-0.252c-0.16,-0.02 -0.27,0 -0.28,-0.02c-0.01,-0.021 0.09,-0.094 0.28,-0.107c0.25,-0.006 0.5,0.077 0.69,0.234c0.19,0.148 0.34,0.33 0.46,0.535c0.08,0.152 0.12,0.252 0.1,0.266z" fill="#263238"/>
<path id="Vector_500" d="M58.4994,143.0034c0.03,0.041 -0.06,0.145 -0.22,0.2c-0.15,0.055 -0.28,0.034 -0.29,0c-0.01,-0.035 0.1,-0.107 0.23,-0.155c0.13,-0.049 0.25,-0.087 0.28,-0.045z" fill="#263238"/>
<path id="Vector_501" d="M58.4294,142.7164c0,0.052 -0.14,0.094 -0.32,0.097c-0.18,0.003 -0.32,-0.038 -0.32,-0.086c0.01,-0.049 0.15,-0.093 0.32,-0.097c0.17,-0.003 0.32,0.038 0.32,0.086z" fill="#263238"/>
<path id="Vector_502" d="M77.8794,55.3444c-0.14,-0.142 -0.48,-0.073 -0.48,-0.073c0.04,-0.198 0.04,-0.401 0,-0.6c-0.06,-0.193 -0.5,-0.155 -0.5,-0.155c-0.02,-0.163 -0.02,-0.328 0,-0.49c0.01,-0.036 0,-0.073 -0.02,-0.104c-0.02,-0.032 -0.04,-0.057 -0.08,-0.072c-0.2,-0.084 -0.42,-0.124 -0.64,-0.118c-0.27,-0.189 0.81,-1.697 1.21,-2.18c0.4,-0.483 0.32,-0.86 -0.03,-0.86c-0.25,0 -1.5,1.45 -1.89,1.936c-0.39,0.487 -1.41,1.839 -1.44,0.759c-0.04,-1.08 -0.47,-1.894 -0.75,-2.032c-0.27,-0.138 -0.56,0.186 -0.41,0.486c0.13,0.342 0.21,0.699 0.24,1.063c0.04,0.29 0.03,0.584 -0.04,0.87c-0.11,0.531 -0.27,1.052 -0.46,1.559h-0.03c0,0 -7.53,7.223 -8.07,7.737c-0.49,0.462 -10.28,-0.549 -12.24,-0.756c-0.67,-0.098 -1.34,-0.144 -2.02,-0.138c-0.85,0.038 -1,0.159 -1.85,0.169c-2.14,0.024 -4.28,0.212 -6.4,0.563c-0.95,0.162 -1.85,0.585 -2.58,1.222c-0.74,0.636 -1.28,1.462 -1.58,2.387c-1.97,6.176 -6.45,20.797 -7.24,29.009c-0.6,1.083 -1.14,2.197 -1.62,3.337c-0.55,1.511 -0.42,1.563 -0.23,1.597c0.5,0.094 1.07,-2.619 1.29,-1.963c0.21,0.656 -1.09,3.233 -0.56,3.309c0.69,0.097 1.24,-2.76 1.3,-2.988c0.07,-0.228 0.41,-0.155 0.35,0.059c-0.1,0.303 -1.07,3.523 -0.4,3.626c0.38,0.055 0.42,-0.624 0.42,-0.624c0,0 0.69,-3.082 1,-3.02c0.32,0.062 -0.02,1.881 -0.18,2.488c-0.16,0.607 0.07,0.915 0.39,0.766c0.22,-0.103 0.75,-1.949 0.89,-2.55c0.15,-0.6 0.51,-2.263 1,-1.301c0.48,0.963 1.22,1.522 1.53,1.536c0.06,-0.008 0.13,-0.036 0.18,-0.081c0.05,-0.045 0.09,-0.104 0.11,-0.171c0.02,-0.066 0.02,-0.137 -0.01,-0.202c-0.02,-0.065 -0.06,-0.122 -0.12,-0.164c-0.26,-0.255 -0.48,-0.545 -0.66,-0.862c-0.16,-0.248 -0.28,-0.521 -0.35,-0.808c-0.14,-0.572 -0.22,-1.157 -0.24,-1.746l-0.05,-0.345c0.77,-3.827 3,-15.058 6.21,-22.232l1.32,2.712l0.57,2.008l-3.51,8.672l14.98,-0.197l-2.24,-8.606l2.72,-8.971c2.93,0.065 10.47,0.176 11.73,-0.394c1.58,-0.69 9.76,-11.014 9.76,-11.014c0.53,-0.414 1.04,-0.856 1.52,-1.325c0,0 0.5,-0.418 0.2,-0.728z" fill="#FFBE9D"/>
<path id="Vector_503" d="M38.5494,80.1714c0.43,-1.484 2.66,-8.82 2.66,-8.82c0,0 1.1,5.98 0.81,6.701c-0.26,0.618 -0.58,1.213 -0.94,1.781c-2.53,3.854 -2.2,5.783 -2.2,5.783l15.3,-0.466c0.04,-2.139 -1.23,-7.115 -1.49,-7.909c-0.26,-0.793 0.61,-3.392 0.61,-3.392c0,0 1.72,-1.756 1.66,-2.66c-0.03,-0.812 -0.13,-1.62 -0.3,-2.415l9.32,0.345l-0.3,-6.315l-13.38,-1.339c-0.46,1.315 -4.68,0.67 -4.68,0.67c-4.54,0.151 -4.83,0.987 -6.72,2.456c-1.89,1.47 -5.02,14.086 -5.02,14.086z" fill="#4CAF4F"/>
<path id="Vector_504" d="M47.5894,78.6774c-0.26,0.047 -0.53,0.061 -0.8,0.041c-0.5,0 -1.19,-0.034 -1.94,-0.11c-0.76,-0.076 -1.44,-0.183 -1.93,-0.28c-0.27,-0.034 -0.53,-0.102 -0.78,-0.2c0.27,0 0.54,0.026 0.8,0.076c0.49,0.062 1.17,0.148 1.93,0.224c0.75,0.076 1.43,0.128 1.92,0.162c0.27,0.004 0.54,0.033 0.8,0.087z" fill="#263238"/>
<path id="Vector_505" d="M48.6394,77.3764c-0.26,0.13 -0.54,0.226 -0.83,0.286c-1.38,0.362 -2.8,0.53 -4.22,0.501c-0.3,0.009 -0.59,-0.019 -0.88,-0.083c0.29,-0.037 0.59,-0.052 0.88,-0.045c0.54,-0.017 1.29,-0.055 2.11,-0.152c0.82,-0.097 1.55,-0.235 2.07,-0.345c0.28,-0.077 0.58,-0.131 0.87,-0.162z" fill="#263238"/>
<path id="Vector_506" d="M53.7894,71.5724c0,0.263 -0.04,0.525 -0.1,0.78c-0.09,0.48 -0.23,1.135 -0.41,1.853c-0.17,0.718 -0.34,1.38 -0.5,1.829c-0.06,0.256 -0.15,0.505 -0.26,0.742c0.01,-0.263 0.06,-0.522 0.14,-0.773c0.13,-0.539 0.28,-1.16 0.45,-1.84c0.16,-0.679 0.32,-1.3 0.45,-1.839c0.05,-0.259 0.13,-0.511 0.23,-0.752z" fill="#263238"/>
<path id="Vector_507" d="M38.7094,79.2914c-0.8,-0.123 -1.59,-0.307 -2.36,-0.549c-0.78,-0.184 -1.56,-0.426 -2.31,-0.724c0.8,0.125 1.59,0.308 2.36,0.548c0.79,0.184 1.56,0.426 2.31,0.725z" fill="#263238"/>
<path id="Vector_508" d="M54.8294,68.6984c-0.13,0.022 -0.27,0.022 -0.4,0c-0.36,-0.037 -0.71,-0.122 -1.05,-0.252c-0.56,-0.212 -1.08,-0.54 -1.51,-0.963c-0.43,-0.422 -0.76,-0.93 -0.99,-1.491c-0.24,-0.616 -0.35,-1.28 -0.3,-1.942c0.01,-0.547 0.17,-1.079 0.47,-1.539c0.21,-0.311 0.51,-0.539 0.87,-0.646c0.1,-0.026 0.2,-0.039 0.3,-0.038c0.06,0 0.1,0 0.1,0c0,0 -0.15,0 -0.38,0.094c-0.33,0.121 -0.6,0.348 -0.79,0.645c-0.47,0.738 -0.6,2.088 -0.1,3.347c0.24,0.594 0.6,1.127 1.07,1.56c0.38,0.354 0.83,0.638 1.31,0.842c0.45,0.178 0.92,0.307 1.4,0.383z" fill="#263238"/>
<path id="Vector_509" d="M62.8694,68.9944c-0.09,-1.058 -0.11,-2.12 -0.08,-3.181c-0.03,-1.06 0,-2.121 0.09,-3.178c0.09,1.057 0.12,2.118 0.09,3.178c0.03,1.061 -0.01,2.124 -0.1,3.181z" fill="#263238"/>
<path id="Vector_510" d="M50.2094,61.8524c0.04,-0.77 0.12,-1.639 0.12,-1.639c0,0 1.91,-0.211 2.02,-2.178c0.11,-1.967 0,-6.504 0,-6.504l-3.45,-1.767l-3.83,3.013l0.59,9.834l3.51,0.224c0.27,0.007 0.53,-0.092 0.73,-0.276c0.19,-0.185 0.31,-0.439 0.31,-0.707z" fill="#FFBE9D"/>
<path id="Vector_511" d="M50.5594,56.4794c0,0 0,0.038 -0.04,0.083c-0.02,0.032 -0.05,0.058 -0.09,0.075c-0.04,0.017 -0.08,0.024 -0.12,0.022c-0.22,0 -0.44,-0.256 -0.51,-0.553c-0.04,-0.143 -0.04,-0.294 0,-0.438c0,-0.063 0.03,-0.123 0.06,-0.174c0.04,-0.052 0.09,-0.094 0.14,-0.123c0.05,-0.019 0.1,-0.019 0.15,0c0.03,0.018 0.06,0.045 0.08,0.08c0.02,0.058 0,0.096 0,0.093c0,-0.003 0,-0.035 -0.04,-0.069c-0.01,-0.025 -0.04,-0.042 -0.07,-0.048c-0.03,-0.007 -0.06,-0.002 -0.09,0.013c-0.04,0.026 -0.08,0.062 -0.1,0.105c-0.03,0.043 -0.04,0.091 -0.04,0.14c-0.03,0.129 -0.03,0.262 0,0.39c0.07,0.27 0.25,0.487 0.42,0.508c0.03,0.004 0.07,0.002 0.1,-0.007c0.03,-0.009 0.06,-0.024 0.08,-0.045c0.04,-0.028 0.06,-0.055 0.07,-0.052z" fill="#EB996E"/>
<path id="Vector_512" d="M53.5294,50.4684c-0.26,-0.904 -1.23,-1.353 -2.1,-1.601c-1.34,-0.38 -2.78,-0.545 -4.08,-0.066c-1.31,0.48 -2.87,1.322 -2.87,2.761c-0.77,-0.062 -1.22,0.611 -1.52,1.446c-0.19,0.509 -0.31,1.044 -0.34,1.587c-0.1,1.884 -0.63,4.486 -1.85,5.866c-0.69,0.77 -1.65,1.301 -2.04,2.26c-0.34,0.832 -0.17,1.819 -0.49,2.661c-0.28,0.741 -0.91,1.269 -1.38,1.915c-0.47,0.732 -0.74,1.571 -0.8,2.44c-0.06,0.869 0.1,1.738 0.48,2.525c0.37,0.767 0.89,1.451 1.54,2.008c0.65,0.558 1.4,0.978 2.21,1.236c1.62,0.49 3.33,0.507 4.95,0.048c1.22,-0.291 2.36,-0.854 3.32,-1.646c0.99,-0.809 1.68,-1.935 1.93,-3.188c0.24,-1.408 -0.15,-2.84 -0.44,-4.241c-0.92,-4.427 -0.66,-4.658 0.5,-8.768c0.03,-0.073 0.04,-0.148 0.06,-0.221c0.02,-0.072 0.04,-0.107 0.05,-0.162c0.03,-0.163 0.05,-0.328 0.05,-0.494c-0.17,0.063 -0.35,0.077 -0.53,0.039c-0.18,-0.038 -0.34,-0.126 -0.47,-0.252c-0.13,-0.136 -0.22,-0.303 -0.26,-0.486c-0.04,-0.182 -0.03,-0.372 0.03,-0.55c0.08,-0.194 0.2,-0.369 0.35,-0.513c0.16,-0.145 0.34,-0.255 0.54,-0.325c0.38,-0.159 0.79,-0.242 1.17,-0.418c0.8,-0.379 1.35,-1.166 1.72,-1.991c0.31,-0.571 0.41,-1.234 0.27,-1.87z" fill="#263238"/>
<path id="Vector_513" d="M50.6894,56.5724c0.08,0.108 0.14,0.224 0.18,0.345c0.11,0.218 0.24,0.525 0.4,0.88l0.02,0.066h-0.07l-0.34,0.031c-0.24,0 -0.44,0.045 -0.68,0.041c-0.02,-0.004 -0.04,-0.014 -0.05,-0.028c-0.02,-0.014 -0.03,-0.031 -0.04,-0.051c-0.01,-0.031 -0.01,-0.065 0,-0.097c0.01,-0.046 0.02,-0.092 0.03,-0.138l0.07,-0.245c0.03,-0.163 0.08,-0.323 0.14,-0.476c0,0.167 -0.03,0.332 -0.07,0.494l-0.05,0.245c-0.02,0.082 -0.05,0.21 0,0.2c0.17,0 0.42,-0.038 0.65,-0.052l0.34,-0.031l-0.04,0.076c-0.15,-0.345 -0.28,-0.67 -0.35,-0.894c-0.06,-0.115 -0.11,-0.238 -0.14,-0.366z" fill="#4CAF4F"/>
<path id="Vector_514" d="M38.8794,85.6164l15.3,-0.466l6.66,25.997l-1.22,29.82h-8.1l1,-29.185l-5.92,-18.099l0.91,48.44l-8.18,0.121l-0.86,-45.531c-0.04,-1.266 -0.45,-4.12 -0.3,-5.376z" fill="#263238"/>
<path id="Vector_515" d="M48.6294,94.0534c-0.25,0.015 -0.5,0 -0.75,-0.045c-0.46,-0.055 -1.09,-0.152 -1.78,-0.29c-0.7,-0.138 -1.32,-0.297 -1.77,-0.425c-0.24,-0.052 -0.47,-0.136 -0.69,-0.248c0,-0.052 1.13,0.217 2.51,0.497c1.38,0.279 2.49,0.459 2.48,0.511z" fill="#455A64"/>
<path id="Vector_516" d="M59.5294,139.3314c0,0.049 -1.83,0.09 -4.09,0.09c-2.26,0 -4.09,-0.041 -4.09,-0.09c0,-0.048 1.83,-0.089 4.09,-0.089c2.27,0 4.09,0.038 4.09,0.089z" fill="#455A64"/>
<path id="Vector_517" d="M47.4394,140.8634c0,0.052 -1.78,0.09 -3.98,0.09c-2.19,0 -3.97,-0.038 -3.97,-0.09c0,-0.051 1.78,-0.089 3.97,-0.089c2.19,0 3.98,0.041 3.98,0.089z" fill="#455A64"/>
<path id="Vector_518" d="M46.3794,140.7394c-0.05,0 -0.26,-10.583 -0.48,-23.636c-0.22,-13.054 -0.34,-23.644 -0.3,-23.644c0.05,0 0.27,10.58 0.48,23.64c0.21,13.061 0.35,23.64 0.3,23.64z" fill="#455A64"/>
<path id="Vector_519" d="M58.4494,139.3314c-0.01,-0.047 -0.01,-0.094 0,-0.141v-0.414c0,-0.373 0.02,-0.908 0.05,-1.587c0.04,-1.381 0.11,-3.386 0.2,-5.842c0.19,-4.942 0.45,-11.753 0.73,-19.272c0,-0.072 0,-0.141 0,-0.204v0.025c-1.81,-7.247 -3.45,-13.823 -4.64,-18.582l-1.38,-5.628c-0.16,-0.659 -0.28,-1.173 -0.36,-1.532c-0.04,-0.169 -0.07,-0.3 -0.1,-0.4c-0.01,-0.045 -0.02,-0.091 -0.02,-0.138c0.02,0.043 0.03,0.088 0.04,0.134c0.03,0.097 0.06,0.228 0.11,0.394c0.09,0.345 0.23,0.869 0.4,1.525c0.35,1.332 0.83,3.25 1.44,5.614c1.2,4.755 2.86,11.315 4.69,18.571v0.024c0,0.062 0,0.135 0,0.204c-0.3,7.519 -0.58,14.327 -0.79,19.268c-0.1,2.46 -0.19,4.451 -0.26,5.839c-0.03,0.69 -0.06,1.214 -0.08,1.587c0,0.176 -0.02,0.314 -0.02,0.414c0,0.047 0,0.095 -0.01,0.141z" fill="#455A64"/>
<path id="Vector_520" d="M55.8094,111.2644c-0.58,0.191 -1.18,0.324 -1.79,0.397c-0.75,0.128 -1.38,0.217 -1.67,0.231v-0.069c0.1,0.028 0.14,0.045 0.14,0.059c0,0.014 -0.05,0 -0.15,0h-0.21l0.21,-0.062c0.27,-0.08 0.9,-0.211 1.65,-0.345c0.6,-0.13 1.21,-0.201 1.82,-0.211z" fill="#455A64"/>
<path id="Vector_521" d="M55.6694,112.2554c-0.54,0.024 -1.08,0 -1.62,-0.073c-0.53,-0.011 -1.07,-0.07 -1.6,-0.176c1.08,-0.088 2.16,-0.004 3.22,0.249z" fill="#455A64"/>
<path id="Vector_522" opacity="0.2" d="M38.8094,86.1654c0.18,0.232 0.41,0.424 0.67,0.563c0.26,0.138 0.55,0.22 0.84,0.241c0.62,0.073 1.24,0.061 1.86,-0.035c3.95,-0.438 8.13,-0.842 12,-1.784c-5,0.28 -10.29,0.186 -15.3,0.466l-0.05,0.428" fill="black"/>
<g id="Group_17" opacity="0.2">
<path id="Vector_523" d="M43.9694,93.2214l2.82,10.952l-0.19,-10.49z" fill="black"/>
</g>
</g>
</g></svg>