<svg viewBox="0 0 36.1956 13.9214" x="0" y="0" fill="none" xmlns="http://www.w3.org/2000/svg"><defs><clipPath id="clip7_204_686" xmlns="http://www.w3.org/2000/svg">
<rect width="36.1956" height="13.9214" fill="white" transform="translate(0.0001999999999497959, 0)"/>
</clipPath></defs><g id="Logo_13" clip-path="url(#clip7_204_686)" xmlns="http://www.w3.org/2000/svg">
<path id="Vector_263" d="M8.5922,0c-1.414,0 -2.77,0.562 -3.769,1.561l-3.262,3.262c-1,1 -1.561,2.355 -1.561,3.769c0,2.943 2.386,5.329 5.33,5.329c1.413,0 2.769,-0.561 3.768,-1.561l2.257,-2.256v0l6.574,-6.574c0.477,-0.478 1.125,-0.746 1.8,-0.746c1.13,0 2.088,0.737 2.42,1.756l2.075,-2.075c-0.946,-1.482 -2.606,-2.465 -4.495,-2.465c-1.414,0 -2.77,0.562 -3.769,1.561l-8.831,8.831c-0.477,0.477 -1.124,0.745 -1.799,0.745c-1.406,0 -2.546,-1.139 -2.546,-2.545c0,-0.675 0.268,-1.323 0.746,-1.8l3.262,-3.262c0.477,-0.478 1.124,-0.746 1.8,-0.746c1.13,0 2.088,0.737 2.42,1.756l2.075,-2.074c-0.947,-1.483 -2.606,-2.466 -4.495,-2.466z" fill="currentColor"/>
<path id="Vector_264" d="M18.2672,10.392c-0.478,0.477 -1.125,0.745 -1.8,0.745c-1.13,0 -2.089,-0.736 -2.421,-1.755l-2.075,2.074c0.947,1.483 2.607,2.465 4.496,2.465c1.413,0 2.769,-0.561 3.768,-1.561l8.831,-8.83c0.477,-0.478 1.125,-0.746 1.8,-0.746c1.406,0 2.545,1.14 2.545,2.546c0,0.675 -0.268,1.322 -0.745,1.8l-3.262,3.262c-0.478,0.477 -1.125,0.745 -1.8,0.745c-1.13,0 -2.089,-0.736 -2.421,-1.756l-2.075,2.075c0.947,1.482 2.607,2.465 4.496,2.465c1.413,0 2.769,-0.561 3.768,-1.561l3.262,-3.262c1,-0.999 1.561,-2.355 1.561,-3.768c0,-2.944 -2.386,-5.33 -5.329,-5.33c-1.414,0 -2.769,0.562 -3.769,1.561z" fill="currentColor"/>
</g></svg>