<svg viewBox="0 0 27.8428 19.4899" x="0" y="0" fill="none" xmlns="http://www.w3.org/2000/svg"><path id="Vector_244" fill-rule="evenodd" clip-rule="evenodd" d="M6.9509,2.8642l-6.951,6.881c1.39,1.376 2.979,2.536 4.71,3.443c0.479,1.257 1.229,2.436 2.251,3.447c3.844,3.806 10.077,3.806 13.921,0c1.022,-1.011 1.772,-2.19 2.251,-3.447c1.731,-0.907 3.32,-2.067 4.71,-3.443l-6.945,-6.876c-0.005,-0.005 -0.011,-0.01 -0.016,-0.015c-3.844,-3.806 -10.077,-3.806 -13.921,0c-0.004,0.003 -0.007,0.007 -0.01,0.01zM20.2169,14.4302c-2.025,0.677 -4.152,1.023 -6.296,1.023c-2.143,0 -4.269,-0.346 -6.295,-1.023c0.219,0.288 0.462,0.565 0.727,0.827c3.075,3.045 8.062,3.045 11.137,0c0.265,-0.262 0.508,-0.539 0.727,-0.827zM8.4959,4.0942c0.522,0.342 1.077,0.634 1.658,0.872c1.195,0.49 2.475,0.742 3.767,0.742c1.293,0 2.573,-0.252 3.768,-0.742c0.581,-0.238 1.136,-0.53 1.658,-0.872c-3.037,-2.86 -7.814,-2.86 -10.851,0z" fill="currentColor" xmlns="http://www.w3.org/2000/svg"/></svg>