<svg viewBox="0 0 32.7153 20.186" x="0" y="0" fill="none" xmlns="http://www.w3.org/2000/svg"><defs><clipPath id="clip5_204_686" xmlns="http://www.w3.org/2000/svg">
<rect width="32.7153" height="20.186" fill="white" transform="translate(-0.0004999999999881766, 0.00020000000006348273)"/>
</clipPath></defs><g id="Logo_9" clip-path="url(#clip5_204_686)" xmlns="http://www.w3.org/2000/svg">
<path id="Vector_247" d="M30.6245,2.4812c0,0.024 0,0.053 -0.006,0.071c-0.031,0.229 -0.031,0.459 -0.012,0.694c0.012,0.059 0.024,0.118 0.073,0.165c0.08,0.088 0.203,0.07 0.252,-0.036c0.024,-0.053 0.024,-0.105 0.012,-0.158c-0.061,-0.224 -0.074,-0.459 -0.08,-0.689c0,-0.012 0,-0.029 0,-0.047c0.068,-0.006 0.129,-0.012 0.184,-0.012c0.043,-0.006 0.08,-0.011 0.111,-0.029c0.091,-0.047 0.091,-0.147 -0.007,-0.194c-0.036,-0.018 -0.085,-0.024 -0.128,-0.024c-0.154,0.006 -0.307,0.006 -0.46,0.006c-0.055,0 -0.111,0.006 -0.166,0.012c-0.03,0.006 -0.067,0.006 -0.092,0.023c-0.043,0.018 -0.067,0.047 -0.067,0.089c0.006,0.041 0.024,0.064 0.067,0.082c0.025,0.018 0.056,0.024 0.086,0.024c0.074,0.005 0.153,0.017 0.233,0.023zM32.3105,2.7522c0,0.006 0.006,0.011 0.006,0.011c0.025,0.159 0.049,0.312 0.068,0.465c0.006,0.053 0.012,0.1 0.049,0.142c0.079,0.1 0.202,0.088 0.257,-0.018c0.025,-0.053 0.031,-0.106 0.019,-0.165c-0.037,-0.176 -0.056,-0.353 -0.092,-0.524c-0.025,-0.105 -0.055,-0.205 -0.086,-0.3c-0.019,-0.058 -0.061,-0.1 -0.135,-0.106c-0.074,-0.011 -0.129,0.024 -0.159,0.077c-0.037,0.047 -0.068,0.094 -0.092,0.147c-0.043,0.094 -0.08,0.188 -0.129,0.277c-0.006,0.023 -0.012,0.041 -0.025,0.058c-0.006,-0.011 -0.012,-0.017 -0.012,-0.017c-0.08,-0.147 -0.153,-0.294 -0.233,-0.436c-0.012,-0.011 -0.018,-0.023 -0.024,-0.035c-0.037,-0.053 -0.08,-0.082 -0.148,-0.082c-0.061,0.006 -0.11,0.041 -0.141,0.094c-0.012,0.023 -0.012,0.041 -0.018,0.065c-0.025,0.188 -0.055,0.376 -0.08,0.564c-0.012,0.106 -0.018,0.212 -0.018,0.318c-0.006,0.024 0,0.053 0.012,0.077c0.012,0.047 0.049,0.076 0.098,0.082c0.062,0.006 0.104,-0.012 0.123,-0.059c0.018,-0.035 0.024,-0.065 0.031,-0.094c0.024,-0.106 0.042,-0.206 0.061,-0.306c0.012,-0.059 0.018,-0.106 0.037,-0.171c0.012,0.024 0.024,0.042 0.036,0.059c0.056,0.071 0.111,0.142 0.178,0.2c0.068,0.047 0.123,0.042 0.178,-0.011c0.012,-0.012 0.018,-0.018 0.031,-0.03c0.055,-0.082 0.122,-0.165 0.177,-0.247c0.013,-0.012 0.019,-0.024 0.031,-0.035z" fill="currentColor"/>
<path id="Vector_248" d="M18.1845,2.5972c-0.043,0.111 -0.051,0.192 -0.031,0.259c0.022,0.091 0.078,0.121 0.155,0.098c0.72,-0.171 2.299,0.314 2.883,0.449c0.138,0.029 0.25,-0.142 0.156,-0.295c-0.137,-0.149 -1.715,-0.784 -2.318,-0.818c-0.236,-0.013 -0.658,-0.071 -0.845,0.307z" fill="currentColor"/>
<path id="Vector_249" d="M24.3555,0.5412c0.077,0.043 0.12,0.083 0.141,0.128c0.032,0.06 0.015,0.101 -0.038,0.122c-0.476,0.223 -1.11,1.183 -1.365,1.514c-0.062,0.076 -0.205,0.032 -0.227,-0.093c0.005,-0.142 0.566,-1.184 0.88,-1.468c0.123,-0.11 0.326,-0.328 0.609,-0.203z" fill="currentColor"/>
<path id="Vector_250" d="M20.5645,0.0692c0.093,-0.067 0.188,-0.091 0.237,-0.047c0.719,0.589 1.099,1.523 1.335,2.377c0.009,0.02 0.01,0.049 0.003,0.079c-0.003,0.025 -0.023,0.052 -0.054,0.073c-0.032,0.023 -0.061,0.03 -0.074,0.01c-0.315,-0.411 -2.113,-2.01 -1.447,-2.492z" fill="currentColor"/>
<path id="Vector_251" d="M5.3565,10.2892c0.172,-0.123 0.359,-0.225 0.557,-0.305c0.207,-0.057 0.428,-0.047 0.629,0.027c0.201,0.074 0.372,0.209 0.486,0.385c0.102,0.175 0.142,0.377 0.113,0.576c-0.028,0.199 -0.122,0.383 -0.269,0.526c-0.114,0.115 -0.244,0.216 -0.385,0.299c-0.63,0.391 -1.265,0.76 -1.9,1.15c-0.13,0.098 -0.268,0.186 -0.413,0.262c-0.219,0.106 -0.471,0.134 -0.71,0.08c-0.239,-0.054 -0.451,-0.186 -0.599,-0.374c-0.111,-0.133 -0.205,-0.278 -0.279,-0.433c-0.602,-1.214 -1.226,-2.423 -1.805,-3.659c-0.268,-0.534 -0.485,-1.15 -0.697,-1.743c-0.092,-0.173 -0.11,-0.373 -0.05,-0.558c0.06,-0.185 0.192,-0.34 0.369,-0.433c0.177,-0.092 0.385,-0.115 0.58,-0.063c0.194,0.052 0.359,0.175 0.461,0.342c0.311,0.398 0.587,0.82 0.825,1.263c0.601,1.069 1.175,2.139 1.755,3.177c0.034,0.057 0.071,0.112 0.111,0.166c0.437,-0.176 0.847,-0.407 1.221,-0.685z" fill="currentColor"/>
<path id="Vector_252" d="M11.5795,9.9162c-1.377,1.546 -3.684,1.155 -4.843,-0.835c-0.825,-1.412 -0.97,-3.744 0.825,-5.215c0.383,-0.308 0.841,-0.517 1.332,-0.609c0.601,-0.083 1.214,0.019 1.752,0.291c0.537,0.271 0.972,0.699 1.24,1.222c0.981,1.712 0.842,3.894 -0.306,5.146zM11.0225,6.3112c-0.147,-0.421 -0.44,-0.78 -0.831,-1.017c-0.221,-0.151 -0.49,-0.224 -0.761,-0.208c-0.271,0.017 -0.527,0.122 -0.727,0.299c-0.797,0.68 -0.964,2.29 -0.384,3.247c0.074,0.156 0.182,0.295 0.318,0.407c0.135,0.111 0.295,0.193 0.467,0.24c0.172,0.046 0.352,0.056 0.528,0.028c0.177,-0.028 0.345,-0.092 0.492,-0.188c0.432,-0.322 0.749,-0.764 0.907,-1.267c0.158,-0.502 0.149,-1.039 -0.026,-1.536z" fill="currentColor"/>
<path id="Vector_253" d="M17.1965,6.9852c-0.141,0.029 -0.286,0.031 -0.428,0.005c-0.142,-0.026 -0.276,-0.079 -0.397,-0.155c-0.105,-0.058 -0.195,-0.137 -0.264,-0.232c-0.07,-0.096 -0.116,-0.204 -0.136,-0.319c-0.021,-0.115 -0.014,-0.232 0.018,-0.344c0.033,-0.112 0.091,-0.215 0.171,-0.303c0.138,-0.177 0.334,-0.303 0.557,-0.359c0.581,-0.161 1.179,-0.26 1.783,-0.294c0.133,-0.015 0.268,-0.004 0.396,0.032c0.128,0.036 0.248,0.096 0.352,0.176c0.103,0.081 0.189,0.181 0.252,0.294c0.063,0.113 0.102,0.237 0.115,0.365c0.174,0.627 0.193,1.284 0.056,1.92c-0.502,2.054 -2.23,2.76 -4.169,2.102c-0.544,-0.176 -1.022,-0.504 -1.371,-0.941c-0.466,-0.527 -0.796,-1.152 -0.964,-1.824c-0.136,-0.599 -0.121,-1.22 0.044,-1.811c0.164,-0.592 0.474,-1.138 0.903,-1.591c0.408,-0.493 0.936,-0.881 1.539,-1.129c0.38,-0.201 0.826,-0.258 1.248,-0.16c0.096,0.025 0.183,0.075 0.252,0.144c0.069,0.068 0.118,0.153 0.141,0.246c0.023,0.093 0.02,0.19 -0.009,0.281c-0.029,0.091 -0.082,0.174 -0.156,0.238c-0.139,0.121 -0.29,0.229 -0.451,0.321c-0.495,0.303 -0.927,0.693 -1.271,1.15c-0.225,0.296 -0.38,0.635 -0.455,0.995c-0.074,0.359 -0.065,0.73 0.026,1.086c0.127,0.485 0.407,0.92 0.803,1.246c1.226,1.07 2.82,0.037 2.541,-1.423c-0.407,0.097 -0.764,0.198 -1.126,0.284z" fill="currentColor"/>
<path id="Vector_254" d="M24.6865,10.0012c-1.811,1.07 -3.873,0 -4.324,-2.246c-0.329,-1.605 0.295,-3.851 2.48,-4.707c0.464,-0.178 0.969,-0.241 1.465,-0.182c0.597,0.105 1.145,0.387 1.565,0.806c0.421,0.42 0.695,0.955 0.781,1.532c0.368,1.909 -0.468,3.947 -1.967,4.797zM25.3165,6.4022c-0.001,-0.445 -0.164,-0.875 -0.462,-1.214c-0.16,-0.211 -0.39,-0.361 -0.653,-0.427c-0.262,-0.065 -0.539,-0.041 -0.785,0.068c-0.981,0.407 -1.672,1.883 -1.421,2.969c0.019,0.17 0.076,0.334 0.169,0.481c0.092,0.147 0.216,0.273 0.364,0.368c0.149,0.096 0.317,0.16 0.493,0.187c0.176,0.027 0.357,0.016 0.528,-0.031c0.519,-0.174 0.968,-0.498 1.284,-0.929c0.317,-0.431 0.486,-0.945 0.483,-1.472z" fill="currentColor"/>
<path id="Vector_255" d="M28.4855,10.4512c-0.027,0.195 -0.135,0.373 -0.298,0.493c-0.164,0.119 -0.37,0.172 -0.574,0.146c-0.204,-0.026 -0.389,-0.129 -0.514,-0.286c-0.125,-0.157 -0.179,-0.355 -0.152,-0.551c0.027,-0.196 0.135,-0.373 0.298,-0.493c0.164,-0.12 0.37,-0.173 0.574,-0.146c0.204,0.026 0.389,0.129 0.514,0.286c0.125,0.157 0.179,0.355 0.152,0.551zM28.0005,3.2352c0.106,-0.155 0.262,-0.273 0.443,-0.337c0.182,-0.064 0.381,-0.069 0.566,-0.016c0.188,0.045 0.355,0.151 0.471,0.3c0.117,0.149 0.177,0.332 0.17,0.519c-0.025,0.298 -0.071,0.595 -0.14,0.887c-0.183,0.99 -0.362,1.979 -0.557,2.958c-0.089,0.391 -0.206,0.765 -0.334,1.161c-0.045,0.124 -0.119,0.236 -0.218,0.326c-0.061,0.069 -0.139,0.121 -0.226,0.152c-0.088,0.032 -0.183,0.042 -0.276,0.029c-0.092,-0.013 -0.18,-0.048 -0.255,-0.102c-0.075,-0.054 -0.135,-0.125 -0.173,-0.207c-0.066,-0.147 -0.102,-0.305 -0.106,-0.465c0,-0.664 0,-1.332 0.045,-2.001c0.075,-0.954 0.224,-1.902 0.445,-2.835c0.026,-0.125 0.075,-0.244 0.145,-0.353z" fill="currentColor"/>
<path id="Vector_256" fill-rule="evenodd" clip-rule="evenodd" d="M3.0015,14.7492c-0.065,0.141 -0.084,0.298 -0.051,0.449c0.021,0.2 0.068,0.396 0.14,0.584c0.089,0.231 0.189,0.459 0.312,0.74c0.028,0.065 0.058,0.132 0.089,0.203c0.166,0.381 0.374,0.868 0.652,1.572c0.079,0.2 0.149,0.402 0.219,0.605c0.029,0.082 0.057,0.165 0.086,0.247c0.105,0.294 0.285,0.557 0.524,0.766c0.101,0.115 0.236,0.199 0.386,0.241c0.154,0.042 0.318,0.04 0.47,-0.008c0.152,-0.048 0.285,-0.138 0.383,-0.26c0.096,-0.119 0.153,-0.263 0.164,-0.413c0.062,-0.292 0.041,-0.596 -0.062,-0.878c-0.162,-0.468 -0.347,-0.936 -0.561,-1.395l-0.001,-0.002c-0.351,-0.717 -0.708,-1.43 -1.082,-2.142l-0.003,-0.005c-0.11,-0.186 -0.252,-0.352 -0.421,-0.491c-0.109,-0.124 -0.26,-0.207 -0.427,-0.236c-0.171,-0.03 -0.346,0 -0.496,0.084c-0.142,0.077 -0.254,0.196 -0.321,0.339z" fill="currentColor"/>
<path id="Vector_257" fill-rule="evenodd" clip-rule="evenodd" d="M8.3685,12.9822c-0.551,-0.137 -1.126,-0.156 -1.686,-0.058c-0.434,0.041 -0.86,0.137 -1.156,0.327c-0.151,0.097 -0.272,0.221 -0.34,0.379c-0.068,0.159 -0.077,0.34 -0.021,0.543c0.102,0.37 0.234,0.731 0.366,1.09l0.021,0.058l0.001,0.001c0.397,1.044 0.798,2.083 1.202,3.12c0.047,0.163 0.114,0.321 0.199,0.469l0.001,0.003c0.112,0.185 0.256,0.35 0.426,0.488c0.084,0.077 0.189,0.129 0.303,0.153c0.114,0.024 0.234,0.017 0.345,-0.02c0.111,-0.037 0.209,-0.102 0.284,-0.189c0.073,-0.085 0.122,-0.188 0.139,-0.298c0.073,-0.297 0.05,-0.609 -0.067,-0.893c-0.036,-0.096 -0.065,-0.193 -0.095,-0.296c-0.01,-0.035 -0.02,-0.07 -0.031,-0.105c0.926,-0.347 1.911,-0.814 2.257,-1.901c0.136,-0.375 0.147,-0.782 0.032,-1.164c-0.114,-0.382 -0.35,-0.721 -0.673,-0.97c-0.44,-0.348 -0.955,-0.599 -1.507,-0.737zM6.8415,14.3152c0.018,-0.005 0.036,-0.01 0.055,-0.014c0.602,-0.091 1.219,0.03 1.736,0.341c0.228,0.152 0.321,0.321 0.337,0.484c0.017,0.167 -0.047,0.348 -0.174,0.523c-0.241,0.329 -0.68,0.593 -1.077,0.642c-0.289,-0.64 -0.583,-1.305 -0.877,-1.976z" fill="currentColor"/>
<path id="Vector_258" d="M12.0415,11.8122c0.656,-0.291 1.469,-0.341 2.105,-0.137c0.16,0.045 0.299,0.142 0.393,0.274c0.093,0.132 0.136,0.29 0.122,0.449c-0.001,0.103 -0.028,0.204 -0.077,0.295c-0.05,0.093 -0.123,0.173 -0.213,0.233c-0.089,0.06 -0.192,0.099 -0.3,0.113c-0.109,0.014 -0.219,0.002 -0.321,-0.033l-0.008,-0.003l-0.008,-0.004c-0.052,-0.026 -0.108,-0.046 -0.166,-0.059l-0.003,-0.001c-0.448,-0.114 -0.87,0.075 -1.024,0.307c-0.073,0.111 -0.082,0.223 -0.021,0.325c0.065,0.108 0.226,0.231 0.552,0.318c0.089,0.023 0.181,0.046 0.274,0.069c0.257,0.064 0.525,0.13 0.783,0.223h0.001c1.193,0.436 1.638,1.338 1.485,2.186c-0.15,0.84 -0.88,1.603 -1.978,1.784c-0.4,0.085 -0.816,0.068 -1.207,-0.048c-0.392,-0.117 -0.745,-0.33 -1.025,-0.619l-0.007,-0.007c-0.088,-0.109 -0.147,-0.237 -0.174,-0.372c-0.024,-0.123 -0.011,-0.249 0.037,-0.364c0.048,-0.115 0.129,-0.215 0.233,-0.287c0.111,-0.082 0.244,-0.132 0.383,-0.142c0.139,-0.01 0.277,0.019 0.399,0.083c0.122,0.057 0.235,0.129 0.337,0.214l0.002,0.002c0.179,0.158 0.397,0.199 0.605,0.161c0.212,-0.039 0.411,-0.159 0.539,-0.318c0.127,-0.159 0.178,-0.347 0.117,-0.53c-0.06,-0.184 -0.244,-0.39 -0.646,-0.562c-0.106,-0.043 -0.215,-0.078 -0.328,-0.111c-0.031,-0.01 -0.062,-0.019 -0.093,-0.028c-0.084,-0.024 -0.171,-0.049 -0.255,-0.077c-0.059,-0.019 -0.117,-0.037 -0.174,-0.055c-0.157,-0.049 -0.309,-0.097 -0.456,-0.161c-0.32,-0.104 -0.596,-0.305 -0.788,-0.572c-0.192,-0.268 -0.289,-0.589 -0.276,-0.915c0.001,-0.792 0.521,-1.339 1.181,-1.631z" fill="currentColor"/>
<path id="Vector_259" d="M20.3595,11.7272c-0.128,-0.059 -0.268,-0.087 -0.41,-0.082c-0.141,0.006 -0.279,0.045 -0.401,0.114c-0.121,0.069 -0.222,0.166 -0.294,0.282c-0.067,0.097 -0.113,0.206 -0.136,0.32c-0.023,0.115 -0.022,0.232 0.002,0.346c0.023,0.147 0.05,0.289 0.076,0.43c0.043,0.232 0.084,0.46 0.112,0.691l0.001,0.006c0.063,0.364 0.096,0.731 0.099,1.1v0.005c0.021,0.398 -0.12,0.788 -0.394,1.087l-0.004,0.006c-0.089,0.109 -0.208,0.193 -0.344,0.241c-0.135,0.048 -0.283,0.06 -0.424,0.032c-0.142,-0.027 -0.274,-0.092 -0.379,-0.187c-0.106,-0.094 -0.183,-0.216 -0.221,-0.35c-0.081,-0.283 -0.128,-0.573 -0.14,-0.866l0.139,-2.122c0.002,-0.028 0.004,-0.056 0.007,-0.085c0.005,-0.065 0.01,-0.13 0.013,-0.191c0.003,-0.091 0,-0.183 -0.022,-0.271c-0.022,-0.09 -0.065,-0.175 -0.14,-0.248c-0.075,-0.071 -0.176,-0.124 -0.303,-0.161c-0.23,-0.063 -0.424,-0.061 -0.586,0.005c-0.162,0.065 -0.273,0.188 -0.351,0.329c-0.078,0.14 -0.128,0.306 -0.166,0.473c-0.028,0.123 -0.051,0.253 -0.072,0.376c-0.008,0.042 -0.015,0.084 -0.022,0.125v0.001c-0.115,0.676 -0.149,1.362 -0.102,2.046c0.009,0.369 0.089,0.734 0.237,1.075c0.166,0.44 0.468,0.822 0.865,1.094c0.398,0.273 0.873,0.423 1.362,0.431c0.489,0.008 0.969,-0.127 1.376,-0.387c0.407,-0.259 0.722,-0.631 0.904,-1.066c0.255,-0.554 0.374,-1.156 0.349,-1.761c-0.015,-0.442 -0.04,-0.887 -0.064,-1.33c-0.013,-0.217 -0.025,-0.434 -0.036,-0.649c-0.005,-0.216 -0.08,-0.425 -0.213,-0.6c-0.082,-0.11 -0.191,-0.199 -0.318,-0.259z" fill="currentColor"/>
<path id="Vector_260" d="M24.8615,15.0552c-0.013,0.016 -0.026,0.033 -0.04,0.049c-0.104,-0.572 -0.2,-1.145 -0.296,-1.719c-0.034,-0.206 -0.069,-0.412 -0.104,-0.618l-0.004,-0.023l-0.012,-0.02c-0.024,-0.038 -0.027,-0.074 -0.027,-0.152v-0.009l-0.001,-0.009c-0.026,-0.162 -0.102,-0.312 -0.219,-0.431c-0.115,-0.12 -0.266,-0.202 -0.432,-0.238c-0.165,-0.04 -0.339,-0.031 -0.499,0.024c-0.16,0.056 -0.299,0.155 -0.4,0.286c-0.085,0.1 -0.154,0.211 -0.206,0.33c-0.117,0.256 -0.236,0.513 -0.355,0.771l-0.002,0.004c-0.297,0.643 -0.595,1.29 -0.885,1.942l-0.001,0.003c-0.178,0.422 -0.326,0.868 -0.472,1.312c-0.029,0.089 -0.059,0.178 -0.088,0.266c-0.053,0.14 -0.076,0.289 -0.068,0.438c-0.01,0.133 0.023,0.266 0.095,0.381c0.073,0.117 0.183,0.209 0.313,0.263c0.138,0.058 0.293,0.071 0.439,0.035c0.147,-0.035 0.276,-0.116 0.369,-0.23c0.119,-0.14 0.221,-0.293 0.304,-0.455c0.246,-0.482 0.481,-0.971 0.715,-1.457c0.09,-0.188 0.178,-0.357 0.278,-0.54c0.007,0.023 0.014,0.045 0.021,0.067c0.105,0.443 0.282,0.867 0.525,1.257c0.046,0.083 0.109,0.155 0.187,0.212c0.079,0.057 0.169,0.098 0.266,0.118c0.096,0.021 0.196,0.021 0.292,0c0.097,-0.02 0.188,-0.06 0.266,-0.118l0.156,-0.111l1.207,-0.976l-0.072,0.437c-0.098,0.6 -0.195,1.195 -0.298,1.79c-0.068,0.264 -0.068,0.539 0,0.803c0.029,0.148 0.104,0.285 0.215,0.392c0.111,0.109 0.254,0.182 0.41,0.212c0.156,0.029 0.317,0.013 0.463,-0.047c0.144,-0.059 0.266,-0.157 0.352,-0.283c0.199,-0.237 0.323,-0.524 0.357,-0.826c0.051,-0.428 0.109,-0.861 0.167,-1.294c0.066,-0.499 0.133,-0.998 0.189,-1.488l0.001,-0.001c0.054,-0.536 0.08,-1.074 0.078,-1.612c0.012,-0.171 -0.032,-0.34 -0.126,-0.485c-0.094,-0.145 -0.234,-0.258 -0.399,-0.323c-0.172,-0.075 -0.364,-0.095 -0.549,-0.057c-0.183,0.038 -0.349,0.13 -0.474,0.265c-0.222,0.197 -0.431,0.409 -0.625,0.633l-0.001,0.001c-0.212,0.253 -0.422,0.511 -0.63,0.767c-0.127,0.156 -0.254,0.311 -0.38,0.464z" fill="currentColor"/>
</g></svg>