<svg viewBox="0 0 28.5388 18.7939" x="0" y="0" fill="none" xmlns="http://www.w3.org/2000/svg"><defs><clipPath id="clip6_204_686" xmlns="http://www.w3.org/2000/svg">
<rect width="28.5388" height="18.7939" fill="white" transform="translate(-0.0003999999998995918, 0.00020000000006348273)"/>
</clipPath></defs><g id="Logo_11" clip-path="url(#clip6_204_686)" xmlns="http://www.w3.org/2000/svg">
<path id="Vector_261" d="M26.7556,0.5872c0,0.325 0.266,0.587 0.594,0.587h0.595c0.328,0 0.594,-0.262 0.594,-0.587c0,-0.324 -0.266,-0.587 -0.594,-0.587h-0.595c-0.328,0 -0.594,0.263 -0.594,0.587z" fill="currentColor"/>
<path id="Vector_262" d="M9.5126,18.7942h2.889l-0.841,-0.831c-0.223,-0.22 -0.526,-0.344 -0.841,-0.344h-1.207c-4.597,0 -8.323,-3.681 -8.323,-8.222c0,-4.541 3.726,-8.223 8.323,-8.223h9.513c4.597,0 8.324,3.682 8.324,8.223c0,4.541 -3.727,8.222 -8.324,8.222h-3.558c-0.473,0 -0.927,-0.186 -1.262,-0.516l-0.985,-0.973c-0.557,-0.551 -1.313,-0.86 -2.102,-0.86h-1.606c-3.283,0 -5.945,-2.63 -5.945,-5.873c0,-3.244 2.662,-5.873 5.945,-5.873h9.513c3.284,0 5.946,2.629 5.946,5.873c0,3.243 -2.662,5.873 -5.946,5.873h-2.285c-0.473,0 -0.926,-0.186 -1.261,-0.516l-0.985,-0.973c-0.558,-0.551 -1.314,-0.86 -2.102,-0.86h-2.88c-1.97,0 -3.567,-1.578 -3.567,-3.524c0,-1.946 1.597,-3.524 3.567,-3.524h9.513c1.971,0 3.568,1.578 3.568,3.524c0,1.922 -1.559,3.485 -3.496,3.523v0.001h-0.87c-0.473,0 -0.927,-0.186 -1.261,-0.516l-0.986,-0.974c-0.457,-0.451 -1.048,-0.741 -1.681,-0.83l-0.03,-0.03h-4.757c-0.656,0 -1.189,-0.526 -1.189,-1.174c0,-0.649 0.533,-1.175 1.189,-1.175h9.513c0.657,0 1.189,0.526 1.189,1.175c0,0.648 -0.532,1.174 -1.189,1.174h-2.378l0.841,0.831c0.223,0.22 0.525,0.344 0.841,0.344h0.696c1.314,0 2.379,-1.052 2.379,-2.349c0,-1.298 -1.065,-2.349 -2.379,-2.349h-9.513c-1.313,0 -2.378,1.051 -2.378,2.349c0,1.297 1.065,2.349 2.378,2.349h4.366c0.473,0 0.927,0.186 1.262,0.516l0.985,0.973c0.557,0.551 1.313,0.86 2.102,0.86h1.096v-0.009c2.488,-0.151 4.459,-2.193 4.459,-4.689c0,-2.595 -2.13,-4.699 -4.757,-4.699h-9.513c-2.627,0 -4.756,2.104 -4.756,4.699c0,2.595 2.129,4.698 4.756,4.698h2.88c0.473,0 0.927,0.186 1.261,0.516l0.985,0.973c0.558,0.551 1.314,0.86 2.102,0.86h2.285c3.941,0 7.135,-3.155 7.135,-7.047c0,-3.893 -3.194,-7.048 -7.135,-7.048h-9.513c-3.94,0 -7.134,3.155 -7.134,7.048c0,3.892 3.194,7.047 7.134,7.047h1.606c0.473,0 0.927,0.186 1.262,0.517l0.985,0.973c0.557,0.55 1.313,0.86 2.102,0.86h3.558c5.254,0 9.513,-4.207 9.513,-9.397c0,-5.19 -4.259,-9.397 -9.513,-9.397h-9.513c-5.253,0 -9.513,4.207 -9.513,9.397c0,5.19 4.26,9.397 9.513,9.397z" fill="currentColor"/>
</g></svg>