<svg viewBox="0 0 38.2838 20.8821" x="0" y="0" fill="none" xmlns="http://www.w3.org/2000/svg"><defs><clipPath id="clip4_204_686" xmlns="http://www.w3.org/2000/svg">
<rect width="38.2838" height="20.8821" fill="white" transform="translate(-0.0004000000000132786, 0.0003000000000383807)"/>
</clipPath></defs><g id="Logo_7" clip-path="url(#clip4_204_686)" xmlns="http://www.w3.org/2000/svg">
<path id="Vector_245" d="M38.2806,7.4263c0.004,-0.029 0.004,-0.058 0,-0.087c0.004,-0.024 0.004,-0.048 0,-0.071l-0.283,-2.042c-0.041,-0.244 -0.151,-0.472 -0.316,-0.659l-0.049,-0.056l-0.089,-0.087l-4.91,-4.146l0.138,0.135c-0.113,-0.132 -0.254,-0.238 -0.414,-0.309c-0.16,-0.072 -0.334,-0.107 -0.51,-0.104h-1.491c-0.242,-0.005 -0.479,0.071 -0.672,0.214c-0.203,-0.142 -0.447,-0.218 -0.697,-0.214h-1.491c-0.195,-0.003 -0.388,0.044 -0.559,0.138c-0.17,0.093 -0.313,0.229 -0.413,0.394c-0.154,0.235 -0.212,0.519 -0.162,0.794l0.187,1.287c-0.124,-0.069 -0.264,-0.104 -0.406,-0.103h-7.218c-0.259,0.001 -0.512,0.076 -0.73,0.214c-0.21,0.129 -0.378,0.314 -0.486,0.532l-0.559,-0.468c-0.22,-0.2 -0.51,-0.308 -0.81,-0.302h-11.326c-0.26,0.005 -0.515,0.076 -0.738,0.207c-0.305,0.175 -0.529,0.46 -0.624,0.794l-3.597,11.795c-0.067,0.194 -0.074,0.404 -0.019,0.602c0.055,0.198 0.169,0.376 0.327,0.51c0.041,0.034 0.085,0.066 0.13,0.095c0,0 -0.073,-0.047 -0.114,-0.087l4.91,4.154c0.208,0.188 0.479,0.292 0.762,0.294h11.415c0.261,-0.007 0.515,-0.081 0.738,-0.214c0.125,-0.068 0.238,-0.157 0.332,-0.263l0.04,-0.055l0.065,-0.08l0.049,-0.087l0.534,0.453c0.205,0.18 0.471,0.279 0.746,0.278h11.44c0.26,-0.009 0.514,-0.083 0.737,-0.215c0.123,-0.071 0.235,-0.159 0.332,-0.262l0.041,-0.055l0.064,-0.08c0.035,-0.05 0.065,-0.103 0.09,-0.159c0.026,-0.048 0.048,-0.098 0.064,-0.151l3.282,-10.77v-0.095c0.004,-0.037 0.004,-0.075 0,-0.112v-0.071c0.004,-0.024 0.004,-0.048 0,-0.072c0.003,-0.05 0.003,-0.1 0,-0.151h1.053c0.092,0.009 0.184,0.009 0.275,0h0.073c0.06,-0.017 0.117,-0.041 0.171,-0.071h0.081l0.145,-0.111l0.065,-0.048l0.114,-0.143v-0.048l0.081,-0.135c-0.005,-0.026 -0.005,-0.053 0,-0.079c-0.005,-0.013 -0.005,-0.027 0,-0.04c0.017,-0.046 0.03,-0.094 0.04,-0.143c-0.004,-0.015 -0.004,-0.032 0,-0.047c-0.004,-0.024 -0.004,-0.048 0,-0.072c0,0 0.162,-0.31 0.162,-0.326z" fill="currentColor"/>
<path id="Vector_246" d="M16.6726,3.3923c0.043,0.038 0.073,0.088 0.086,0.143c0.013,0.056 0.009,0.114 -0.013,0.166l-3.589,11.788c-0.045,0.128 -0.138,0.236 -0.259,0.301c-0.099,0.065 -0.214,0.104 -0.332,0.112h-11.408c-0.097,-0.005 -0.19,-0.045 -0.259,-0.112c-0.042,-0.037 -0.071,-0.086 -0.084,-0.14c-0.013,-0.053 -0.009,-0.11 0.011,-0.161l3.597,-11.788c0.042,-0.13 0.131,-0.24 0.251,-0.309c0.101,-0.061 0.215,-0.096 0.332,-0.104h11.408c0.097,0.001 0.189,0.038 0.259,0.104zM10.7176,13.1143l2.147,-7.038h-6.011l-2.139,7.038zM27.5616,3.5113c0.039,0.044 0.088,0.079 0.143,0.103c0.054,0.023 0.114,0.034 0.173,0.032h1.483c0.056,0 0.112,-0.013 0.162,-0.04c0.049,-0.026 0.091,-0.065 0.122,-0.111c0.026,-0.037 0.044,-0.078 0.054,-0.122c0.01,-0.043 0.011,-0.088 0.002,-0.132l-0.291,-2.097c-0.028,-0.097 -0.078,-0.187 -0.146,-0.262c-0.039,-0.045 -0.088,-0.08 -0.143,-0.103c-0.054,-0.024 -0.114,-0.035 -0.173,-0.032h-1.483c-0.056,-0.001 -0.112,0.013 -0.162,0.039c-0.049,0.026 -0.091,0.065 -0.121,0.111c-0.057,0.112 -0.081,0.183 -0.057,0.247l0.3,2.097c0.015,0.102 0.063,0.196 0.137,0.27zM32.2696,1.1283c-0.028,-0.097 -0.078,-0.187 -0.146,-0.262c-0.038,-0.044 -0.085,-0.08 -0.138,-0.103c-0.054,-0.023 -0.112,-0.035 -0.17,-0.032h-1.491c-0.055,-0.002 -0.11,0.011 -0.159,0.038c-0.048,0.026 -0.089,0.065 -0.116,0.113c-0.054,0.07 -0.078,0.159 -0.065,0.246l0.3,2.097c0.018,0.101 0.066,0.194 0.137,0.27c0.04,0.043 0.089,0.078 0.143,0.101c0.055,0.023 0.114,0.035 0.173,0.034h1.491c0.055,0.001 0.11,-0.013 0.158,-0.04c0.049,-0.026 0.089,-0.064 0.118,-0.111c0.028,-0.036 0.047,-0.077 0.057,-0.121c0.01,-0.044 0.01,-0.089 -0.001,-0.133zM26.2576,4.3053l-0.146,-1.033h-7.186c-0.113,0.006 -0.222,0.042 -0.316,0.104c-0.06,0.032 -0.112,0.076 -0.153,0.129c-0.04,0.054 -0.068,0.115 -0.082,0.18l-0.6,1.97c-0.024,0.049 -0.032,0.105 -0.023,0.159c0.008,0.053 0.034,0.103 0.072,0.143c0.068,0.063 0.157,0.1 0.251,0.103h8.734l-2.147,7.038h-8.71c-0.112,0.002 -0.221,0.035 -0.316,0.095c-0.114,0.071 -0.198,0.182 -0.235,0.31l-0.607,1.97c-0.02,0.05 -0.025,0.105 -0.015,0.158c0.01,0.054 0.034,0.103 0.071,0.143c0.067,0.068 0.156,0.107 0.252,0.112h11.439c0.119,-0.01 0.233,-0.048 0.333,-0.112c0.119,-0.065 0.209,-0.173 0.251,-0.301l3.289,-10.771h-3.702c-0.059,0.001 -0.117,-0.009 -0.172,-0.031c-0.054,-0.022 -0.103,-0.055 -0.144,-0.096c-0.067,-0.072 -0.115,-0.159 -0.138,-0.254z" fill="white"/>
</g></svg>