<svg viewBox="0 0 27.8428 27.8428" x="0" y="0" fill="none" xmlns="http://www.w3.org/2000/svg"><path id="Vector_243" fill-rule="evenodd" clip-rule="evenodd" d="M6.9606,0c3.844,0 6.961,3.116 6.961,6.961v-6.961h6.96c3.845,0 6.961,3.116 6.961,6.961c0,3.844 -3.116,6.96 -6.961,6.96c3.845,0 6.961,3.117 6.961,6.961c0,1.909 -0.768,3.638 -2.013,4.896l-0.026,0.026l-0.023,0.023c-1.257,1.246 -2.988,2.016 -4.899,2.016c-1.897,0 -3.617,-0.759 -4.873,-1.991c-0.016,-0.016 -0.032,-0.032 -0.049,-0.048c-0.015,-0.015 -0.03,-0.031 -0.045,-0.046c-1.233,-1.256 -1.993,-2.977 -1.993,-4.876c0,3.844 -3.117,6.961 -6.961,6.961c-3.844,0 -6.961,-3.117 -6.961,-6.961v-6.961h6.961c-3.844,0 -6.961,-3.116 -6.961,-6.96c0,-3.845 3.117,-6.961 6.961,-6.961zM12.5296,6.961c0,3.075 -2.493,5.568 -5.569,5.568v-11.137c3.076,0 5.569,2.493 5.569,5.569zM26.4506,20.882c0,-3.075 -2.493,-5.569 -5.569,-5.569c-3.075,0 -5.568,2.494 -5.568,5.569zM1.3926,15.313v5.569c0,3.075 2.493,5.569 5.568,5.569c3.076,0 5.569,-2.494 5.569,-5.569v-5.569zM15.3136,12.529v-11.137h5.568c3.076,0 5.569,2.493 5.569,5.569c0,3.075 -2.493,5.568 -5.569,5.568z" fill="currentColor" xmlns="http://www.w3.org/2000/svg"/></svg>