<svg viewBox="0 0 17.3611 6.6773" x="0" y="0" fill="none" xmlns="http://www.w3.org/2000/svg"><defs><clipPath id="clip25_204_686" xmlns="http://www.w3.org/2000/svg">
<rect width="17.3611" height="6.67733" fill="white" transform="translate(-0.003300000000081127, 0.00010000000008858478)"/>
</clipPath></defs><g id="Logo_27" clip-path="url(#clip25_204_686)" xmlns="http://www.w3.org/2000/svg">
<path id="Vector_544" d="M4.1167,0.0001c-0.67,0 -1.32,0.269 -1.8,0.749l-1.57,1.564c-0.48,0.48 -0.75,1.13 -0.75,1.808c0,1.412 1.15,2.556 2.56,2.556c0.68,0 1.33,-0.269 1.81,-0.749l1.08,-1.082v0l3.15,-3.153c0.23,-0.229 0.54,-0.358 0.87,-0.358c0.54,0 1,0.354 1.16,0.843l0.99,-0.996c-0.45,-0.711 -1.25,-1.182 -2.15,-1.182c-0.68,0 -1.33,0.269 -1.81,0.749l-4.24,4.235c-0.23,0.229 -0.54,0.358 -0.86,0.358c-0.67,0 -1.22,-0.547 -1.22,-1.221c0,-0.324 0.13,-0.634 0.36,-0.863l1.56,-1.565c0.23,-0.229 0.54,-0.358 0.86,-0.358c0.55,0 1.01,0.354 1.17,0.843l0.99,-0.996c-0.45,-0.711 -1.25,-1.182 -2.16,-1.182z" fill="currentColor"/>
<path id="Vector_545" d="M8.7567,4.9841c-0.22,0.229 -0.53,0.358 -0.86,0.358c-0.54,0 -1,-0.353 -1.16,-0.842l-0.99,0.995c0.45,0.711 1.25,1.182 2.15,1.182c0.68,0 1.33,-0.269 1.81,-0.749l4.23,-4.235c0.23,-0.229 0.54,-0.358 0.87,-0.358c0.67,0 1.22,0.547 1.22,1.221c0,0.324 -0.13,0.635 -0.36,0.864l-1.56,1.564c-0.23,0.229 -0.54,0.358 -0.87,0.358c-0.54,0 -1,-0.354 -1.16,-0.842l-0.99,0.995c0.45,0.711 1.25,1.182 2.15,1.182c0.68,0 1.33,-0.269 1.81,-0.749l1.57,-1.564c0.48,-0.48 0.74,-1.13 0.74,-1.808c0,-1.412 -1.14,-2.556 -2.55,-2.556c-0.68,0 -1.33,0.269 -1.81,0.749z" fill="currentColor"/>
</g></svg>