<svg viewBox="0 0 13.3547 9.3483" x="0" y="0" fill="none" xmlns="http://www.w3.org/2000/svg"><path id="Vector_525" fill-rule="evenodd" clip-rule="evenodd" d="M3.3357,1.3736l-3.34,3.301c0.67,0.66 1.43,1.216 2.26,1.651c0.23,0.603 0.59,1.168 1.08,1.654c1.85,1.825 4.84,1.825 6.68,0c0.49,-0.486 0.85,-1.051 1.08,-1.654c0.83,-0.435 1.59,-0.991 2.26,-1.651l-3.33,-3.298c0,-0.003 -0.01,-0.005 -0.01,-0.008c-1.84,-1.825 -4.83,-1.825 -6.68,0c0,0.002 0,0.004 0,0.005zM9.6957,6.9216c-0.97,0.324 -1.99,0.491 -3.02,0.491c-1.03,0 -2.05,-0.167 -3.02,-0.491c0.11,0.138 0.22,0.271 0.35,0.397c1.48,1.46 3.87,1.46 5.34,0c0.13,-0.126 0.25,-0.259 0.35,-0.397zM4.0757,1.9636c0.25,0.164 0.52,0.304 0.79,0.419c0.58,0.235 1.19,0.355 1.81,0.355c0.62,0 1.24,-0.12 1.81,-0.355c0.28,-0.115 0.54,-0.255 0.79,-0.419c-1.45,-1.372 -3.74,-1.372 -5.2,0z" fill="currentColor" xmlns="http://www.w3.org/2000/svg"/></svg>