<svg viewBox="0 0 15.6917 9.6821" x="0" y="0" fill="none" xmlns="http://www.w3.org/2000/svg"><defs><clipPath id="clip23_204_686" xmlns="http://www.w3.org/2000/svg">
<rect width="15.6917" height="9.68213" fill="white" transform="translate(0.004900000000134241, -0.0004000000000132786)"/>
</clipPath></defs><g id="Logo_23" clip-path="url(#clip23_204_686)" xmlns="http://www.w3.org/2000/svg">
<path id="Vector_528" d="M14.6849,1.1906c0,0.011 0,0.025 0,0.033c-0.01,0.11 -0.01,0.221 0,0.333c0,0.029 0.01,0.057 0.03,0.079c0.04,0.043 0.1,0.034 0.12,-0.016c0.01,-0.026 0.01,-0.051 0.01,-0.077c-0.03,-0.107 -0.04,-0.22 -0.04,-0.33c0,-0.006 0,-0.014 0,-0.022c0.03,-0.003 0.06,-0.006 0.09,-0.006c0.02,-0.003 0.04,-0.006 0.05,-0.014c0.04,-0.023 0.04,-0.071 0,-0.093c-0.02,-0.009 -0.04,-0.012 -0.06,-0.012c-0.08,0.003 -0.15,0.003 -0.23,0.003c-0.02,0 -0.05,0.003 -0.07,0.006c-0.02,0.003 -0.04,0.003 -0.05,0.011c-0.02,0.009 -0.03,0.023 -0.03,0.042c0,0.02 0.01,0.032 0.03,0.04c0.01,0.008 0.03,0.011 0.04,0.011c0.04,0.003 0.08,0.009 0.11,0.012zM15.4949,1.3196c0,0.003 0.01,0.006 0.01,0.006c0.01,0.076 0.02,0.15 0.03,0.223c0,0.025 0,0.048 0.02,0.068c0.04,0.048 0.1,0.042 0.12,-0.009c0.02,-0.025 0.02,-0.051 0.01,-0.079c-0.01,-0.084 -0.02,-0.169 -0.04,-0.251c-0.01,-0.051 -0.03,-0.099 -0.04,-0.144c-0.01,-0.028 -0.03,-0.048 -0.07,-0.051c-0.03,-0.005 -0.06,0.012 -0.07,0.037c-0.02,0.023 -0.03,0.045 -0.05,0.071c-0.02,0.045 -0.03,0.09 -0.06,0.132c0,0.011 0,0.02 -0.01,0.028c0,-0.005 -0.01,-0.008 -0.01,-0.008c-0.03,-0.071 -0.07,-0.141 -0.11,-0.209c0,-0.006 -0.01,-0.011 -0.01,-0.017c-0.02,-0.025 -0.04,-0.039 -0.07,-0.039c-0.03,0.002 -0.05,0.019 -0.07,0.045c0,0.011 0,0.02 -0.01,0.031c-0.01,0.09 -0.02,0.18 -0.03,0.271c-0.01,0.051 -0.01,0.101 -0.01,0.152c-0.01,0.012 0,0.026 0,0.037c0.01,0.022 0.03,0.037 0.05,0.039c0.03,0.003 0.05,-0.005 0.06,-0.028c0.01,-0.017 0.01,-0.031 0.01,-0.045c0.01,-0.051 0.02,-0.099 0.03,-0.147c0.01,-0.028 0.01,-0.051 0.02,-0.082c0.01,0.012 0.01,0.02 0.02,0.029c0.02,0.034 0.05,0.067 0.08,0.096c0.04,0.022 0.06,0.019 0.09,-0.006c0,-0.006 0.01,-0.008 0.01,-0.014c0.03,-0.04 0.06,-0.079 0.09,-0.119c0,-0.005 0.01,-0.011 0.01,-0.017z" fill="currentColor"/>
<path id="Vector_529" d="M8.7249,1.2456c-0.02,0.054 -0.03,0.092 -0.02,0.124c0.01,0.044 0.04,0.058 0.08,0.047c0.34,-0.082 1.1,0.151 1.38,0.216c0.07,0.013 0.12,-0.069 0.07,-0.142c-0.06,-0.071 -0.82,-0.376 -1.11,-0.392c-0.11,-0.006 -0.31,-0.034 -0.4,0.147z" fill="currentColor"/>
<path id="Vector_530" d="M11.6849,0.2596c0.03,0.02 0.05,0.04 0.06,0.062c0.02,0.028 0.01,0.048 -0.01,0.058c-0.23,0.107 -0.54,0.567 -0.66,0.726c-0.03,0.037 -0.1,0.015 -0.11,-0.045c0.01,-0.068 0.27,-0.567 0.42,-0.703c0.06,-0.054 0.16,-0.158 0.3,-0.098z" fill="currentColor"/>
<path id="Vector_531" d="M9.8649,0.0326c0.04,-0.032 0.09,-0.043 0.11,-0.022c0.35,0.283 0.53,0.73 0.64,1.14c0.01,0.01 0.01,0.024 0,0.038c0,0.012 -0.01,0.025 -0.02,0.035c-0.02,0.011 -0.03,0.014 -0.04,0.005c-0.15,-0.197 -1.01,-0.964 -0.69,-1.196z" fill="currentColor"/>
<path id="Vector_532" d="M2.5649,4.9356c0.09,-0.059 0.18,-0.109 0.27,-0.147c0.1,-0.027 0.21,-0.022 0.3,0.013c0.1,0.036 0.18,0.101 0.24,0.185c0.05,0.084 0.06,0.181 0.05,0.276c-0.01,0.095 -0.06,0.184 -0.13,0.252c-0.05,0.056 -0.12,0.104 -0.18,0.144c-0.31,0.187 -0.61,0.364 -0.91,0.552c-0.07,0.046 -0.13,0.089 -0.2,0.125c-0.11,0.051 -0.23,0.064 -0.34,0.039c-0.12,-0.026 -0.22,-0.09 -0.29,-0.18c-0.05,-0.064 -0.1,-0.133 -0.13,-0.208c-0.29,-0.582 -0.59,-1.162 -0.87,-1.754c-0.13,-0.257 -0.23,-0.552 -0.33,-0.837c-0.05,-0.082 -0.06,-0.178 -0.03,-0.267c0.03,-0.089 0.09,-0.163 0.18,-0.208c0.08,-0.044 0.18,-0.055 0.28,-0.03c0.09,0.025 0.17,0.084 0.22,0.164c0.15,0.191 0.28,0.393 0.39,0.606c0.29,0.513 0.57,1.026 0.85,1.523c0.01,0.028 0.03,0.054 0.05,0.08c0.21,-0.085 0.4,-0.195 0.58,-0.328z" fill="currentColor"/>
<path id="Vector_533" d="M5.5549,4.7566c-0.66,0.741 -1.77,0.554 -2.32,-0.401c-0.4,-0.677 -0.47,-1.796 0.39,-2.501c0.19,-0.148 0.41,-0.248 0.64,-0.292c0.29,-0.04 0.58,0.009 0.84,0.139c0.26,0.13 0.47,0.336 0.6,0.587c0.47,0.821 0.4,1.867 -0.15,2.468zM5.2849,3.0266c-0.07,-0.201 -0.21,-0.374 -0.4,-0.487c-0.1,-0.073 -0.23,-0.108 -0.36,-0.1c-0.13,0.008 -0.25,0.059 -0.35,0.144c-0.38,0.325 -0.46,1.098 -0.18,1.557c0.03,0.075 0.08,0.141 0.15,0.195c0.06,0.053 0.14,0.093 0.22,0.115c0.08,0.022 0.17,0.027 0.26,0.014c0.08,-0.014 0.16,-0.044 0.23,-0.091c0.21,-0.154 0.36,-0.366 0.44,-0.607c0.07,-0.241 0.07,-0.499 -0.02,-0.737z" fill="currentColor"/>
<path id="Vector_534" d="M8.2449,3.3506c-0.06,0.014 -0.13,0.014 -0.2,0.002c-0.07,-0.012 -0.13,-0.037 -0.19,-0.074c-0.05,-0.028 -0.1,-0.066 -0.13,-0.112c-0.03,-0.045 -0.05,-0.097 -0.06,-0.152c-0.01,-0.055 -0.01,-0.112 0,-0.165c0.02,-0.054 0.05,-0.104 0.09,-0.146c0.06,-0.084 0.16,-0.145 0.26,-0.172c0.28,-0.077 0.57,-0.125 0.86,-0.141c0.06,-0.007 0.13,-0.002 0.19,0.015c0.06,0.018 0.12,0.046 0.17,0.085c0.05,0.039 0.09,0.087 0.12,0.141c0.03,0.054 0.05,0.114 0.05,0.175c0.09,0.301 0.1,0.616 0.03,0.921c-0.24,0.985 -1.07,1.324 -2,1.008c-0.26,-0.084 -0.49,-0.242 -0.66,-0.451c-0.22,-0.253 -0.38,-0.553 -0.46,-0.875c-0.06,-0.287 -0.06,-0.585 0.02,-0.869c0.08,-0.284 0.23,-0.545 0.44,-0.763c0.19,-0.236 0.44,-0.422 0.73,-0.541c0.19,-0.097 0.4,-0.124 0.6,-0.077c0.05,0.012 0.09,0.036 0.12,0.069c0.04,0.033 0.06,0.073 0.07,0.118c0.01,0.044 0.01,0.091 0,0.135c-0.02,0.043 -0.04,0.083 -0.08,0.114c-0.07,0.058 -0.14,0.109 -0.22,0.154c-0.23,0.145 -0.44,0.332 -0.6,0.551c-0.11,0.142 -0.19,0.305 -0.22,0.477c-0.04,0.173 -0.03,0.351 0.01,0.521c0.06,0.233 0.19,0.442 0.38,0.598c0.59,0.513 1.36,0.018 1.22,-0.682c-0.19,0.046 -0.36,0.095 -0.54,0.136z" fill="currentColor"/>
<path id="Vector_535" d="M11.8449,4.7976c-0.87,0.513 -1.86,0 -2.08,-1.078c-0.16,-0.77 0.14,-1.847 1.19,-2.258c0.22,-0.085 0.47,-0.115 0.7,-0.087c0.29,0.051 0.55,0.186 0.75,0.387c0.21,0.201 0.34,0.458 0.38,0.734c0.18,0.916 -0.23,1.894 -0.94,2.302zM12.1449,3.0706c0,-0.213 -0.08,-0.419 -0.22,-0.582c-0.08,-0.101 -0.19,-0.173 -0.32,-0.205c-0.12,-0.031 -0.26,-0.02 -0.37,0.033c-0.47,0.195 -0.81,0.903 -0.69,1.424c0.01,0.081 0.04,0.16 0.09,0.231c0.04,0.07 0.1,0.13 0.17,0.176c0.07,0.046 0.15,0.077 0.24,0.09c0.08,0.012 0.17,0.007 0.25,-0.015c0.25,-0.083 0.46,-0.239 0.62,-0.446c0.15,-0.206 0.23,-0.453 0.23,-0.706z" fill="currentColor"/>
<path id="Vector_536" d="M13.6649,5.0126c-0.02,0.094 -0.07,0.179 -0.14,0.237c-0.08,0.057 -0.18,0.082 -0.28,0.07c-0.1,-0.013 -0.19,-0.062 -0.25,-0.138c-0.06,-0.075 -0.08,-0.17 -0.07,-0.264c0.01,-0.094 0.06,-0.179 0.14,-0.236c0.08,-0.058 0.18,-0.083 0.28,-0.07c0.1,0.012 0.19,0.062 0.25,0.137c0.05,0.075 0.08,0.17 0.07,0.264zM13.4349,1.5516c0.05,-0.074 0.12,-0.131 0.21,-0.161c0.09,-0.031 0.18,-0.034 0.27,-0.008c0.09,0.022 0.17,0.072 0.23,0.144c0.05,0.071 0.08,0.159 0.08,0.248c-0.02,0.144 -0.04,0.286 -0.07,0.426c-0.09,0.475 -0.17,0.95 -0.27,1.419c-0.04,0.187 -0.1,0.367 -0.16,0.557c-0.02,0.059 -0.05,0.113 -0.1,0.156c-0.03,0.033 -0.07,0.058 -0.11,0.073c-0.04,0.015 -0.09,0.02 -0.13,0.014c-0.05,-0.006 -0.09,-0.023 -0.13,-0.049c-0.03,-0.026 -0.06,-0.06 -0.08,-0.099c-0.03,-0.071 -0.05,-0.147 -0.05,-0.224c0,-0.318 0,-0.638 0.02,-0.959c0.04,-0.458 0.11,-0.912 0.22,-1.36c0.01,-0.06 0.03,-0.117 0.07,-0.169z" fill="currentColor"/>
<path id="Vector_537" fill-rule="evenodd" clip-rule="evenodd" d="M1.4349,7.0746c-0.03,0.067 -0.04,0.143 -0.02,0.215c0.01,0.096 0.03,0.19 0.07,0.28c0.04,0.111 0.09,0.22 0.15,0.355c0.01,0.031 0.02,0.064 0.04,0.098c0.08,0.182 0.18,0.416 0.31,0.754c0.04,0.096 0.07,0.193 0.11,0.29c0.01,0.039 0.02,0.079 0.04,0.118c0.05,0.141 0.14,0.268 0.25,0.368c0.05,0.055 0.11,0.095 0.19,0.115c0.07,0.021 0.15,0.019 0.22,-0.004c0.07,-0.023 0.14,-0.066 0.18,-0.124c0.05,-0.057 0.08,-0.126 0.08,-0.198c0.03,-0.141 0.02,-0.286 -0.03,-0.421c-0.07,-0.225 -0.16,-0.45 -0.27,-0.67v-0.001c-0.16,-0.344 -0.34,-0.685 -0.52,-1.027v-0.003c-0.05,-0.089 -0.12,-0.168 -0.2,-0.235c-0.05,-0.059 -0.12,-0.099 -0.2,-0.113c-0.09,-0.014 -0.17,0 -0.24,0.04c-0.07,0.037 -0.12,0.094 -0.16,0.163z" fill="currentColor"/>
<path id="Vector_538" fill-rule="evenodd" clip-rule="evenodd" d="M4.0149,6.2266c-0.27,-0.065 -0.54,-0.075 -0.81,-0.028c-0.21,0.02 -0.41,0.066 -0.55,0.157c-0.08,0.047 -0.13,0.106 -0.17,0.182c-0.03,0.076 -0.03,0.163 -0.01,0.26c0.05,0.178 0.11,0.351 0.18,0.523l0.01,0.028v0.001c0.19,0.5 0.38,0.999 0.58,1.496c0.02,0.078 0.05,0.154 0.09,0.225v0.002c0.06,0.088 0.12,0.167 0.21,0.234c0.04,0.036 0.09,0.062 0.14,0.073c0.06,0.011 0.11,0.008 0.17,-0.01c0.05,-0.017 0.1,-0.049 0.13,-0.09c0.04,-0.041 0.06,-0.091 0.07,-0.143c0.03,-0.143 0.02,-0.292 -0.03,-0.429c-0.02,-0.045 -0.03,-0.092 -0.05,-0.142c0,-0.016 -0.01,-0.033 -0.01,-0.05c0.44,-0.167 0.91,-0.39 1.08,-0.912c0.06,-0.18 0.07,-0.375 0.01,-0.558c-0.05,-0.183 -0.16,-0.346 -0.32,-0.465c-0.21,-0.167 -0.46,-0.288 -0.72,-0.354zM3.2849,6.8666c0.01,-0.003 0.01,-0.005 0.02,-0.007c0.29,-0.044 0.59,0.014 0.84,0.163c0.1,0.073 0.15,0.154 0.16,0.232c0.01,0.081 -0.03,0.168 -0.09,0.251c-0.11,0.158 -0.32,0.285 -0.51,0.308c-0.14,-0.306 -0.28,-0.625 -0.42,-0.947z" fill="currentColor"/>
<path id="Vector_539" d="M5.7749,5.6656c0.32,-0.139 0.71,-0.163 1.01,-0.065c0.08,0.021 0.14,0.068 0.19,0.131c0.04,0.063 0.06,0.139 0.06,0.215c0,0.049 -0.02,0.098 -0.04,0.142c-0.02,0.044 -0.06,0.083 -0.1,0.112c-0.04,0.028 -0.09,0.047 -0.15,0.054c-0.05,0.006 -0.1,0.001 -0.15,-0.016v-0.002l-0.01,-0.001c-0.02,-0.013 -0.05,-0.023 -0.08,-0.029v0c-0.21,-0.055 -0.42,0.036 -0.49,0.147c-0.03,0.053 -0.04,0.107 -0.01,0.156c0.03,0.052 0.11,0.11 0.27,0.152c0.04,0.012 0.08,0.022 0.13,0.034c0.12,0.03 0.25,0.062 0.37,0.106v0c0.58,0.209 0.79,0.642 0.72,1.049c-0.08,0.403 -0.43,0.769 -0.95,0.855c-0.2,0.041 -0.4,0.033 -0.58,-0.023c-0.19,-0.056 -0.36,-0.158 -0.49,-0.296l-0.01,-0.004c-0.04,-0.052 -0.07,-0.113 -0.08,-0.178c-0.01,-0.059 -0.01,-0.119 0.02,-0.175c0.02,-0.055 0.06,-0.103 0.11,-0.137c0.05,-0.04 0.12,-0.063 0.18,-0.068c0.07,-0.005 0.14,0.009 0.19,0.04c0.06,0.027 0.12,0.061 0.16,0.102l0.01,0.001c0.08,0.076 0.19,0.095 0.29,0.077c0.1,-0.018 0.19,-0.076 0.25,-0.153c0.07,-0.076 0.09,-0.166 0.06,-0.253c-0.03,-0.089 -0.12,-0.188 -0.31,-0.27c-0.05,-0.021 -0.1,-0.037 -0.16,-0.054c-0.01,-0.004 -0.03,-0.008 -0.04,-0.013c-0.04,-0.011 -0.08,-0.023 -0.12,-0.037c-0.03,-0.009 -0.06,-0.018 -0.09,-0.026c-0.07,-0.024 -0.14,-0.047 -0.22,-0.077c-0.15,-0.05 -0.28,-0.147 -0.37,-0.275c-0.1,-0.128 -0.14,-0.282 -0.14,-0.438c0,-0.381 0.25,-0.643 0.57,-0.783z" fill="currentColor"/>
<path id="Vector_540" d="M9.7649,5.6256c-0.06,-0.029 -0.13,-0.043 -0.2,-0.04c-0.06,0.003 -0.13,0.022 -0.19,0.055c-0.06,0.033 -0.1,0.079 -0.14,0.135c-0.03,0.047 -0.05,0.099 -0.06,0.154c-0.02,0.054 -0.02,0.111 0,0.165c0.01,0.071 0.02,0.139 0.03,0.206c0.02,0.112 0.04,0.221 0.06,0.332v0.003c0.03,0.174 0.04,0.351 0.04,0.527v0.003c0.01,0.191 -0.05,0.378 -0.18,0.522l-0.01,0.002c-0.04,0.053 -0.1,0.093 -0.16,0.116c-0.07,0.023 -0.14,0.028 -0.21,0.015c-0.06,-0.013 -0.13,-0.044 -0.18,-0.089c-0.05,-0.046 -0.08,-0.104 -0.1,-0.168c-0.04,-0.136 -0.06,-0.275 -0.07,-0.416l0.07,-1.018c0,-0.013 0,-0.027 0,-0.04c0,-0.031 0.01,-0.063 0.01,-0.092c0,-0.043 0,-0.088 -0.01,-0.13c-0.01,-0.043 -0.04,-0.084 -0.07,-0.119c-0.04,-0.034 -0.09,-0.06 -0.15,-0.077c-0.11,-0.031 -0.2,-0.03 -0.28,0.002c-0.08,0.032 -0.13,0.09 -0.17,0.158c-0.03,0.067 -0.06,0.147 -0.08,0.227c-0.01,0.059 -0.02,0.121 -0.03,0.18c0,0.021 -0.01,0.041 -0.01,0.06v0.001c-0.06,0.324 -0.07,0.653 -0.05,0.981c0,0.177 0.04,0.352 0.11,0.516c0.08,0.211 0.23,0.394 0.42,0.524c0.19,0.131 0.42,0.203 0.65,0.207c0.24,0.004 0.47,-0.061 0.66,-0.185c0.2,-0.125 0.35,-0.303 0.44,-0.512c0.12,-0.265 0.18,-0.554 0.16,-0.844c0,-0.212 -0.02,-0.426 -0.03,-0.638c0,-0.104 -0.01,-0.208 -0.01,-0.312c-0.01,-0.103 -0.04,-0.204 -0.11,-0.287c-0.04,-0.053 -0.09,-0.096 -0.15,-0.124z" fill="currentColor"/>
<path id="Vector_541" d="M11.9249,7.2216c-0.01,0.007 -0.01,0.015 -0.02,0.023c-0.05,-0.274 -0.1,-0.549 -0.14,-0.824c-0.02,-0.099 -0.03,-0.198 -0.05,-0.297v-0.011l-0.01,-0.01c-0.01,-0.018 -0.01,-0.035 -0.01,-0.073v-0.004v-0.004c-0.01,-0.078 -0.05,-0.15 -0.11,-0.207c-0.05,-0.057 -0.13,-0.097 -0.2,-0.114c-0.08,-0.019 -0.17,-0.015 -0.24,0.012c-0.08,0.026 -0.15,0.074 -0.2,0.137c-0.04,0.048 -0.07,0.101 -0.09,0.158c-0.06,0.123 -0.12,0.246 -0.17,0.37l-0.01,0.002c-0.14,0.308 -0.28,0.619 -0.42,0.931v0.002c-0.09,0.202 -0.16,0.416 -0.23,0.629c-0.01,0.043 -0.03,0.085 -0.04,0.128c-0.02,0.067 -0.04,0.138 -0.03,0.21c-0.01,0.064 0.01,0.127 0.04,0.182c0.04,0.057 0.09,0.101 0.15,0.127c0.07,0.028 0.14,0.033 0.21,0.017c0.07,-0.017 0.14,-0.056 0.18,-0.111c0.06,-0.067 0.11,-0.14 0.15,-0.218c0.12,-0.232 0.23,-0.466 0.34,-0.699c0.04,-0.09 0.09,-0.171 0.13,-0.259c0.01,0.011 0.01,0.021 0.01,0.032c0.05,0.212 0.14,0.416 0.25,0.603c0.03,0.04 0.06,0.074 0.09,0.102c0.04,0.027 0.09,0.047 0.13,0.056c0.05,0.01 0.1,0.01 0.14,0c0.05,-0.009 0.09,-0.029 0.13,-0.056l0.07,-0.054l0.58,-0.468l-0.03,0.21c-0.05,0.288 -0.09,0.573 -0.14,0.858c-0.04,0.127 -0.04,0.259 0,0.386c0.01,0.071 0.05,0.136 0.1,0.188c0.05,0.052 0.12,0.087 0.2,0.101c0.07,0.014 0.15,0.006 0.22,-0.022c0.07,-0.028 0.13,-0.076 0.17,-0.136c0.09,-0.114 0.15,-0.251 0.17,-0.396c0.02,-0.205 0.05,-0.413 0.08,-0.621c0.03,-0.239 0.06,-0.479 0.09,-0.713v-0.001c0.03,-0.257 0.04,-0.515 0.04,-0.773c0,-0.082 -0.02,-0.163 -0.06,-0.233c-0.05,-0.069 -0.12,-0.124 -0.2,-0.155c-0.08,-0.036 -0.17,-0.045 -0.26,-0.027c-0.09,0.018 -0.17,0.063 -0.23,0.127c-0.1,0.095 -0.2,0.196 -0.3,0.304v0c-0.1,0.122 -0.2,0.245 -0.3,0.368c-0.06,0.075 -0.12,0.149 -0.18,0.223z" fill="currentColor"/>
</g></svg>