<svg viewBox="0 0 13.3547 13.3547" x="0" y="0" fill="none" xmlns="http://www.w3.org/2000/svg"><path id="Vector_524" fill-rule="evenodd" clip-rule="evenodd" d="M3.3394,0.0001c1.84,0 3.34,1.495 3.34,3.339v-3.339h3.34c1.84,0 3.34,1.495 3.34,3.339c0,1.843 -1.5,3.338 -3.34,3.338c1.84,0 3.34,1.495 3.34,3.339c0,0.915 -0.37,1.745 -0.97,2.348l-0.01,0.013l-0.01,0.011c-0.61,0.597 -1.44,0.967 -2.35,0.967c-0.91,0 -1.74,-0.365 -2.34,-0.955c-0.01,-0.008 -0.02,-0.016 -0.02,-0.023c-0.01,-0.008 -0.02,-0.015 -0.03,-0.022c-0.59,-0.603 -0.95,-1.428 -0.95,-2.339c0,1.844 -1.5,3.339 -3.34,3.339c-1.84,0 -3.34,-1.495 -3.34,-3.339v-3.339h3.34c-1.84,0 -3.34,-1.495 -3.34,-3.338c0,-1.844 1.5,-3.339 3.34,-3.339zM6.0094,3.3391c0,1.475 -1.2,2.67 -2.67,2.67v-5.341c1.47,0 2.67,1.195 2.67,2.671zM12.6894,10.0161c0,-1.475 -1.2,-2.671 -2.67,-2.671c-1.48,0 -2.67,1.196 -2.67,2.671zM0.6694,7.3451v2.671c0,1.475 1.19,2.671 2.67,2.671c1.47,0 2.67,-1.196 2.67,-2.671v-2.671zM7.3494,6.0091v-5.341h2.67c1.47,0 2.67,1.195 2.67,2.671c0,1.475 -1.2,2.67 -2.67,2.67z" fill="currentColor" xmlns="http://www.w3.org/2000/svg"/></svg>