<svg viewBox="0 0 13.6885 9.0144" x="0" y="0" fill="none" xmlns="http://www.w3.org/2000/svg"><defs><clipPath id="clip24_204_686" xmlns="http://www.w3.org/2000/svg">
<rect width="13.6885" height="9.0144" fill="white" transform="translate(0.0008000000000265572, -0.0003000000000383807)"/>
</clipPath></defs><g id="Logo_25" clip-path="url(#clip24_204_686)" xmlns="http://www.w3.org/2000/svg">
<path id="Vector_542" d="M12.8308,0.2817c0,0.156 0.13,0.282 0.29,0.282h0.28c0.16,0 0.29,-0.126 0.29,-0.282c0,-0.156 -0.13,-0.282 -0.29,-0.282h-0.28c-0.16,0 -0.29,0.126 -0.29,0.282z" fill="currentColor"/>
<path id="Vector_543" d="M4.5608,9.0147h1.39l-0.41,-0.399c-0.1,-0.105 -0.25,-0.165 -0.4,-0.165h-0.58c-2.2,0 -3.99,-1.765 -3.99,-3.943c0,-2.179 1.79,-3.944 3.99,-3.944h4.56c2.21,0 4,1.765 4,3.944c0,2.178 -1.79,3.943 -4,3.943h-1.7c-0.23,0 -0.45,-0.089 -0.61,-0.247l-0.47,-0.467c-0.27,-0.264 -0.63,-0.412 -1.01,-0.412h-0.77c-1.57,0 -2.85,-1.262 -2.85,-2.817c0,-1.556 1.28,-2.817 2.85,-2.817h4.56c1.58,0 2.86,1.261 2.86,2.817c0,1.555 -1.28,2.817 -2.86,2.817h-1.09c-0.23,0 -0.45,-0.09 -0.61,-0.248l-0.47,-0.467c-0.27,-0.264 -0.63,-0.412 -1.01,-0.412h-1.38c-0.94,0 -1.71,-0.757 -1.71,-1.69c0,-0.934 0.77,-1.691 1.71,-1.691h4.56c0.95,0 1.72,0.757 1.72,1.691c0,0.922 -0.75,1.671 -1.68,1.689v0.001h-0.42c-0.23,0 -0.44,-0.089 -0.6,-0.248l-0.48,-0.467c-0.22,-0.216 -0.5,-0.355 -0.8,-0.398l-0.02,-0.014h-2.28c-0.31,0 -0.57,-0.252 -0.57,-0.563c0,-0.312 0.26,-0.564 0.57,-0.564h4.56c0.32,0 0.58,0.252 0.58,0.564c0,0.311 -0.26,0.563 -0.58,0.563h-1.14l0.41,0.398c0.1,0.106 0.25,0.165 0.4,0.165h0.33c0.63,0 1.15,-0.504 1.15,-1.126c0,-0.623 -0.52,-1.127 -1.15,-1.127h-4.56c-0.63,0 -1.14,0.504 -1.14,1.127c0,0.622 0.51,1.126 1.14,1.126h2.1c0.22,0 0.44,0.089 0.6,0.248l0.47,0.467c0.27,0.264 0.63,0.412 1.01,0.412h0.53v-0.004c1.19,-0.073 2.14,-1.052 2.14,-2.249c0,-1.245 -1.03,-2.254 -2.29,-2.254h-4.56c-1.26,0 -2.28,1.009 -2.28,2.254c0,1.244 1.02,2.253 2.28,2.253h1.38c0.23,0 0.45,0.089 0.61,0.248l0.47,0.466c0.27,0.265 0.63,0.413 1.01,0.413h1.09c1.89,0 3.43,-1.514 3.43,-3.38c0,-1.867 -1.54,-3.381 -3.43,-3.381h-4.56c-1.89,0 -3.42,1.514 -3.42,3.381c0,1.866 1.53,3.38 3.42,3.38h0.77c0.23,0 0.45,0.089 0.61,0.247l0.47,0.467c0.27,0.264 0.63,0.413 1.01,0.413h1.7c2.52,0 4.57,-2.018 4.57,-4.507c0,-2.49 -2.05,-4.508 -4.57,-4.508h-4.56c-2.52,0 -4.56,2.018 -4.56,4.508c0,2.489 2.04,4.507 4.56,4.507z" fill="currentColor"/>
</g></svg>